<svg width="32" height="32" viewBox="0 0 32 32" fill="none" xmlns="http://www.w3.org/2000/svg">
<path fill-rule="evenodd" clip-rule="evenodd" d="M4.8 1.6V3.75533C3.76152 4.06454 2.84218 4.54496 2.09357 5.29357C1.18734 6.19981 0.674128 7.35622 0.381856 8.67134C0.0936322 9.96829 0 11.5129 0 13.2992V21.9008C0 23.687 0.0936322 25.2317 0.381856 26.5286C0.674128 27.8438 1.18734 29.0002 2.09357 29.9064C2.99981 30.8126 4.15622 31.3259 5.47134 31.6181C6.76829 31.9064 8.31291 32 10.0992 32H21.9008C23.687 32 25.2317 31.9064 26.5286 31.6181C27.8438 31.3259 29.0002 30.8126 29.9064 29.9064C30.8126 29.0002 31.3259 27.8438 31.6181 26.5286C31.9064 25.2317 32 23.687 32 21.9008V13.2992C32 11.5129 31.9064 9.96829 31.6181 8.67134C31.3259 7.35622 30.8126 6.19981 29.9064 5.29357C29.1578 4.54496 28.2386 4.06454 27.2 3.75533V1.6C27.2 0.716352 26.4837 0 25.6 0C24.7163 0 24 0.716352 24 1.6V3.25563C23.3422 3.21613 22.6424 3.2 21.9008 3.2H10.0992C9.35768 3.2 8.65781 3.21613 8 3.25563V1.6C8 0.716352 7.28365 0 6.4 0C5.51635 0 4.8 0.716352 4.8 1.6ZM6.4 11.2C6.4 10.3164 7.11635 9.6 8 9.6H24C24.8837 9.6 25.6 10.3164 25.6 11.2C25.6 12.0836 24.8837 12.8 24 12.8H8C7.11635 12.8 6.4 12.0836 6.4 11.2Z" fill="#68B07B"/>
</svg>
