<svg width="32" height="32" viewBox="0 0 32 32" fill="none" xmlns="http://www.w3.org/2000/svg">
<path fill-rule="evenodd" clip-rule="evenodd" d="M2.34315 2.34315C-1.83105e-07 4.68629 0 8.45752 0 16C0 23.5424 -1.83105e-07 27.3138 2.34315 29.6568C4.68629 32 8.45752 32 16 32C23.5424 32 27.3138 32 29.6568 29.6568C32 27.3138 32 23.5424 32 16C32 8.45752 32 4.68629 29.6568 2.34315C27.3138 -1.83105e-07 23.5424 0 16 0C8.45752 0 4.68629 -1.83105e-07 2.34315 2.34315ZM13.669 8.82758C14.1261 8.34768 14.1075 7.5881 13.6275 7.13104C13.1477 6.67397 12.3881 6.6925 11.931 7.17242L8.22858 11.06L7.26896 10.0524C6.8119 9.5725 6.05234 9.55397 5.57242 10.011C5.0925 10.4681 5.07397 11.2277 5.53104 11.7076L7.35962 13.6275C7.5861 13.8654 7.90016 14 8.22858 14C8.55699 14 8.87104 13.8654 9.09754 13.6275L13.669 8.82758ZM17.6 10C16.9373 10 16.4 10.5373 16.4 11.2C16.4 11.8628 16.9373 12.4 17.6 12.4H25.6C26.2627 12.4 26.8 11.8628 26.8 11.2C26.8 10.5373 26.2627 10 25.6 10H17.6ZM13.669 20.0275C14.1261 19.5477 14.1075 18.7882 13.6275 18.331C13.1477 17.8739 12.3881 17.8925 11.931 18.3725L8.22858 22.26L7.26896 21.2525C6.8119 20.7725 6.05234 20.7539 5.57242 21.211C5.0925 21.6682 5.07397 22.4277 5.53104 22.9075L7.35962 24.8275C7.5861 25.0654 7.90016 25.2 8.22858 25.2C8.55699 25.2 8.87104 25.0654 9.09754 24.8275L13.669 20.0275ZM17.6 21.2C16.9373 21.2 16.4 21.7373 16.4 22.4C16.4 23.0627 16.9373 23.6 17.6 23.6H25.6C26.2627 23.6 26.8 23.0627 26.8 22.4C26.8 21.7373 26.2627 21.2 25.6 21.2H17.6Z" fill="#68B07B"/>
</svg>
