<svg width="26" height="33" viewBox="0 0 26 33" fill="none" xmlns="http://www.w3.org/2000/svg">
<ellipse cx="12.5901" cy="28.0288" rx="12.5901" ry="4.47118" fill="#F4E3F0"/>
<path d="M23.2271 8.86578L23.0757 26.1356L17.9756 29.0801V11.8509L18.5102 10.8896L19.4554 11.0434L19.8385 10.1227L20.7143 10.3165L21.0974 9.39583L21.9357 9.61135L22.3663 8.66327L23.2271 8.86578Z" fill="#CCA76E"/>
<path d="M17.9756 29.0801V11.8509L16.3846 11.2451L14.2931 11.8508L12.7664 11.2451L10.8101 11.8508L9.17639 11.2451L7.22014 11.8508L5.38855 11.2451L3.43231 11.8509V29.0801H17.9756Z" fill="#CCA76E"/>
<path d="M3.43231 11.8509L5.38855 11.2451L7.22014 11.8508L9.17639 11.2451L10.8101 11.8508L12.7664 11.2451L14.2931 11.8508L16.3846 11.2451L17.9756 11.8509L18.5102 10.8896L19.4554 11.0434L19.8385 10.1227L20.7143 10.3165L21.0974 9.39583L21.9357 9.61135L22.3663 8.66327L21.299 8.40775L19.2074 9.01353L17.6807 8.40775L15.7245 9.01353L14.0908 8.40775L12.1345 9.01353L10.3029 8.40777L8.68378 8.86578L7.82294 8.66327L7.39238 9.61135L6.55411 9.39583L6.17098 10.3165L5.29518 10.1227L4.91206 11.0434L3.96689 10.8896L3.43231 11.8509Z" fill="#CCA76E"/>
<path d="M3.43231 11.5874L5.38855 10.9816L7.22014 11.5874L9.17639 10.9816L10.8101 11.5874L12.7664 10.9816L14.2931 11.5874L16.3846 10.9816L17.9756 11.5874L18.5102 10.6261L19.4554 10.7799L19.8385 9.85921L20.7143 10.0531L21.0974 9.13237L21.9357 9.34789L22.3663 8.39981L21.299 8.14429L19.2074 8.75006L17.6807 8.14429L15.7245 8.75006L14.0908 8.14429L12.1345 8.75006L10.3029 8.1443L8.68378 8.60231L7.82294 8.39981L7.39238 9.34789L6.55411 9.13237L6.17098 10.0531L5.29518 9.85921L4.91206 10.7799L3.96689 10.6261L3.43231 11.5874Z" fill="#9B7C4B"/>
<path d="M23.2271 8.88292L23.0756 26.1528L17.9756 29.0973V11.868L18.5102 10.9067L19.4554 11.0605L19.8385 10.1398L20.7143 10.3337L21.0974 9.41298L21.9357 9.6285L22.3662 8.68042L23.2271 8.88292Z" fill="#BC975F"/>
<path d="M18.0354 29.0801V11.8509M18.0354 29.0801H3.49207V11.8509M18.0354 29.0801L23.1354 26.1356L23.2869 8.86578L22.426 8.66327M18.0354 11.8509L16.4443 11.2451L14.3996 11.8508L12.8261 11.2451L10.7637 11.8508L9.23614 11.2451L7.1279 11.916L5.44831 11.2451L3.49207 11.8509M18.0354 11.8509L18.57 10.8896L19.5151 11.0434L19.8983 10.1227L20.7741 10.3165L21.1572 9.39583L21.9954 9.61135L22.426 8.66327M3.49207 11.8509L4.02664 10.8896L4.97182 11.0434L5.35494 10.1227L6.23074 10.3165L6.61386 9.39583L7.45213 9.61135L7.88269 8.66327L8.74353 8.86578L10.3627 8.40777L12.1943 9.01353L14.1505 8.40775L15.7842 9.01353L17.7405 8.40775L19.2672 9.01353L21.3587 8.40775L22.426 8.66327M11.7654 6.26112L11.7238 6.20028L7.82599 0.5M19.5652 0.5L15.6673 6.20028M13.6956 6.20028L13.6956 0.5" stroke="#3F0F33" stroke-linecap="round" stroke-linejoin="round"/>
</svg>
