<svg width="32" height="28" viewBox="0 0 32 28" fill="none" xmlns="http://www.w3.org/2000/svg">
<path d="M30.3517 20.1278C29.9677 24.3998 26.8797 27.1997 22.3998 27.1997H7.99992C3.58396 27.1997 0 23.6158 0 19.1998V7.99992C0 3.64796 2.62397 0.607994 6.70393 0.0959989C7.11993 0.0319996 7.55192 0 7.99992 0H22.3998C22.8158 0 23.2158 0.0159998 23.5998 0.0799991C27.4237 0.527995 30.0157 3.19997 30.3517 7.07193C30.3997 7.53592 30.0157 7.91992 29.5517 7.91992H27.0717C25.5357 7.91992 24.1118 8.51191 23.0878 9.5679C21.8718 10.7519 21.2638 12.4159 21.4078 14.0799C21.6638 16.9918 24.2238 19.2798 27.2637 19.2798H29.5517C30.0157 19.2798 30.3997 19.6638 30.3517 20.1278Z" fill="#68B07B"/>
<path d="M32 11.9506V15.2466C32 16.1266 31.296 16.8466 30.4 16.8786H27.264C25.536 16.8786 23.9521 15.6146 23.8081 13.8866C23.7121 12.8786 24.0961 11.9346 24.768 11.2786C25.36 10.6706 26.176 10.3187 27.072 10.3187H30.4C31.296 10.3507 32 11.0706 32 11.9506Z" fill="#68B07B"/>
</svg>
