<svg width="32" height="34" viewBox="0 0 32 34" fill="none" xmlns="http://www.w3.org/2000/svg">
<path d="M21.9999 33.3913C23.1045 33.3913 23.9999 32.4569 23.9999 31.3043C23.9999 30.1517 23.1045 29.2173 21.9999 29.2173C20.8954 29.2173 19.9999 30.1517 19.9999 31.3043C19.9999 32.4569 20.8954 33.3913 21.9999 33.3913Z" fill="#68B07B"/>
<path d="M14 33.3913C15.1046 33.3913 16 32.4569 16 31.3043C16 30.1517 15.1046 29.2173 14 29.2173C12.8954 29.2173 12 30.1517 12 31.3043C12 32.4569 12.8954 33.3913 14 33.3913Z" fill="#68B07B"/>
<path d="M31.6229 11.3008C31.2459 10.7567 30.6424 10.4348 29.9999 10.4348H9.48848L7.96698 1.71391C7.79498 0.721564 6.96699 0 5.99999 0H2C0.894498 0 0 0.93339 0 2.08695C0 3.24052 0.894498 4.1739 2 4.1739H4.32999L8.03298 25.4165C8.20498 26.4088 9.03298 27.1304 9.99998 27.1304H25.9999C26.8614 27.1304 27.6249 26.5554 27.8964 25.7039L31.8964 13.1822C32.1014 12.5462 31.9979 11.845 31.6229 11.3008Z" fill="#68B07B"/>
</svg>
