<svg width="85" height="114" viewBox="0 0 85 114" fill="none" xmlns="http://www.w3.org/2000/svg">
<path d="M51.8669 1.04846C47.9681 6.68236 43.5728 23.6679 42.8162 31.9911C40.3939 42.4987 43.9512 33.509 44.5543 31.3958C49.5987 13.7213 53.41 7.31283 55.211 4.31113C57.012 1.30944 52.9104 -0.459416 51.8669 1.04846Z" fill="#68B07B" stroke="#68B07B"/>
<path d="M84.1136 71.8864C84.1136 95.1137 65.2841 113.943 42.0568 113.943C18.8295 113.943 0 95.1137 0 71.8864C0 48.659 18.8295 29.8296 42.0568 29.8296C65.2841 29.8296 84.1136 48.659 84.1136 71.8864Z" fill="#292331"/>
<path d="M59.7001 45.0481C68.4794 49.7937 73.225 59.7595 72.9878 70.4371" stroke="#DCDBDE" stroke-width="3" stroke-linecap="round"/>
</svg>
