<svg width="11" height="25" viewBox="0 0 11 25" fill="none" xmlns="http://www.w3.org/2000/svg">
<path d="M8.19231 7.8479C8.28846 9.53986 9.00962 10.7484 9.53846 11.8119C9.96154 12.6627 10.3558 15.0347 10.5 16.1143V23.4622C10.5 24.4677 9.85897 24.5579 9.53846 24.4774H5.5L1.46154 24.4548C1.14103 24.5353 0.5 24.4451 0.5 23.4406V16.0996C0.644231 15.021 1.03846 12.6512 1.46154 11.8012C1.99038 10.7387 2.71154 9.53133 2.80769 7.84098M8.19231 7.8479C8.14583 7.03009 8.14382 5.77111 8.15657 4.65737M8.19231 7.8479H5.5M8.19231 2.82039H8.57692V1.0801C8.57692 0.886732 8.42308 0.5 7.80769 0.5H3.19231C2.57692 0.5 2.42308 0.886367 2.42308 1.07955V2.8182H2.80769M8.19231 2.82039H5.5M8.19231 2.82039C8.17962 3.26047 8.16493 3.92775 8.15657 4.65737M8.15657 4.65737H5.5M2.80769 7.84098C2.85417 7.02394 2.85618 5.76614 2.84343 4.65345M2.80769 7.84098H5.5M2.80769 2.8182H5.5M2.80769 2.8182C2.82038 3.25787 2.83507 3.92452 2.84343 4.65345M2.84343 4.65345H5.5M5.5 21.7985L8 21.8186L8.76923 14.8574C8.28846 14.5996 6.76923 14.084 5.5 14.084C4.23077 14.084 2.71154 14.5863 2.23077 14.8439L3 21.7985H5.5Z" stroke="black"/>
</svg>
