<svg width="16" height="25" viewBox="0 0 16 25" fill="none" xmlns="http://www.w3.org/2000/svg">
<path d="M7.8625 23.8687C6.37373 23.8687 3.11369 23.6589 2.24272 23.2815C1.15401 22.8097 0.537064 22.2291 0.537064 21.0677C0.537064 20.2024 0.516076 13.1828 0.503424 9.07662M3.33145 2.7046V4.48286C1.5725 4.48286 0.840365 5.91208 0.599114 7.14696M3.33145 2.7046C3.11356 2.70809 2.67779 2.61794 2.67779 2.22946V0.958301C2.71587 0.805951 2.85775 0.501251 3.12054 0.501251H7.84806M3.33145 2.7046H7.84806M0.503424 9.07662L0.500777 8.22081C0.494905 7.91844 0.521806 7.54268 0.599114 7.14696M0.503424 9.07662C1.40415 9.51522 3.52143 10.3924 4.78472 10.3924C6.36382 10.3924 8.14988 9.83382 9.07084 9.3021C9.20133 9.22677 9.36025 9.15107 9.54484 9.07662M15.1117 8.22041C15.1363 6.97429 14.5964 4.48204 12.2404 4.48204V2.70359M15.1117 8.22041L15.0749 21.0687C15.0749 22.2302 14.4491 22.8109 13.3448 23.2827C12.4613 23.6602 9.15446 23.87 7.64431 23.87M15.1117 8.22041C12.7237 8.22041 10.6631 8.62558 9.54484 9.07662M12.2404 2.70359C12.4614 2.70708 12.9035 2.61692 12.9035 2.2284V0.9571C12.8648 0.804733 12.7209 0.5 12.4544 0.5H7.65896M12.2404 2.70359H7.65896M0.599114 7.14696C2.31438 7.06642 6.50489 7.33958 9.54484 9.07662M10.0346 11.9768C9.42763 11.9688 8.64684 12.1935 8.24031 12.7563C7.89897 13.2289 7.54846 13.6756 7.19547 14.0953M10.0346 11.9768C10.3239 11.9806 10.5737 12.0372 10.7248 12.1352C11.2015 12.3477 11.9508 13.0948 11.1341 14.3837C10.8806 14.7838 10.371 15.4696 9.86605 16.1333M10.0346 11.9768C10.1297 11.2895 10.5951 10.0582 11.725 10.0582C12.9868 10.0582 13.4435 11.062 13.4743 11.492C13.5316 12.2949 13.675 14.3378 13.4743 16.0515C13.2735 17.7652 13.4074 19.3054 12.2125 20.8437C11.725 21.4713 10.5878 21.6649 10.1191 21.4713C9.14414 21.0687 8.85764 20.2376 9.14414 19.5214C9.48825 18.6611 10.0718 17.8828 9.86605 16.1333M9.86605 16.1333C9.3528 16.8078 8.84424 17.4595 8.61392 17.7652C8.15701 18.3718 5.59923 20.4769 4.81764 20.8437C4.03606 21.2106 3.09496 21.0351 2.53669 20.2376C1.97841 19.4401 2.13629 18.5879 2.96087 17.9914C3.27149 17.7834 3.62531 17.5255 4.00875 17.2196M4.00875 17.2196C3.65409 16.145 2.96964 13.551 3.06919 11.7716C3.19363 9.54729 3.58249 7.323 3.66026 6.84082C3.73803 6.35863 4.25133 5.70534 5.57346 5.81422C6.89559 5.9231 7.22223 7.08969 7.19112 7.86741C7.16001 8.64513 6.7867 10.2006 6.78671 11.3983C6.78671 12.3564 7.05921 13.5955 7.19547 14.0953M4.00875 17.2196C4.95806 16.4623 6.08895 15.4111 7.19547 14.0953" stroke="black"/>
</svg>
