<svg width="24" height="33" viewBox="0 0 24 33" fill="none" xmlns="http://www.w3.org/2000/svg">
<path d="M16.1135 15.6447C16.1135 16.0534 15.7821 16.3848 15.3734 16.3848C14.9646 16.3848 14.6333 16.0534 14.6333 15.6447C14.6333 15.4084 14.744 15.198 14.9164 15.0625C15.0422 14.9635 15.2009 14.9045 15.3734 14.9045C15.7821 14.9045 16.1135 15.2359 16.1135 15.6447Z" fill="#D9D9D9"/>
<path d="M7.84136 15.6358C7.84136 16.0466 8.1744 16.3797 8.58523 16.3797C8.99606 16.3797 9.3291 16.0466 9.3291 15.6358C9.3291 15.3983 9.21782 15.1868 9.04455 15.0506C8.91808 14.9512 8.75858 14.8919 8.58523 14.8919C8.1744 14.8919 7.84136 15.225 7.84136 15.6358Z" fill="#D9D9D9"/>
<path d="M15.6138 15.645C15.6138 15.5124 15.5061 15.4048 15.3735 15.4047C15.3454 15.4047 15.3183 15.4087 15.2935 15.4174C15.2615 15.4522 15.2267 15.4857 15.1841 15.5112C15.1803 15.5135 15.1752 15.5139 15.1714 15.5161C15.1475 15.5535 15.1333 15.5975 15.1333 15.645C15.1334 15.7775 15.241 15.8852 15.3735 15.8852C15.506 15.8851 15.6136 15.7774 15.6138 15.645ZM8.82861 15.6362C8.82861 15.5878 8.81397 15.5434 8.78955 15.5053C8.78553 15.5031 8.78084 15.5018 8.77686 15.4995C8.73357 15.4736 8.69782 15.4402 8.66553 15.4047C8.64065 15.3961 8.61366 15.3921 8.58545 15.392C8.45077 15.392 8.34131 15.5015 8.34131 15.6362C8.34148 15.7707 8.45087 15.8793 8.58545 15.8793C8.71993 15.8792 8.82844 15.7706 8.82861 15.6362ZM10.1177 9.39888C10.1047 9.474 10.0882 9.55925 10.0649 9.65083C10.0414 9.74381 10.0102 9.84593 9.97119 9.95356H13.9868C13.9509 9.85532 13.9223 9.76168 13.8999 9.67622C13.873 9.5735 13.8548 9.47947 13.8413 9.39888H10.1177ZM10.1147 1.00044C10.4983 2.31083 10.365 3.284 10.272 3.69673C10.2785 3.71129 10.2864 3.72652 10.2935 3.74263C10.3538 3.8806 10.4321 4.07603 10.5044 4.31099C10.647 4.77452 10.7786 5.42539 10.686 6.10395C10.6486 6.37748 10.3961 6.56899 10.1226 6.53169C9.8492 6.49415 9.65754 6.24167 9.69483 5.96821C9.76001 5.48957 9.66873 4.99621 9.54834 4.60493C9.48922 4.41279 9.42562 4.25328 9.37744 4.14302C9.37424 4.1357 9.37072 4.12839 9.36768 4.12153C8.57562 4.04253 7.83731 3.88117 6.93799 3.51997C6.99287 6.60566 8.66986 7.94452 9.4419 8.39888H14.521C14.9222 8.16386 15.5504 7.70647 16.0737 6.91352C16.5661 6.16747 16.9804 5.10159 17.0083 3.59809C16.5022 3.80333 16.0608 3.94048 15.6304 4.02974C15.1515 4.12901 14.6985 4.16662 14.2075 4.18696C14.1754 4.47221 14.1597 4.75778 14.1763 5.01118C14.2029 5.4189 14.3014 5.59179 14.3657 5.64204C14.5832 5.81207 14.6216 6.12662 14.4517 6.34419C14.2816 6.56173 13.9671 6.60012 13.7495 6.43013C13.3228 6.0966 13.2077 5.52736 13.1782 5.07661C13.1466 4.59234 13.2041 4.06171 13.2759 3.62153C13.3278 3.30347 13.3894 3.01979 13.438 2.81587C13.4495 2.76736 13.4604 2.72321 13.4702 2.68403C13.4438 2.63994 13.413 2.58529 13.3716 2.52583C13.2379 2.33389 13.0255 2.07693 12.7163 1.82954C12.1926 1.41057 11.3665 0.997652 10.1147 1.00044ZM21.9331 26.2709C21.9331 26.7345 22.1261 27.3195 22.4644 28.0327C22.8006 28.7416 23.2354 29.4915 23.6753 30.31C23.8594 30.6526 23.9519 30.9946 23.9058 31.3227C23.8576 31.6645 23.6701 31.917 23.4438 32.0874C23.0291 32.3995 22.4467 32.4692 22.0688 32.4692H1.85596C1.6601 32.4692 1.42764 32.4554 1.19678 32.4106C0.970872 32.3668 0.713045 32.2867 0.492677 32.1352C0.260522 31.9755 0.0627274 31.7292 0.0122084 31.3842C-0.0355317 31.0575 0.059939 30.7165 0.242677 30.3764C0.684815 29.5537 1.1224 28.8001 1.46045 28.0874C1.80034 27.3707 1.9945 26.7833 1.99463 26.3168V17.7641C1.99465 14.8868 3.67181 13.0156 5.28369 11.8891C6.09052 11.3253 6.89446 10.9377 7.49463 10.6909C7.79532 10.5672 8.04699 10.478 8.2251 10.4194C8.31421 10.3901 8.38551 10.3677 8.43506 10.353C8.44023 10.3514 8.44501 10.3495 8.44971 10.3481C8.58111 10.2727 8.67163 10.2021 8.73975 10.1245C8.92729 9.91059 9.03548 9.64039 9.09522 9.40473C9.09939 9.38827 9.10134 9.37169 9.10498 9.35591C9.0936 9.34991 9.08153 9.34471 9.06983 9.33833C8.07511 8.79552 5.69819 6.99895 5.95557 2.73579C5.96565 2.57027 6.05801 2.4209 6.20069 2.33638C6.34339 2.2519 6.51847 2.24317 6.66846 2.31391C7.74374 2.82131 8.51814 3.02058 9.35303 3.11372C9.40093 2.62466 9.3849 1.78433 8.96338 0.723094C8.90567 0.577821 8.91874 0.413548 8.99951 0.279735C9.08047 0.145858 9.2199 0.0568552 9.37549 0.0404771C11.2595 -0.157801 12.534 0.403364 13.3403 1.04829C13.738 1.36645 14.0141 1.69929 14.1919 1.95454C14.2807 2.08208 14.3462 2.19093 14.3901 2.27095C14.4121 2.31102 14.429 2.34431 14.4409 2.3686C14.4469 2.38075 14.452 2.39115 14.4556 2.39888C14.4573 2.40256 14.4583 2.40604 14.4595 2.40864C14.46 2.40981 14.461 2.41063 14.4614 2.41157L14.4624 2.41352V2.4145L14.4907 2.49653C14.5115 2.58058 14.5098 2.66916 14.4858 2.75337V2.75434C14.4857 2.75493 14.4852 2.75599 14.4849 2.75727C14.484 2.76018 14.4827 2.76474 14.481 2.77095C14.4775 2.78364 14.4721 2.80313 14.4653 2.82856C14.4519 2.87939 14.4328 2.95412 14.4106 3.04731C14.4012 3.08702 14.3917 3.13045 14.3813 3.17622C14.7538 3.15506 15.0851 3.12116 15.4272 3.05024C15.9455 2.94277 16.5095 2.75163 17.2798 2.38813L17.3364 2.3647C17.4725 2.31995 17.6226 2.33566 17.7476 2.40962C17.8903 2.49418 17.9817 2.64439 17.9917 2.81001C18.1185 4.91034 17.6018 6.41407 16.9087 7.46431C16.2199 8.50783 15.3776 9.07391 14.8931 9.33833C14.8796 9.34568 14.8659 9.35185 14.853 9.35884C14.8578 9.37952 14.8619 9.40124 14.8677 9.42329C14.9262 9.64684 15.0325 9.90929 15.2212 10.1245C15.3157 10.2322 15.4128 10.3206 15.5142 10.3833C15.5173 10.3842 15.5206 10.3852 15.5239 10.3862C15.5732 10.4008 15.6435 10.4225 15.7319 10.4516C15.9092 10.5099 16.1601 10.599 16.4595 10.7221C17.0567 10.9678 17.8567 11.3534 18.6597 11.9145C20.2638 13.0355 21.9331 14.8982 21.9331 17.7622V26.2709ZM9.82861 15.6362C9.82844 16.3229 9.27221 16.8792 8.58545 16.8793C7.89858 16.8793 7.34148 16.323 7.34131 15.6362C7.34131 14.9492 7.89848 14.392 8.58545 14.392C8.68174 14.3921 8.77553 14.4034 8.86572 14.4243L11.2329 10.9536H9.31885C9.18509 11.0708 9.03953 11.1682 8.88428 11.2524C8.84971 11.2711 8.81289 11.2862 8.7749 11.2963L8.77393 11.2954V11.2963C8.77201 11.2969 8.76794 11.2979 8.76318 11.2993C8.75373 11.3019 8.73896 11.3061 8.71924 11.312C8.67868 11.324 8.61667 11.3426 8.5376 11.3686C8.37935 11.4207 8.15024 11.5023 7.87451 11.6157C7.32151 11.8431 6.5875 12.1979 5.85694 12.7084C4.39351 13.7311 2.99465 15.3356 2.99463 17.7641V26.3168C2.99451 27.0192 2.71393 27.7778 2.36377 28.5161C2.01162 29.2585 1.54342 30.0687 1.12354 30.85C0.996642 31.0862 0.997262 31.2042 1.00244 31.2397C1.0049 31.2564 1.00892 31.2764 1.05908 31.311C1.12216 31.3543 1.23117 31.3979 1.38721 31.4282C1.5381 31.4574 1.70358 31.4692 1.85596 31.4692H22.0688C22.3841 31.4692 22.6931 31.4007 22.8423 31.2885C22.8979 31.2467 22.911 31.2152 22.9155 31.1831C22.922 31.137 22.9184 31.0143 22.7944 30.7836C22.3768 30.0065 21.9114 29.2 21.561 28.4614C21.2125 27.7266 20.9331 26.9705 20.9331 26.2709V17.7622C20.9331 15.3471 19.5421 13.7511 18.0864 12.7338C17.3598 12.2261 16.6296 11.8732 16.0796 11.6469C15.8052 11.5341 15.5768 11.4536 15.4194 11.4018C15.3409 11.376 15.28 11.3571 15.2397 11.3452C15.2196 11.3392 15.2043 11.3351 15.1948 11.3325C15.1902 11.3312 15.1869 11.3301 15.1851 11.3295L15.1841 11.3286V11.3295C15.1461 11.3194 15.1093 11.3043 15.0747 11.2856C14.8996 11.1906 14.7541 11.0706 14.6333 10.9536H13.0562L15.1226 14.4301C15.2036 14.4134 15.2877 14.4047 15.3735 14.4047C16.0584 14.4048 16.6138 14.9601 16.6138 15.645C16.6136 16.3297 16.0583 16.8851 15.3735 16.8852C14.6887 16.8852 14.1334 16.3298 14.1333 15.645C14.1333 15.4146 14.1968 15.1988 14.3062 15.0141L12.1489 11.3833L9.6665 15.0249C9.76875 15.2055 9.82861 15.4137 9.82861 15.6362Z" fill="#3F0F33"/>
<path d="M11.2116 10.9429L8.84441 14.4136C8.75429 14.3928 8.66034 14.3814 8.56413 14.3814C7.87716 14.3814 7.31999 14.9385 7.31999 15.6255C7.32039 16.3121 7.87741 16.8687 8.56413 16.8687C9.25065 16.8684 9.8069 16.312 9.8073 15.6255C9.8073 15.4032 9.74729 15.1947 9.64519 15.0142L12.1276 11.3726L14.2848 15.0034C14.1756 15.1881 14.112 15.404 14.112 15.6343C14.1123 16.3189 14.6675 16.8745 15.3522 16.8745C16.0367 16.8743 16.5921 16.3187 16.5925 15.6343C16.5925 14.9495 16.0369 14.3943 15.3522 14.3941C15.2664 14.3941 15.1823 14.4028 15.1012 14.4194L13.0348 10.9429H14.612C14.7328 11.0598 14.8785 11.18 15.0534 11.2749C15.0878 11.2936 15.1249 11.3087 15.1628 11.3189C15.1628 11.3189 15.1692 11.3206 15.1735 11.3218C15.183 11.3244 15.1985 11.3286 15.2184 11.3345C15.2587 11.3464 15.3198 11.3654 15.3981 11.3911C15.5555 11.4429 15.7841 11.5235 16.0583 11.6362C16.6083 11.8625 17.3386 12.2155 18.0651 12.7232C19.5206 13.7404 20.9117 15.3366 20.9118 17.7515V26.2603C20.9119 26.9597 21.1913 27.7161 21.5397 28.4507C21.8901 29.1893 22.3556 29.996 22.7731 30.773C22.8969 31.0033 22.9007 31.1264 22.8942 31.1724C22.8896 31.2044 22.8764 31.2362 22.821 31.2778C22.6718 31.39 22.3627 31.4584 22.0475 31.4585H1.83464C1.68237 31.4585 1.5167 31.4467 1.36589 31.4175C1.21015 31.3873 1.1009 31.3436 1.03777 31.3003C0.988045 31.266 0.983597 31.2456 0.981126 31.229C0.975946 31.1936 0.975445 31.0753 1.10222 30.8394C1.52206 30.0581 1.99031 29.2478 2.34245 28.5054C2.69255 27.7673 2.97308 27.0084 2.97331 26.3062V17.7534C2.97333 15.325 4.3722 13.7204 5.83562 12.6978C6.56618 12.1873 7.3002 11.8325 7.8532 11.605C8.1289 11.4916 8.35805 11.41 8.51628 11.3579C8.59531 11.3319 8.65738 11.3133 8.69792 11.3013C8.71759 11.2955 8.73243 11.2912 8.74187 11.2886C8.74657 11.2873 8.75261 11.2857 8.75261 11.2857C8.79055 11.2755 8.82843 11.2604 8.86296 11.2417C9.01818 11.1575 9.1638 11.0601 9.29753 10.9429H11.2116ZM15.3522 15.3941C15.4846 15.3943 15.5925 15.5018 15.5925 15.6343C15.5921 15.7665 15.4844 15.8743 15.3522 15.8745C15.2198 15.8745 15.1123 15.7666 15.112 15.6343C15.112 15.5869 15.1262 15.5428 15.1501 15.5054C15.1539 15.5032 15.1589 15.5028 15.1628 15.5005C15.2054 15.4751 15.2402 15.4415 15.2721 15.4068C15.2969 15.3981 15.3241 15.3941 15.3522 15.3941ZM8.64421 15.3941C8.67642 15.4293 8.71239 15.463 8.75554 15.4888C8.75944 15.491 8.76434 15.4925 8.76824 15.4946C8.7925 15.5326 8.8073 15.5773 8.8073 15.6255C8.8069 15.7597 8.69836 15.8684 8.56413 15.8687C8.4297 15.8687 8.32039 15.7599 8.31999 15.6255C8.31999 15.4908 8.42945 15.3814 8.56413 15.3814C8.59226 15.3814 8.61941 15.3855 8.64421 15.3941ZM13.82 9.3882C13.8335 9.46869 13.8518 9.56301 13.8786 9.66554C13.9009 9.75089 13.9297 9.84481 13.9655 9.94288H9.94988C9.98888 9.83538 10.0201 9.73305 10.0436 9.64015C10.0668 9.54872 10.0834 9.46324 10.0964 9.3882H13.82ZM10.0934 0.98976C11.3451 0.987028 12.1713 1.39991 12.695 1.81886C13.004 2.06617 13.2166 2.32329 13.3503 2.51515C13.3916 2.57446 13.4225 2.62936 13.4489 2.67335C13.4391 2.71245 13.4282 2.75682 13.4167 2.80519C13.3681 3.00909 13.3064 3.29296 13.2546 3.61085C13.1828 4.05096 13.1253 4.58179 13.1569 5.06593C13.1864 5.51661 13.3016 6.08603 13.7282 6.41945C13.9457 6.58909 14.2604 6.55081 14.4303 6.33351C14.6002 6.11606 14.5616 5.80146 14.3444 5.63136C14.2801 5.58113 14.1816 5.40791 14.155 5.0005C14.1384 4.74721 14.1542 4.46141 14.1862 4.17628C14.6771 4.15594 15.1303 4.11831 15.6091 4.01906C16.0395 3.9298 16.4809 3.79263 16.987 3.58742C16.959 5.0907 16.5448 6.15686 16.0524 6.90285C15.5291 7.69568 14.9008 8.1532 14.4997 8.3882H9.42058C8.64858 7.93386 6.9717 6.59468 6.91667 3.50929C7.81583 3.87039 8.55441 4.03186 9.34636 4.11085C9.34936 4.11758 9.353 4.12518 9.35613 4.13234C9.40428 4.24258 9.46798 4.40236 9.52702 4.59425C9.64735 4.98546 9.73866 5.47907 9.67351 5.95753C9.63645 6.23084 9.82801 6.48349 10.1012 6.52101C10.3746 6.55812 10.6272 6.3665 10.6647 6.09328C10.7572 5.41493 10.6256 4.76381 10.4831 4.30031C10.4109 4.0656 10.3324 3.8699 10.2721 3.73195C10.2652 3.71601 10.2572 3.70048 10.2507 3.68605C10.3437 3.27337 10.4768 2.29992 10.0934 0.98976Z" fill="#EDDFB3"/>
<g opacity="0.4" style="mix-blend-mode:darken">
<path d="M14.8359 11.0243C14.9567 11.1412 15.1025 11.2615 15.2773 11.3563C15.3117 11.3749 15.349 11.3902 15.3867 11.4003C15.3867 11.4003 15.3932 11.402 15.3975 11.4032C15.4069 11.4059 15.4226 11.4101 15.4424 11.4159C15.4826 11.4278 15.5439 11.4468 15.6221 11.4725C15.7794 11.5243 16.0082 11.605 16.2822 11.7177C16.8322 11.9439 17.5626 12.297 18.2891 12.8046C19.7446 13.8218 21.1357 15.4181 21.1357 17.8329V26.3417C21.1359 27.041 21.4153 27.7976 21.7637 28.5321C22.114 29.2706 22.5795 30.0774 22.9971 30.8544C23.1208 31.0847 23.1246 31.2078 23.1182 31.2538C23.1135 31.2857 23.1001 31.3177 23.0449 31.3593C22.8956 31.4712 22.5864 31.5399 22.2715 31.5399H20.5068C20.8219 31.5398 21.1312 31.4714 21.2803 31.3593C21.3355 31.3177 21.3489 31.2858 21.3535 31.2538C21.36 31.2078 21.356 31.0845 21.2324 30.8544C20.8149 30.0775 20.3494 29.2706 19.999 28.5321C19.6506 27.7976 19.3713 27.041 19.3711 26.3417V17.8329C19.371 15.4183 17.9798 13.8218 16.5244 12.8046C15.7981 12.2971 15.0675 11.9439 14.5176 11.7177C14.2436 11.605 14.0148 11.5244 13.8574 11.4725C13.7793 11.4469 13.718 11.4279 13.6777 11.4159C13.6581 11.4101 13.6423 11.4059 13.6328 11.4032L13.6221 11.4003C13.5844 11.3902 13.547 11.3749 13.5127 11.3563C13.482 11.3397 13.4527 11.3207 13.4238 11.3026L13.2588 11.0243H14.8359ZM14.1025 9.74696C14.1249 9.83225 14.1537 9.92631 14.1895 10.0243H12.4248C12.389 9.92638 12.3602 9.8322 12.3379 9.74696C12.3111 9.64459 12.2928 9.55003 12.2793 9.46962H14.0439C14.0574 9.55006 14.0757 9.64454 14.1025 9.74696ZM17.2109 3.66884C17.1829 5.17194 16.7687 6.23833 16.2764 6.98427C15.7531 7.77685 15.1247 8.23466 14.7236 8.46962H14.0977C14.4987 8.23465 15.1271 7.77689 15.6504 6.98427C16.1172 6.27705 16.5124 5.28168 16.5762 3.89931C16.7781 3.83373 16.9886 3.75897 17.2109 3.66884ZM9.04883 4.12391C9.2217 4.15086 9.39452 4.17473 9.57031 4.19227C9.57331 4.19898 9.57697 4.20664 9.58008 4.21376C9.62823 4.324 9.69196 4.48385 9.75098 4.67567C9.87127 5.06686 9.96261 5.56057 9.89746 6.03895C9.87038 6.23979 9.96744 6.42892 10.1289 6.53016C10.0337 6.58873 9.91991 6.61858 9.80078 6.60243C9.52765 6.56493 9.33617 6.31215 9.37305 6.03895C9.43819 5.56058 9.31464 4.91554 9.19434 4.52431C9.14548 4.36552 9.09262 4.22885 9.04883 4.12391ZM10.3174 1.07118C11.569 1.06845 12.3953 1.48136 12.9189 1.90028C13.228 2.14759 13.4406 2.40471 13.5742 2.59657C13.6155 2.65587 13.6465 2.71078 13.6729 2.75477C13.6631 2.79377 13.6521 2.83841 13.6406 2.88661C13.5921 3.09048 13.5303 3.37459 13.4785 3.69227C13.4068 4.13231 13.3492 4.66335 13.3809 5.14735C13.4104 5.59795 13.5258 6.16751 13.9521 6.50087C13.9665 6.51203 13.983 6.51982 13.998 6.52919C13.825 6.6363 13.5975 6.63313 13.4277 6.50087C13.0013 6.16753 12.886 5.59799 12.8564 5.14735C12.8248 4.66332 12.8824 4.13232 12.9541 3.69227C13.0059 3.37453 13.0677 3.09049 13.1162 2.88661C13.1277 2.83836 13.1386 2.7938 13.1484 2.75477C13.1221 2.71083 13.091 2.6558 13.0498 2.59657C12.9162 2.40475 12.7035 2.14755 12.3945 1.90028C11.9489 1.54373 11.2839 1.19188 10.3242 1.09657C10.3218 1.08817 10.3198 1.07961 10.3174 1.07118ZM7.14062 3.59071C7.40325 3.69618 7.653 3.78298 7.89355 3.85731C7.64962 3.80036 7.40114 3.73026 7.1416 3.64345C7.14118 3.62593 7.14094 3.60834 7.14062 3.59071Z" fill="#3F0F33"/>
</g>
<path d="M9.47598 24.2147C9.49656 24.2169 10.6782 24.3422 11.2973 25.0643C11.9355 25.8089 11.6957 27.1727 11.6957 27.1727C11.6751 27.1691 10.4734 26.9528 9.88809 26.3817L9.77969 26.2616C9.2232 25.5644 9.47598 24.2147 9.47598 24.2147Z" fill="#3F0F33"/>
<path d="M9.6713 21.0909C9.69188 21.0931 10.8735 21.2185 11.4926 21.9406C12.1308 22.6852 11.891 24.049 11.891 24.049C11.8704 24.0453 10.6687 23.829 10.0834 23.2579L9.97501 23.1378C9.41851 22.4406 9.6713 21.0909 9.6713 21.0909Z" fill="#3F0F33"/>
<path d="M12.0844 18.3623C12.1002 18.3756 13.0053 19.1456 13.1093 20.091C13.2164 21.0658 12.2493 22.0568 12.2493 22.0568C12.2343 22.0421 11.3639 21.1858 11.2026 20.3842L11.1809 20.2239C11.1145 19.3343 12.0844 18.3623 12.0844 18.3623Z" fill="#3F0F33"/>
<path d="M15.0728 21.1975C15.0747 21.2181 15.1839 22.4014 14.5975 23.1502C13.9927 23.9223 12.6084 23.955 12.6084 23.955C12.608 23.9341 12.584 22.7133 13.0289 22.0273L13.1254 21.8974C13.6997 21.2148 15.0728 21.1975 15.0728 21.1975Z" fill="#3F0F33"/>
<path d="M15.0728 24.1708C15.0747 24.1914 15.1839 25.3747 14.5975 26.1235C13.9927 26.8955 12.6084 26.9283 12.6084 26.9283C12.608 26.9073 12.584 25.6866 13.0289 25.0005L13.1254 24.8706C13.6997 24.188 15.0728 24.1708 15.0728 24.1708Z" fill="#3F0F33"/>
</svg>
