<svg width="33" height="27" viewBox="0 0 33 27" fill="none" xmlns="http://www.w3.org/2000/svg">
<path fill-rule="evenodd" clip-rule="evenodd" d="M15.3061 8.07909C13.7602 7.09059 11.9231 6.51756 9.95203 6.51756C4.45568 6.51757 2.95636e-06 10.9732 0 16.4696C0 21.9659 4.45568 26.4216 9.95203 26.4216C13.606 26.4216 16.8 24.4524 18.5307 21.5173C15.7442 19.7817 13.8896 16.6903 13.8896 13.1658C13.8897 11.304 14.4072 9.56314 15.3061 8.07909Z" fill="#292331"/>
<path d="M32.956 13.1658C32.956 18.2658 28.8216 22.4002 23.7216 22.4002C18.6215 22.4002 14.4871 18.2658 14.4871 13.1658C14.4871 8.06577 18.6215 3.93138 23.7216 3.93138C28.8216 3.93138 32.956 8.06577 32.956 13.1658Z" fill="#292331"/>
<path fill-rule="evenodd" clip-rule="evenodd" d="M19.264 3.50315L19.598 4.23793C19.4023 4.32848 19.21 4.42521 19.0215 4.52799L18.5352 3.19343L15.3588 7.40931C15.1423 7.27986 14.9208 7.15795 14.6946 7.04393C15.7696 5.48411 18.1062 2.06358 19.3577 0C20.0162 8.88858e-06 20.1735 0.337867 20.3454 0.804747C19.6869 1.66301 19.1382 2.48747 19.1382 2.48747L19.264 3.50315Z" fill="#68B07B"/>
</svg>
