<svg width="155" height="245" viewBox="0 0 155 245" fill="none" xmlns="http://www.w3.org/2000/svg">
<path d="M73.1846 0C75.1175 6.18473e-05 76.6846 1.56704 76.6846 3.5V25.1006C76.6845 26.2961 76.0846 27.3511 75.1699 27.9824H85.3857L85.6543 27.9932C96.8405 28.8553 109.627 33.3264 123.268 41.8936H123.267C137.189 50.5285 145.203 60.6389 149.609 71.625C153.968 82.4915 154.685 93.9493 154.492 105.099L154.828 121.742C154.847 122.682 154.486 123.591 153.828 124.263C153.236 124.866 152.449 125.232 151.612 125.3L151.232 202.79C152.694 203.21 153.764 204.557 153.764 206.153V241.138C153.763 243.07 152.196 244.638 150.264 244.638H3.5C1.56713 244.638 0.0001979 243.071 0 241.138V206.153C0 204.22 1.567 202.653 3.5 202.653H5.97266V125.313H4.22168C2.347 125.313 0.805761 123.836 0.725586 121.963C0.330754 112.709 1.29538 95.9271 5.19727 77.5654C8.76732 60.7654 14.8536 42.3659 24.8232 27.1406C24.4102 26.5661 24.166 25.8621 24.166 25.1006V3.5C24.166 1.567 25.733 0 27.666 0H73.1846ZM7 237.638H146.764V209.653H7V237.638ZM12.9727 202.653H144.233L144.612 125.313H12.9727V202.653ZM32.2871 28.6006C22.0377 43.2148 15.7171 61.7352 12.0439 79.0205C8.70039 94.7548 7.60507 109.21 7.64551 118.313H147.757L147.492 105.191C147.491 105.147 147.491 105.103 147.492 105.059C147.685 94.1811 146.957 83.8155 143.112 74.2305C139.307 64.7423 132.336 55.7525 119.562 47.833C119.556 47.8294 119.55 47.8249 119.544 47.8213C106.648 39.7221 94.9848 35.7577 85.2285 34.9824H74.1602C74.0863 34.9861 74.0033 34.9913 73.9121 34.9922C73.645 34.9947 73.2967 34.9807 72.8936 34.9258C72.0947 34.8168 71.0057 34.5335 69.9082 33.8193C68.2298 32.7272 67.0356 30.9863 66.4795 28.6006H32.2871ZM80.0303 61.4629C82.6878 57.1759 87.8141 55.8653 92.6807 56.1152C97.6893 56.3724 103.376 58.2644 108.687 61.5566C113.997 64.8489 118.222 69.1002 120.68 73.4717C123.068 77.7192 124.174 82.8937 121.517 87.1807C118.859 91.4677 113.733 92.7792 108.866 92.5293C103.858 92.2721 98.1712 90.3792 92.8604 87.0869C87.5495 83.7946 83.3253 79.5434 80.8672 75.1719C78.4788 70.9243 77.3727 65.7499 80.0303 61.4629ZM92.3213 63.1055C88.5608 62.9124 86.6749 64.0312 85.9805 65.1514C85.286 66.2716 85.123 68.4587 86.9688 71.7412C88.7448 74.8996 92.046 78.3469 96.5479 81.1377C101.05 83.9287 105.607 85.3522 109.226 85.5381C112.986 85.7311 114.872 84.6124 115.566 83.4922C116.261 82.372 116.424 80.1857 114.578 76.9033C112.802 73.7449 109.501 70.2968 104.999 67.5059C100.497 64.7149 95.9401 63.2913 92.3213 63.1055ZM31.166 21.6006H69.6846V7H31.166V21.6006Z" fill="#3F0F33"/>
<path d="M146.764 209.452V237.437H6.99988V209.452H146.764ZM144.612 125.112L144.233 202.452H12.9725V125.112H144.612ZM66.4794 28.3995C67.0355 30.7851 68.2297 32.5261 69.9081 33.6183C71.0055 34.3324 72.0946 34.6158 72.8934 34.7247C73.2965 34.7797 73.6449 34.7936 73.912 34.7911C74.0031 34.7903 74.0863 34.785 74.16 34.7814H85.2284C94.9846 35.5567 106.648 39.5211 119.544 47.6202C119.55 47.6238 119.556 47.6284 119.561 47.632C132.336 55.5514 139.307 64.5412 143.112 74.0294C146.956 83.6145 147.685 93.98 147.492 104.858C147.491 104.902 147.491 104.946 147.492 104.99L147.757 118.112H7.64539C7.60494 109.009 8.70029 94.5537 12.0438 78.8195C15.717 61.5342 22.0376 43.0137 32.287 28.3995H66.4794ZM92.6805 55.9142C87.814 55.6643 82.6877 56.9749 80.0302 61.2618C77.3727 65.5488 78.4787 70.7234 80.8671 74.9708C83.3252 79.3423 87.5494 83.5936 92.8602 86.8859C98.171 90.1781 103.858 92.071 108.866 92.3282C113.733 92.5781 118.859 91.2664 121.516 86.9796C124.174 82.6926 123.068 77.5181 120.68 73.2706C118.221 68.8992 113.997 64.6478 108.686 61.3556C103.376 58.0634 97.6891 56.1714 92.6805 55.9142ZM69.6844 6.79895V21.3995H31.1659V6.79895H69.6844Z" fill="#D9D9D9"/>
<path d="M144.233 202.452L144.612 125.112H12.9725V202.452H144.233Z" fill="#F3F7F6"/>
<path d="M69.6844 21.3995V6.79895H31.1659V21.3995H69.6844Z" fill="#F3F7F6"/>
<path fill-rule="evenodd" clip-rule="evenodd" d="M66.4793 28.3995C67.0354 30.7851 68.2297 32.5261 69.9081 33.6183C71.0055 34.3324 72.0946 34.6158 72.8934 34.7247C73.2964 34.7797 73.6449 34.7936 73.912 34.7911C73.9863 34.7904 74.0553 34.7868 74.1183 34.7835C74.1325 34.7828 74.1464 34.782 74.16 34.7814H85.2284C94.9846 35.5567 106.648 39.5211 119.544 47.6202C119.55 47.6238 119.556 47.6284 119.561 47.632C132.336 55.5514 139.307 64.5412 143.112 74.0294C146.956 83.6145 147.685 93.98 147.492 104.858C147.491 104.902 147.491 104.946 147.492 104.99L147.757 118.112H7.64536C7.60492 109.009 8.70027 94.5537 12.0438 78.8195C15.717 61.5342 22.0376 43.0137 32.287 28.3995H66.4793ZM80.0301 61.2618C82.6877 56.9749 87.814 55.6643 92.6805 55.9142C97.6891 56.1714 103.376 58.0634 108.686 61.3556C113.997 64.6478 118.221 68.8992 120.68 73.2706C123.068 77.5181 124.174 82.6926 121.516 86.9796C118.859 91.2665 113.733 92.5781 108.866 92.3282C103.857 92.071 98.171 90.1781 92.8602 86.8859C87.5494 83.5936 83.3251 79.3423 80.867 74.9708C78.4787 70.7234 77.3727 65.5488 80.0301 61.2618Z" fill="#EA8EE9"/>
<path d="M146.764 237.437V209.452H6.99988V237.437H146.764Z" fill="#EA8EE9"/>
<path d="M78.6006 131.248C90.0982 131.248 100.171 137.353 105.762 146.5H147.615V179.694H105.761C100.17 188.841 90.0977 194.945 78.6006 194.945C67.1038 194.945 57.0323 188.841 51.4415 179.694H9.58704V146.5H51.4405C57.0312 137.353 67.1033 131.248 78.6006 131.248Z" fill="#396996"/>
<path d="M78.6007 127.748C90.6523 127.748 101.288 133.792 107.657 143H151.115V183.194H107.656C101.287 192.401 90.6519 198.445 78.6007 198.445C66.5497 198.445 55.9149 192.401 49.546 183.194H6.08704V143H49.545C55.9139 133.792 66.5493 127.748 78.6007 127.748ZM78.6007 134.748C68.3739 134.748 59.409 140.174 54.4269 148.325L53.4034 150H13.087V176.194H53.4044L54.4279 177.869C59.4102 186.02 68.3745 191.445 78.6007 191.445C88.8272 191.445 97.7922 186.02 102.775 177.869L103.798 176.194H144.115V150H103.799L102.776 148.325C97.7934 140.174 88.8278 134.748 78.6007 134.748Z" fill="#3F0F33"/>
<path d="M95.6305 163.097C95.6305 172.511 88.0062 180.142 78.6012 180.142C69.1961 180.142 61.5718 172.511 61.5718 163.097C61.5718 153.683 69.1961 146.051 78.6012 146.051C88.0062 146.051 95.6305 153.683 95.6305 163.097Z" fill="#F3F7F6"/>
<path d="M92.1304 163.097C92.1304 155.613 86.07 149.551 78.6011 149.551C71.1322 149.551 65.0718 155.613 65.0718 163.097C65.0719 170.581 71.1323 176.643 78.6011 176.643C86.0699 176.643 92.1302 170.581 92.1304 163.097ZM99.1304 163.097C99.1302 174.441 89.9422 183.643 78.6011 183.643C67.26 183.643 58.0719 174.441 58.0718 163.097C58.0718 151.753 67.2599 142.551 78.6011 142.551C89.9423 142.551 99.1304 151.753 99.1304 163.097Z" fill="#3F0F33"/>
<g opacity="0.4" style="mix-blend-mode:darken">
<path d="M73.1847 0C75.1173 0.00032513 76.6846 1.56732 76.6847 3.5V25.1006C76.6845 26.2958 76.0845 27.3511 75.17 27.9824H85.3859L85.6544 27.9932C96.8405 28.8554 109.627 33.3265 123.268 41.8936C137.19 50.5284 145.203 60.639 149.609 71.625C153.968 82.4913 154.685 93.9495 154.492 105.099L154.828 121.742C154.847 122.682 154.486 123.591 153.828 124.263C153.237 124.866 152.449 125.232 151.612 125.3L151.233 202.79C152.694 203.211 153.764 204.557 153.764 206.153V241.138C153.763 243.07 152.196 244.637 150.264 244.638H3.50012C1.56736 244.638 0.000517867 243.07 0.00012207 241.138V237.378H129.972C131.904 237.378 133.472 235.912 133.472 234.105V212.462C133.472 210.969 132.402 209.71 130.941 209.317L131.32 117.453C132.157 117.389 132.945 117.048 133.536 116.483C134.194 115.855 134.555 115.006 134.536 114.127L134.2 105.635C134.393 95.2115 134.654 88.1133 129.318 78.8701C124.911 68.5993 122.562 61.4411 107.841 46.7197C94.2011 38.7109 100.028 42.3797 82.7657 31.5439L82.4972 31.5332H72.2814C73.1941 30.9415 67.2386 23.6811 67.2374 22.5625L67.0441 8.88574C67.0437 7.07901 65.4767 5.61446 63.5441 5.61426H24.1661V3.5C24.1663 1.56712 25.7332 0 27.6661 0H73.1847Z" fill="#3F0F33"/>
</g>
</svg>
