<svg width="24" height="33" viewBox="0 0 24 33" fill="none" xmlns="http://www.w3.org/2000/svg">
<rect width="24" height="33" fill="#1E1E1E"/>
<rect width="800" height="874" transform="translate(-36.3387 -136.826)" fill="white"/>
<path d="M9.85733 1.37663V3.034H13.6224C13.6224 3.034 13.6004 1.90385 13.6004 1.17962C13.6004 0.928459 13.0094 0.588623 13.0094 0.588623H10.6016C10.6016 0.588623 9.85733 0.807463 9.85733 1.37663Z" fill="#E99AF0"/>
<path d="M9.77282 11.8982C9.77282 11.8982 6.76936 14.3851 4.49916 15.6963C4.11718 15.9169 3.73417 16.1729 3.36493 16.4668C3.36493 16.4668 8.13861 18.1952 11.3121 18.1649C14.3498 18.1359 18.9035 16.4668 18.9035 16.4668C18.0772 15.9511 17.2135 15.4816 16.4001 15.035C13.164 13.2583 13.2594 11.2548 13.2594 9.41849V6.4143V5.29093L15.2784 4.66461V3.03406H13.6223H9.85731H6.18196L10.1986 5.29093C10.1986 5.29093 9.8548 9.87617 9.77282 11.8982Z" fill="#CDECFF"/>
<path d="M5.8276 30.678C7.83896 31.6591 9.26023 31.5049 11.4981 31.5049C13.9255 31.5049 16.0499 31.5526 17.1336 31.0914C21.0204 29.4375 23.0525 26.4563 23.0525 22.0382C23.0525 20.8434 22.6036 19.828 21.892 18.9425C21.1239 17.9867 20.0497 17.1823 18.9035 16.4668C18.9035 16.4668 14.3498 18.1358 11.3121 18.1649C8.13862 18.1952 3.36495 16.4668 3.36495 16.4668C1.83245 17.6866 0.537104 19.5595 0.537109 22.2685C0.537118 26.3884 2.3404 28.977 5.8276 30.678Z" fill="#B5B543"/>
<path fill-rule="evenodd" clip-rule="evenodd" d="M13.2594 9.41837C13.2594 11.2546 13.1641 13.2582 16.4001 15.0348C17.2136 15.4814 18.0773 15.951 18.9035 16.4667C20.0497 17.1822 21.1239 17.9866 21.892 18.9424C21.892 18.9424 21.3974 17.8784 21.9929 15.3474C22.298 14.0507 22.5507 12.2793 21.8937 10.9304C20.9543 9.00191 19.6183 7.48068 17.4767 7.35713C14.896 7.20825 13.2594 6.41418 13.2594 6.41418V9.41837ZM19.0075 9.7882C17.7382 8.86564 15.8965 8.17645 15.1468 9.37589C14.7801 9.96258 14.8267 10.2929 14.847 10.9501C14.8891 12.3164 15.803 12.7142 17.0778 13.3613C18.3896 14.0272 19.3818 14.8678 20.4078 13.8135C21.6197 12.5684 20.413 10.8097 19.0075 9.7882Z" fill="#CDECFF"/>
<path d="M13.2773 0.0712891L13.2783 0.0722656L13.2812 0.0732422C13.2831 0.0743341 13.2853 0.0764122 13.2881 0.078125C13.294 0.0816118 13.3028 0.0859297 13.3125 0.0917969C13.3325 0.103897 13.3609 0.121492 13.3936 0.142578C13.4579 0.184129 13.5467 0.244775 13.6377 0.316406C13.7255 0.385564 13.832 0.47897 13.9219 0.587891C13.9973 0.679399 14.1364 0.870993 14.1367 1.12695C14.1367 1.4848 14.143 1.94586 14.1484 2.31836C14.1491 2.36188 14.1498 2.40457 14.1504 2.44531H15.2783C15.5747 2.44549 15.8153 2.68607 15.8154 2.98242V4.6123C15.8154 4.84752 15.6621 5.05523 15.4375 5.125L13.7959 5.63379V6.00488C13.9751 6.0746 14.2308 6.16785 14.5537 6.26367C15.2527 6.47103 16.2658 6.6969 17.5078 6.76855C19.9431 6.90912 21.4071 8.6546 22.376 10.6436C23.1234 12.1782 22.8209 14.1203 22.5156 15.418C22.2294 16.6344 22.211 17.477 22.2549 17.9971C22.2769 18.2572 22.3139 18.4384 22.3428 18.5469C22.3524 18.5831 22.3614 18.6113 22.3682 18.6318C23.1054 19.5748 23.5898 20.6803 23.5898 21.9873C23.5897 24.2799 23.0614 26.2376 21.999 27.8457C20.9364 29.454 19.3647 30.6742 17.3438 31.5342C16.7052 31.8058 15.8166 31.9102 14.8447 31.9561C13.8583 32.0025 12.7014 31.9902 11.498 31.9902C9.30353 31.9902 7.73938 32.1554 5.59277 31.1084C3.78553 30.2268 2.37654 29.0969 1.42383 27.6201C0.470073 26.1414 3.16364e-05 24.3573 0 22.2168C1.1918e-05 19.3113 1.39838 17.2941 3.03027 15.9951C3.42205 15.6833 3.82852 15.4114 4.23145 15.1787C5.3361 14.5406 6.63289 13.6075 7.66309 12.8252C8.17552 12.4361 8.61845 12.0882 8.93262 11.8369C9.06002 11.735 9.16591 11.648 9.24707 11.582C9.29407 10.5549 9.39163 9.03918 9.48047 7.74707C9.5286 7.0471 9.57486 6.41003 9.6084 5.94824C9.61986 5.79039 9.62942 5.65255 9.6377 5.54004L5.91895 3.4502C5.70639 3.33058 5.60057 3.08268 5.66211 2.84668C5.72391 2.61054 5.93757 2.44546 6.18164 2.44531H9.32129V1.32422C9.32158 0.776756 9.6834 0.438453 9.92871 0.272461C10.0586 0.184675 10.1848 0.12359 10.2764 0.0849609C10.3228 0.0653946 10.363 0.0513362 10.3926 0.0410156C10.4072 0.0359068 10.4201 0.0313874 10.4297 0.0283203C10.4344 0.0268184 10.4391 0.0254317 10.4424 0.0244141C10.4438 0.0240153 10.4452 0.0237714 10.4463 0.0234375L10.4482 0.0214844H10.4502L10.5234 0H13.1533L13.2773 0.0712891ZM16.7812 9.26172C16.1771 9.14501 15.81 9.27745 15.6025 9.60937C15.4533 9.84825 15.4038 10.005 15.3838 10.1553C15.3596 10.337 15.3727 10.5214 15.3838 10.8818C15.4004 11.418 15.5755 11.7199 15.8584 11.9727C16.1858 12.265 16.6515 12.4911 17.3213 12.8311C17.6498 12.9978 17.993 13.1932 18.2598 13.335C18.547 13.4876 18.7874 13.6022 19.0039 13.667C19.2148 13.73 19.3786 13.7393 19.5195 13.707C19.6572 13.6755 19.8233 13.5922 20.0225 13.3877C20.2445 13.1595 20.3405 12.9267 20.3633 12.6973C20.3867 12.4589 20.3355 12.1859 20.2002 11.8857C19.9251 11.2754 19.3472 10.6476 18.6914 10.1709C18.0941 9.73685 17.3897 9.37943 16.7812 9.26172Z" fill="#3F0F33"/>
<path d="M12.4888 0.354248L12.4898 0.355225L12.4927 0.356201C12.4945 0.357307 12.4968 0.359399 12.4995 0.361084C12.5055 0.364561 12.5143 0.36892 12.524 0.374756C12.5439 0.386855 12.5724 0.404483 12.605 0.425537C12.6693 0.467086 12.7582 0.527766 12.8492 0.599365C12.9369 0.668518 13.0435 0.761955 13.1333 0.87085C13.2088 0.962353 13.3478 1.15404 13.3482 1.40991C13.3482 1.76772 13.3544 2.22884 13.3599 2.60132C13.3605 2.64479 13.3612 2.68757 13.3618 2.72827H14.4898C14.786 2.72855 15.0267 2.96915 15.0269 3.26538V4.89526C15.0269 5.13041 14.8735 5.33813 14.649 5.40796L13.0074 5.91675V6.28784C13.1865 6.35755 13.4423 6.45083 13.7652 6.54663C14.4641 6.75398 15.4774 6.97986 16.7193 7.05151C19.1544 7.19216 20.6186 8.93762 21.5874 10.9265C22.3348 12.4611 22.0324 14.4033 21.7271 15.7009C21.4409 16.9173 21.4224 17.7599 21.4663 18.28C21.4883 18.5401 21.5254 18.7214 21.5542 18.8298C21.5639 18.866 21.5729 18.8943 21.5796 18.9148C22.3168 19.8578 22.8013 20.9633 22.8013 22.2703C22.8012 24.5628 22.2728 26.5206 21.2105 28.1287C20.1479 29.7369 18.576 30.9572 16.5552 31.8171C15.9167 32.0887 15.0279 32.1932 14.0562 32.239C13.0698 32.2855 11.9128 32.2732 10.7095 32.2732C9.9507 32.2732 9.26713 32.2906 8.60892 32.2732C9.78557 32.2737 10.9153 32.2845 11.8814 32.239C12.8532 32.1932 13.7419 32.0887 14.3804 31.8171C16.4013 30.9572 17.9731 29.737 19.0357 28.1287C20.0981 26.5206 20.6264 24.5629 20.6265 22.2703C20.6265 20.9633 20.142 19.8578 19.4048 18.9148C19.3981 18.8943 19.389 18.8659 19.3794 18.8298C19.3506 18.7214 19.3135 18.54 19.2915 18.28C19.2476 17.7599 19.2661 16.9173 19.5523 15.7009C19.8576 14.4033 20.16 12.4612 19.4126 10.9265C18.4437 8.93763 16.9797 7.19207 14.5445 7.05151C13.3026 6.97985 12.2893 6.75398 11.5904 6.54663C11.2675 6.45083 11.0117 6.35754 10.8326 6.28784V5.91675L12.4742 5.40796C12.6988 5.33819 12.8521 5.13048 12.8521 4.89526V3.26538C12.8519 2.96909 12.6113 2.72845 12.315 2.72827H11.187C11.1864 2.68757 11.1857 2.64479 11.1851 2.60132C11.1796 2.22884 11.1734 1.76772 11.1734 1.40991C11.173 1.15401 11.034 0.962343 10.9585 0.87085C10.8687 0.762002 10.7621 0.668487 10.6743 0.599365C10.5834 0.527797 10.4945 0.46706 10.4302 0.425537C10.3976 0.404507 10.3691 0.386832 10.3492 0.374756C10.3395 0.36895 10.3306 0.364547 10.3247 0.361084C10.3221 0.359396 10.3197 0.357267 10.3179 0.356201L10.315 0.355225L10.314 0.354248L10.19 0.282959H12.3648L12.4888 0.354248ZM12.6392 9.89233C12.8466 9.56045 13.2139 9.42805 13.8179 9.54468C14.1323 9.60551 14.4724 9.73085 14.8101 9.89722C14.6633 10.1332 14.6151 10.2891 14.5952 10.4382C14.5711 10.6199 14.5841 10.8044 14.5952 11.1648C14.6118 11.701 14.7869 12.0029 15.0699 12.2556C15.3972 12.548 15.863 12.774 16.5327 13.114C16.7633 13.2311 17.0009 13.3625 17.2144 13.4792C17.1711 13.543 17.1206 13.6075 17.0591 13.6707C16.8599 13.8752 16.6939 13.9584 16.5562 13.99C16.4153 14.0222 16.2513 14.0129 16.0406 13.95C15.8241 13.8851 15.5836 13.7705 15.2964 13.6179C15.0297 13.4762 14.6864 13.2808 14.3579 13.114C13.6882 12.7741 13.2224 12.548 12.8951 12.2556C12.6122 12.0029 12.437 11.7009 12.4204 11.1648C12.4093 10.8044 12.3963 10.6199 12.4204 10.4382C12.4405 10.288 12.49 10.1312 12.6392 9.89233Z" fill="#3F0F33"/>
<path d="M22.5158 22.0387C22.5158 20.9913 22.1254 20.0909 21.4733 19.2793C20.807 18.4502 19.8754 17.7265 18.8345 17.06C18.7043 17.1054 18.528 17.1673 18.3132 17.2383C17.8327 17.3973 17.16 17.6092 16.3908 17.8225C14.8652 18.2455 12.9106 18.6861 11.3177 18.7014C9.65354 18.7173 7.60672 18.276 6.0087 17.8456C5.20289 17.6285 4.49756 17.4104 3.99395 17.2467C3.78343 17.1783 3.60817 17.1182 3.4748 17.0726C2.14407 18.2122 1.0741 19.8887 1.07409 22.2684C1.0741 24.2477 1.5067 25.8189 2.32636 27.0897C3.14707 28.3619 4.38379 29.376 6.06324 30.1952C7.93906 31.1102 9.21706 30.9682 11.4981 30.9682C12.722 30.9682 13.841 30.9795 14.7945 30.9346C15.7625 30.889 16.4785 30.7863 16.9236 30.5969C18.7892 29.8029 20.1779 28.7059 21.103 27.3058C22.0281 25.9056 22.5157 24.1634 22.5158 22.0387ZM10.4619 4.82263C10.6436 4.92481 10.7502 5.12339 10.7346 5.3313L10.7335 5.33234V5.34388C10.7329 5.35256 10.7317 5.36573 10.7304 5.38269C10.7279 5.41667 10.7236 5.46706 10.7189 5.53162C10.7093 5.66073 10.6957 5.84769 10.679 6.07804C10.6455 6.539 10.6001 7.17504 10.5521 7.87359C10.4559 9.27332 10.3505 10.9176 10.3098 11.9199C10.3037 12.072 10.2331 12.2149 10.1158 12.3121L10.1127 12.3142C10.1111 12.3155 10.1091 12.3172 10.1064 12.3195C10.1004 12.3244 10.0906 12.332 10.0791 12.3415C10.056 12.3604 10.022 12.3878 9.97841 12.4233C9.89076 12.4947 9.76375 12.5986 9.60399 12.7264C9.28423 12.9822 8.83355 13.3371 8.31186 13.7332C7.27317 14.5219 5.9332 15.4882 4.76797 16.1612C4.69394 16.204 4.61951 16.2478 4.54562 16.2934C5.01287 16.4422 5.61396 16.6268 6.28768 16.8083C7.86986 17.2345 9.79797 17.6418 11.3072 17.6274C12.752 17.6136 14.593 17.2061 16.1034 16.7873C16.6794 16.6277 17.1993 16.4655 17.6221 16.3301C17.127 16.0466 16.6286 15.7733 16.1412 15.5057C14.4415 14.5725 13.5547 13.5423 13.1175 12.4485C12.6912 11.3818 12.7221 10.3104 12.7221 9.41847V5.29039C12.7223 5.05531 12.8761 4.84719 13.1007 4.77753L14.741 4.26781V3.57141H8.2353L10.4619 4.82263ZM14.6917 9.09124C15.2339 8.22391 16.163 8.10089 16.9844 8.25955C17.8011 8.41738 18.6517 8.86538 19.3232 9.35344C20.0727 9.89817 20.8019 10.6607 21.1785 11.4961C21.3689 11.9186 21.4793 12.3831 21.4324 12.8564C21.3844 13.3387 21.1763 13.7941 20.7926 14.1884C20.4792 14.5104 20.1371 14.7185 19.7595 14.8051C19.385 14.8909 19.0251 14.8458 18.696 14.7474C18.3725 14.6506 18.0547 14.4943 17.7553 14.3352C17.4352 14.1652 17.1615 14.0062 16.8344 13.8402C16.2296 13.5332 15.6014 13.2357 15.1427 12.826C14.6395 12.3766 14.3355 11.7963 14.31 10.9665C14.3008 10.67 14.2803 10.3599 14.3194 10.0656C14.3627 9.73995 14.4746 9.43866 14.6917 9.09124ZM16.7809 9.31359C16.1768 9.19688 15.8095 9.32881 15.6021 9.66074C15.4527 9.89972 15.4039 10.0568 15.3839 10.2072C15.3597 10.3889 15.3728 10.5733 15.3839 10.934C15.4005 11.4702 15.5751 11.772 15.858 12.0247C16.1854 12.3172 16.6512 12.5426 17.3211 12.8827C17.6497 13.0495 17.9929 13.2453 18.2597 13.3871C18.5472 13.5398 18.7878 13.6538 19.0044 13.7185C19.2153 13.7815 19.3785 13.7907 19.5193 13.7584C19.6571 13.7269 19.8235 13.6442 20.0228 13.4396C20.2448 13.2114 20.3408 12.9789 20.3636 12.7495C20.3872 12.511 20.3353 12.238 20.2 11.9377C19.9249 11.3273 19.3477 10.6996 18.6918 10.2229C18.0944 9.78865 17.3896 9.43127 16.7809 9.31359ZM23.5897 22.0387C23.5897 24.3315 23.0612 26.2891 21.9987 27.8973C20.9361 29.5056 19.365 30.7259 17.3441 31.5859C16.7056 31.8576 15.8168 31.9617 14.8448 32.0075C13.8584 32.054 12.7015 32.0421 11.4981 32.0421C9.30344 32.0421 7.73915 32.2073 5.59232 31.1601C3.78496 30.2785 2.37606 29.1487 1.42334 27.6718C0.469561 26.1931 0.000126359 24.409 0.00012207 22.2684C0.000133988 19.3629 1.39821 17.3459 3.03011 16.0469C3.42192 15.735 3.82802 15.4637 4.23098 15.2309C5.33575 14.5928 6.63229 13.6598 7.66266 12.8774C8.17542 12.4881 8.61847 12.1398 8.93275 11.8884C9.06032 11.7863 9.16619 11.6995 9.24739 11.6335C9.29439 10.6064 9.39139 9.09123 9.48023 7.79912C9.52836 7.09903 9.57464 6.46229 9.60818 6.00043C9.61967 5.84221 9.62926 5.70408 9.63755 5.5914L5.9185 3.50219C5.70581 3.3825 5.6008 3.13422 5.66259 2.89808C5.7244 2.6619 5.93764 2.49754 6.18175 2.49744H9.32081V1.37627C9.32097 0.828465 9.68375 0.49029 9.92911 0.324324C10.059 0.236538 10.1847 0.175217 10.2763 0.136589C10.3228 0.116977 10.3631 0.102868 10.3927 0.0925389C10.4073 0.0874302 10.4198 0.0830204 10.4294 0.0799533C10.4342 0.0784301 10.4386 0.0767926 10.442 0.0757581C10.4434 0.0753066 10.445 0.0750688 10.4462 0.0747093L10.4483 0.0736605H10.4504L10.5238 0.0516357H13.1531L13.2769 0.122954L13.2779 0.124003L13.2811 0.125052C13.283 0.126178 13.2854 0.128511 13.2884 0.130296C13.2944 0.133806 13.3027 0.138 13.3125 0.14393C13.3325 0.156031 13.3607 0.173186 13.3933 0.194273C13.4577 0.23584 13.5466 0.296635 13.6377 0.368373C13.7255 0.43758 13.832 0.530995 13.9219 0.640013C13.9974 0.731567 14.1367 0.922942 14.1369 1.1791C14.1369 1.53708 14.143 1.99796 14.1484 2.37053C14.1491 2.41418 14.1499 2.45658 14.1505 2.49744H15.278C15.5746 2.49744 15.815 2.73785 15.815 3.03442V4.66426C15.815 4.89954 15.6621 5.10741 15.4374 5.17712L13.796 5.68579V6.05706C13.9752 6.12678 14.2304 6.21925 14.5533 6.31507C15.2523 6.52247 16.2655 6.74892 17.5077 6.82059C19.943 6.96113 21.4074 8.70589 22.3763 10.6949C23.1239 12.2297 22.8211 14.1723 22.5158 15.47C22.2295 16.6866 22.2107 17.529 22.2546 18.049C22.2766 18.3092 22.3139 18.4902 22.3427 18.5986C22.3523 18.6348 22.3611 18.6631 22.3679 18.6836C23.1052 19.6266 23.5897 20.7316 23.5897 22.0387ZM13.7992 10.1096C13.8102 10.7862 13.8635 11.421 14.1149 12.0499C14.439 12.8608 15.1224 13.7206 16.6582 14.5639C17.4675 15.0082 18.3462 15.4858 19.1879 16.0112C19.8773 16.4415 20.5549 16.9134 21.1649 17.4386C21.1775 16.8592 21.258 16.1263 21.4701 15.2246C21.7749 13.9291 21.9776 12.3285 21.4114 11.1658C20.5016 9.29799 19.2934 8.00015 17.4459 7.89351C16.1076 7.81631 15.0115 7.57183 14.247 7.34499C14.0806 7.29561 13.9304 7.2451 13.796 7.19921V9.41847L13.7992 10.1096ZM10.3948 2.49744H13.0766C13.076 2.46146 13.075 2.42433 13.0745 2.38626C13.0695 2.0511 13.0649 1.64083 13.064 1.29551C13.0414 1.27308 13.0125 1.2429 12.9727 1.21161C12.9319 1.17948 12.8888 1.15107 12.8511 1.12561H10.6958L10.6937 1.12666C10.6459 1.14681 10.5859 1.17592 10.5301 1.21371C10.4041 1.29891 10.3949 1.35485 10.3948 1.37627V2.49744Z" fill="#3F0F33"/>
</svg>
