<svg width="29" height="32" viewBox="0 0 29 32" fill="none" xmlns="http://www.w3.org/2000/svg">
<path d="M0.969777 23.1928L13.9292 30.6755L13.9311 16.4063L0.969777 9.23525V23.1928ZM23.858 11.3775V19.9274C23.8579 20.1026 23.7627 20.264 23.6099 20.3498L20.1712 22.2808C20.021 22.3651 19.8368 22.3631 19.6882 22.2761C19.5397 22.1891 19.4486 22.0296 19.4486 21.8575V13.8531L14.9009 16.4044L14.899 30.6755L27.5638 23.3624V9.29775L23.858 11.3775ZM20.4184 13.3085V21.0288L22.8883 19.6424V11.922L20.4184 13.3085ZM1.46982 8.40374L14.415 15.5653L18.9523 13.0187L6.21548 5.66393L1.46982 8.40374ZM7.18525 5.10422L19.9363 12.4666L22.392 11.0886L9.60685 3.70543L7.18525 5.10422ZM10.5757 3.14573L23.376 10.5365L27.0685 8.4634L14.2171 1.04328L10.5757 3.14573ZM28.5336 23.6436C28.5335 23.8168 28.4411 23.9766 28.2912 24.0632L14.6565 31.935C14.5065 32.0217 14.3217 32.0217 14.1716 31.935L0.242444 23.8937C0.092419 23.807 0 23.6464 0 23.4732V8.41321C4.4712e-05 8.24007 0.0925213 8.08028 0.242444 7.99367L13.9756 0.06498L14.0334 0.0365686C14.1713 -0.0203163 14.3292 -0.0108268 14.4605 0.06498L28.2912 8.04954C28.4412 8.13616 28.5336 8.2968 28.5336 8.47003V23.6436Z" fill="#3F0F33"/>
<path fill-rule="evenodd" clip-rule="evenodd" d="M27.0686 8.46346L23.3761 10.5365L10.5758 3.14578L14.2172 1.04333L27.0686 8.46346Z" fill="#C0A884"/>
<path d="M14.4151 15.5653L18.9524 13.0187L6.21557 5.66394L1.46991 8.40375L14.4151 15.5653Z" fill="#C0A884"/>
<path d="M13.9293 30.6754L13.9312 16.4063L0.969879 9.23523V23.1928L13.9293 30.6754Z" fill="#C0A884"/>
<path d="M27.5639 23.3623L14.899 30.6754L14.9009 16.4044L19.4487 13.853V21.8575C19.4487 22.0295 19.5399 22.189 19.6883 22.2761C19.8369 22.3631 20.0211 22.3651 20.1713 22.2808L23.61 20.3498C23.7627 20.264 23.858 20.1025 23.8581 19.9274V11.3774L27.5639 9.29773V23.3623Z" fill="#B09168"/>
<path d="M22.8883 19.6424L20.4184 21.0288V13.3085L22.8883 11.922V19.6424Z" fill="#F7F4EF"/>
<path d="M22.3921 11.0886L19.9364 12.4666L7.18533 5.10423L9.60693 3.70544L22.3921 11.0886Z" fill="#F7F4EF"/>
</svg>
