<svg width="203" height="455" viewBox="0 0 203 455" fill="none" xmlns="http://www.w3.org/2000/svg">
<path d="M101.389 135.866L143.108 135.943C144.128 144.327 145.344 152.028 146.728 158.502C148.256 165.653 150.061 171.669 152.221 175.41C160.332 189.46 174.737 201.005 179.547 205.816C181.747 208.016 185.885 214.083 189.496 221.924C193.087 229.721 195.901 238.728 195.901 246.723V429.186C195.901 433.005 193.168 437.626 188.547 441.516C183.975 445.364 178.451 447.723 174.22 447.723C158.012 447.723 139.834 447.771 125.71 447.82C118.648 447.844 112.598 447.868 108.314 447.886C106.172 447.895 104.471 447.903 103.306 447.908C102.723 447.911 102.274 447.913 101.971 447.914C101.82 447.915 101.704 447.916 101.627 447.916H28.7716C24.5362 447.916 19.0056 445.556 14.4298 441.704C9.80433 437.811 7.06766 433.185 7.06747 429.361V246.74C7.0675 238.737 9.88412 229.723 13.4786 221.918C17.0935 214.07 21.2355 207.996 23.4376 205.794C28.2527 200.979 42.669 189.425 50.7872 175.364C52.9486 171.62 54.7545 165.598 56.2843 158.442C57.6691 151.963 58.886 144.257 59.9063 135.866H101.389ZM101.619 237.303C83.0059 237.273 64.3317 238.426 50.3722 247.791C36.0559 257.396 27.5568 274.953 27.5567 305.443V408.631C27.5568 418.772 37.0319 424.621 45.7208 424.621H101.556C101.57 424.621 101.592 424.621 101.621 424.62C101.679 424.62 101.767 424.62 101.881 424.619C102.11 424.618 102.449 424.617 102.889 424.615C103.769 424.61 105.057 424.603 106.68 424.595C109.926 424.579 114.519 424.558 119.904 424.537C130.675 424.495 144.613 424.453 157.285 424.453C165.968 424.453 175.436 418.609 175.436 408.474V305.375C175.436 274.915 166.977 257.403 152.707 247.823C138.797 238.484 120.18 237.333 101.619 237.303ZM101.608 244.303C120.331 244.333 136.876 245.624 148.806 253.634C160.376 261.402 168.436 276.148 168.436 305.375V408.474C168.436 413.37 163.634 417.453 157.285 417.453C144.6 417.453 130.652 417.495 119.877 417.537C114.489 417.558 109.894 417.579 106.646 417.595C105.022 417.603 103.734 417.61 102.853 417.615C102.412 417.617 102.073 417.618 101.844 417.619C101.729 417.62 101.642 417.621 101.583 417.621H45.7208C39.3652 417.621 34.5568 413.534 34.5567 408.631V305.443C34.5568 276.193 42.6519 261.399 54.2716 253.604C66.248 245.569 82.8528 244.273 101.608 244.303ZM101.366 89.1165L139.733 89.2278C140.11 102.608 141.008 116.37 142.32 128.941L101.402 128.866H60.6944C62.0086 116.284 62.9062 102.509 63.2843 89.1165H101.366ZM101.353 61.7815L139.52 61.9153C139.525 66.2253 139.53 70.6753 139.53 75.3088C139.53 77.5895 139.549 79.899 139.583 82.2278L101.387 82.1165H63.4347C63.4688 79.7808 63.4874 77.4644 63.4874 75.177C63.4874 70.5429 63.4929 66.0922 63.4981 61.7815H101.353ZM80.6104 33.2483V39.3938C80.6105 41.3266 82.1777 42.8936 84.1104 42.8938H101.325L118.896 43.0569C119.829 43.0655 120.728 42.7004 121.392 42.0432C122.055 41.386 122.428 40.4906 122.428 39.5569V33.4202H139.47C139.483 40.3822 139.498 47.4617 139.511 54.9153L101.377 54.7815H63.5079C63.5205 47.3143 63.5353 40.2225 63.5489 33.2483H80.6104ZM101.319 33.2483L115.428 33.385V36.0237L101.39 35.8948L101.358 35.8938H87.6104V33.2483H101.319ZM101.362 7.03442C101.399 7.03479 101.454 7.03567 101.525 7.03638C101.669 7.0378 101.881 7.03958 102.155 7.04224C102.703 7.04754 103.501 7.05561 104.496 7.0647C106.488 7.08288 109.278 7.10686 112.464 7.1311C118.834 7.17958 126.801 7.22876 133.169 7.22876C136.888 7.22887 139.445 9.76704 139.445 12.4592C139.445 17.1462 139.451 21.7749 139.458 26.4202H118.962L101.388 26.2483H63.5606C63.5678 21.5982 63.5733 16.9645 63.5733 12.2727C63.5736 9.5761 66.1344 7.03442 69.8575 7.03442H101.362Z" fill="#E92933"/>
<path d="M101.211 244.608C119.933 244.638 136.478 245.929 148.408 253.939C159.978 261.707 168.038 276.452 168.038 305.68V408.779C168.038 413.675 163.236 417.758 156.887 417.758C144.202 417.758 130.254 417.8 119.479 417.842C114.092 417.863 109.496 417.884 106.248 417.9C104.624 417.908 103.336 417.915 102.455 417.919C102.014 417.922 101.675 417.923 101.446 417.924C101.332 417.925 101.244 417.926 101.185 417.926H45.3229C38.9674 417.926 34.1589 413.839 34.1588 408.936V305.748C34.1589 276.498 42.2541 261.704 53.8737 253.909C65.8501 245.874 82.4549 244.578 101.211 244.608Z" fill="#F3F7F6"/>
<path d="M101.211 244.608C119.933 244.638 136.478 245.929 148.408 253.939C159.978 261.707 168.038 276.452 168.038 305.68V408.779C168.038 413.675 163.236 417.758 156.887 417.758C144.202 417.758 130.254 417.8 119.479 417.842C114.092 417.863 109.496 417.884 106.248 417.9C104.624 417.908 103.336 417.915 102.455 417.919C102.014 417.922 101.675 417.923 101.446 417.924C101.332 417.925 101.244 417.926 101.185 417.926H45.3229C38.9674 417.926 34.1589 413.839 34.1588 408.936V305.748C34.1589 276.498 42.2541 261.704 53.8737 253.909C65.8501 245.874 82.4549 244.578 101.211 244.608Z" fill="#F3F7F6"/>
<path d="M80.6742 39.3938V33.2483H63.6127C63.5991 40.2225 63.5842 47.3143 63.5717 54.7815H101.441L139.575 54.9153C139.562 47.4617 139.547 40.3822 139.534 33.4202H122.492V39.5569C122.492 40.4906 122.119 41.386 121.455 42.0432C120.792 42.7004 119.893 43.0655 118.959 43.0569L101.389 42.8938H84.1742C82.2415 42.8936 80.6743 41.3266 80.6742 39.3938Z" fill="#F3F7F6"/>
<path d="M115.492 33.385L101.383 33.2483H87.6742V35.8938H101.421L101.454 35.8948L115.492 36.0237V33.385Z" fill="#3F0F33"/>
<path d="M101.141 7.03638C101.07 7.03567 101.015 7.03479 100.978 7.03442H69.4731C65.75 7.03442 63.1891 9.5761 63.1889 12.2727C63.1889 16.9645 63.1834 21.5982 63.1762 26.2483H101.003L118.578 26.4202H139.074C139.066 21.7749 139.061 17.1462 139.061 12.4592C139.061 9.76704 136.503 7.22887 132.785 7.22876C126.417 7.22876 118.449 7.17958 112.079 7.1311C108.893 7.10686 106.104 7.08288 104.112 7.0647C103.116 7.05561 102.319 7.04754 101.771 7.04224C101.497 7.03958 101.284 7.0378 101.141 7.03638Z" fill="#F3F7F6"/>
<path d="M139.891 89.2278L101.525 89.1165H63.4425C63.0645 102.509 62.1669 116.284 60.8527 128.866H101.561L142.479 128.941C141.166 116.37 140.268 102.608 139.891 89.2278Z" fill="#10C16C"/>
<g opacity="0.4" style="mix-blend-mode:darken">
<path d="M99.7765 5.71924C99.7765 5.71924 118.896 5.91261 131.604 5.9126C136.722 5.91263 141.379 9.5255 141.379 14.644C141.379 20.5057 141.386 26.2762 141.397 32.104C141.413 41.2729 141.437 50.5835 141.451 60.6128C141.459 66.0023 141.465 71.5994 141.465 77.4937C141.465 80.914 141.504 84.4006 141.58 87.9233C141.921 103.653 143.004 120.106 144.655 134.632C146.819 153.665 149.959 169.39 153.686 175.845C161.49 189.363 175.22 200.289 180.456 205.525C185.692 210.761 197.836 231.481 197.836 248.908V431.37C197.836 442.009 183.294 453.407 172.654 453.408C140.25 453.408 99.9611 453.601 99.9611 453.601H27.2052C16.5565 453.601 2.00113 442.193 2.00113 431.544V427.424C5.68071 429.385 9.57657 430.571 13.0607 430.571H86.7677C86.7677 430.571 127.583 430.378 160.411 430.378C171.19 430.378 185.922 419.034 185.922 408.445L184.534 259.51C184.534 242.166 172.232 221.545 166.927 216.333C161.622 211.122 147.713 200.247 139.807 186.793C136.031 180.368 132.85 153.19 130.658 134.249C128.985 119.791 127.888 103.416 127.543 87.7603C127.466 84.2544 127.426 80.7844 127.426 77.3804C127.426 71.514 127.42 65.9426 127.412 60.5786C127.397 50.597 127.373 41.3308 127.357 32.2056C127.346 26.4053 127.339 20.6616 127.339 14.8276C127.339 9.73331 122.621 6.13818 117.436 6.13818C104.562 6.13819 85.1925 5.94482 85.1925 5.94482H66.0929C66.8073 5.79759 67.5441 5.71925 68.2912 5.71924H99.7765Z" fill="#3F0F33"/>
</g>
<path d="M131.65 346.682C131.65 346.055 131.631 345.433 131.598 344.815L124.88 350.82C123.95 351.651 122.647 351.925 121.46 351.537C120.274 351.149 119.384 350.159 119.124 348.938L116.097 334.696L100.545 340.551C99.2647 341.033 97.8201 340.725 96.8481 339.762C95.8762 338.799 95.5554 337.357 96.0258 336.073L100.329 324.323L85.4409 323.457C84.273 323.389 83.2161 322.742 82.6245 321.733C82.0329 320.723 81.9848 319.484 82.4966 318.432L84.5815 314.143C71.4437 319.109 62.1002 331.806 62.1001 346.682C62.1001 365.887 77.6691 381.457 96.8745 381.457C116.08 381.457 131.65 365.887 131.65 346.682ZM96.8745 311.907C95.6899 311.907 94.5201 311.967 93.3676 312.082L91.0864 316.773L105.438 317.608C106.543 317.672 107.553 318.255 108.161 319.181C108.768 320.106 108.903 321.265 108.522 322.305L105.224 331.31L117.442 326.71C118.396 326.351 119.46 326.426 120.355 326.915C121.25 327.405 121.887 328.261 122.099 329.259L124.716 341.577L130.19 336.686C127.651 328.213 121.965 321.09 114.479 316.686C109.318 313.65 103.305 311.907 96.8745 311.907ZM138.65 346.682C138.65 369.753 119.946 388.457 96.8745 388.457C73.8031 388.457 55.1001 369.753 55.1001 346.682C55.1003 325.769 70.4636 308.451 90.52 305.388C92.5938 305.071 94.7164 304.908 96.8745 304.907C103.594 304.907 109.95 306.497 115.581 309.321C117.805 307.054 120.706 304.242 123.706 301.611C127.506 298.277 131.927 294.811 135.409 293.463C137.211 292.765 139.238 293.661 139.936 295.463C140.634 297.266 139.738 299.293 137.935 299.99C135.767 300.83 132.205 303.467 128.322 306.873C125.952 308.952 123.634 311.161 121.704 313.086C129.507 318.862 135.231 327.293 137.535 337.057C138.264 340.15 138.65 343.373 138.65 346.682Z" fill="#3F0F33"/>
<path d="M82.4891 318.462C81.9774 319.514 82.0255 320.753 82.617 321.762C83.2086 322.772 84.2655 323.419 85.4334 323.487L100.321 324.352L96.0184 336.102C95.5479 337.387 95.8689 338.828 96.8406 339.792C97.8126 340.755 99.2573 341.063 100.538 340.581L116.09 334.725L119.117 348.967C119.376 350.188 120.267 351.179 121.453 351.567C122.639 351.955 123.942 351.681 124.873 350.849L131.591 344.844C131.623 345.462 131.642 346.085 131.642 346.712C131.642 365.917 116.073 381.487 96.867 381.487C77.6617 381.487 62.0926 365.917 62.0926 346.712C62.0928 331.836 71.4363 319.138 84.574 314.172L82.4891 318.462Z" fill="#E92933"/>
<path d="M114.471 316.715C109.311 313.68 103.297 311.937 96.867 311.937C95.6824 311.937 94.5125 311.997 93.3601 312.112L91.0789 316.802L105.43 317.637C106.536 317.702 107.545 318.285 108.153 319.211C108.761 320.136 108.895 321.295 108.514 322.335L105.217 331.339L117.434 326.74C118.389 326.381 119.453 326.456 120.347 326.945C121.242 327.435 121.88 328.291 122.092 329.289L124.709 341.607L130.182 336.715C127.644 328.243 121.957 321.119 114.471 316.715Z" fill="#10C16C"/>
<path d="M195.834 429.151V246.688C195.834 238.694 193.02 229.687 189.429 221.89C185.817 214.048 181.679 207.981 179.479 205.781C174.669 200.971 160.265 189.426 152.153 175.376C149.993 171.635 148.189 165.619 146.66 158.468C145.276 151.994 144.061 144.293 143.041 135.908L101.321 135.832H59.8389C58.8185 144.222 57.6016 151.929 56.2168 158.407C54.687 165.564 52.8812 171.585 50.7197 175.329C42.6014 189.39 28.1852 200.945 23.3701 205.76C21.168 207.962 17.0261 214.035 13.4111 221.884C9.81664 229.688 7.00003 238.703 7 246.705V429.326C7.00016 433.15 9.73684 437.777 14.3623 441.67C18.9382 445.521 24.4687 447.882 28.7041 447.882H101.56C101.637 447.881 101.752 447.881 101.903 447.88C102.206 447.878 102.656 447.877 103.238 447.874C104.404 447.869 106.104 447.861 108.246 447.852C112.53 447.833 118.58 447.809 125.643 447.785C139.767 447.737 157.944 447.688 174.152 447.688C178.383 447.688 183.908 445.329 188.479 441.481C193.101 437.592 195.834 432.971 195.834 429.151ZM168.368 408.439V305.341C168.368 276.113 160.309 261.368 148.738 253.6C136.808 245.59 120.264 244.299 101.541 244.269C82.7853 244.238 66.1805 245.535 54.2041 253.569C42.5845 261.365 34.4893 276.158 34.4893 305.408V408.597C34.4893 413.5 39.2977 417.587 45.6533 417.587H101.516C101.574 417.587 101.662 417.586 101.776 417.585C102.005 417.584 102.345 417.582 102.785 417.58C103.667 417.575 104.954 417.568 106.578 417.561C109.826 417.545 114.422 417.524 119.81 417.503C130.584 417.461 144.532 417.419 157.218 417.419C163.567 417.419 168.368 413.336 168.368 408.439ZM63.2168 89.082C62.8388 102.475 61.9412 116.25 60.627 128.832H101.335L142.253 128.906C140.94 116.335 140.042 102.573 139.665 89.1934L101.299 89.082H63.2168ZM63.4404 54.7471H101.31L139.443 54.8809C139.431 47.4272 139.416 40.3478 139.402 33.3857H122.36V39.5225C122.36 40.4563 121.988 41.3515 121.324 42.0088C120.661 42.6661 119.762 43.0311 118.828 43.0225L101.258 42.8594H84.043C82.1102 42.8591 80.543 41.2922 80.543 39.3594V33.2139H63.4814C63.4678 40.1881 63.453 47.2799 63.4404 54.7471ZM87.543 35.8594H101.29L101.322 35.8604L115.36 35.9893V33.3506L101.252 33.2139H87.543V35.8594ZM175.368 408.439C175.368 418.574 165.9 424.419 157.218 424.419C144.545 424.419 130.608 424.461 119.837 424.503C114.452 424.524 109.859 424.545 106.612 424.561C104.989 424.568 103.702 424.576 102.821 424.58C102.381 424.582 102.042 424.584 101.813 424.585C101.699 424.586 101.612 424.586 101.554 424.586C101.525 424.586 101.503 424.587 101.488 424.587H45.6533C36.9644 424.587 27.4893 418.738 27.4893 408.597V305.408C27.4893 274.918 35.9884 257.361 50.3047 247.757C64.2642 238.392 82.9383 237.238 101.552 237.269C120.112 237.299 138.73 238.449 152.64 247.788C166.909 257.369 175.368 274.88 175.368 305.341V408.439ZM202.834 429.151C202.834 435.971 198.297 442.368 192.987 446.837C187.628 451.348 180.561 454.688 174.152 454.688C157.956 454.688 139.787 454.737 125.666 454.785C118.606 454.809 112.558 454.833 108.275 454.852C106.134 454.861 104.434 454.869 103.27 454.874C102.688 454.877 102.239 454.878 101.937 454.88C101.785 454.881 101.67 454.881 101.593 454.882H28.7041C22.2908 454.882 15.2183 451.54 9.85449 447.025C4.5405 442.553 0.0001489 436.151 0 429.326V246.705C2.45938e-05 237.266 3.26089 227.19 7.05371 218.955C10.826 210.765 15.3815 203.849 18.4199 200.811C24.0864 195.144 37.1532 184.827 44.6572 171.829C46.226 169.112 47.8567 164.034 49.3721 156.944C50.8633 149.968 52.1742 141.391 53.249 131.937C54.8889 117.512 55.9666 101.151 56.3057 85.5059C56.3816 82.0041 56.4199 78.5394 56.4199 75.1426C56.4199 69.2413 56.4257 63.6376 56.4336 58.2422C56.4483 48.2049 56.472 38.8799 56.4883 29.708C56.4987 23.8762 56.5059 18.1022 56.5059 12.2383C56.5061 4.68924 63.2674 -6.19877e-06 69.79 0H101.324C101.333 9.23039e-05 101.347 0.000794526 101.365 0.000976562C101.402 0.00134194 101.456 0.00124556 101.527 0.00195312C101.67 0.00337052 101.882 0.00614142 102.155 0.00878906C102.702 0.0140846 103.498 0.0211926 104.493 0.0302734C106.483 0.0484353 109.268 0.0724651 112.449 0.0966797C118.815 0.14513 126.761 0.194339 133.102 0.194336C139.62 0.19433 146.378 4.88006 146.378 12.4248C146.378 18.2836 146.385 24.0522 146.396 29.8789C146.412 39.0429 146.436 48.36 146.45 58.3887C146.458 63.7794 146.463 69.3782 146.463 75.2744C146.463 78.6682 146.502 82.1301 146.578 85.6289C146.917 101.26 147.992 117.606 149.631 132.019C150.705 141.465 152.015 150.035 153.505 157.005C155.019 164.088 156.649 169.162 158.216 171.876C165.713 184.862 178.768 195.169 184.43 200.831C187.466 203.867 192.018 210.778 195.787 218.962C199.577 227.19 202.834 237.257 202.834 246.688V429.151ZM63.4199 75.1426C63.4199 77.43 63.4013 79.7463 63.3672 82.082H101.319L139.516 82.1934C139.482 79.8646 139.463 77.5551 139.463 75.2744C139.463 70.6409 139.457 66.1909 139.452 61.8809L101.285 61.7471H63.4307C63.4254 66.0578 63.4199 70.5085 63.4199 75.1426ZM63.5059 12.2383C63.5059 16.9301 63.5003 21.5637 63.4932 26.2139H101.32L118.895 26.3857H139.391C139.383 21.7404 139.378 17.1118 139.378 12.4248C139.378 9.73256 136.82 7.19433 133.102 7.19434C126.734 7.19434 118.767 7.14516 112.396 7.09668C109.21 7.07243 106.421 7.04846 104.429 7.03027C103.433 7.02118 102.636 7.01312 102.088 7.00781C101.814 7.00516 101.601 7.00338 101.458 7.00195C101.386 7.00124 101.332 7.00037 101.295 7H69.79C66.067 7 63.5061 9.54168 63.5059 12.2383Z" fill="#3F0F33"/>
</svg>
