<svg width="12" height="32" viewBox="0 0 12 32" fill="none" xmlns="http://www.w3.org/2000/svg">
<path d="M0.890575 19.1717C0.687902 19.507 0.36296 20.0952 0.36296 20.0952L0.362951 22.6154H3.0401C3.74992 21.8647 4.7634 21.395 5.88851 21.395C7.01363 21.395 8.0271 21.8647 8.73692 22.6154H11.3908L11.3908 20.0938C11.3908 20.0938 11.0637 19.5056 10.8597 19.1703C10.8597 19.1703 11.5467 18.3781 11.5467 17.7696C11.5467 17.1611 10.8597 16.3689 10.8597 16.3689C10.8597 16.3689 11.5467 15.5599 11.5467 14.9514C11.5467 14.3429 10.8597 13.5507 10.8597 13.5507C10.8597 13.5507 11.5467 12.7735 11.5467 12.165C11.5467 11.5565 10.8597 10.7643 10.8597 10.7643C10.8597 10.7643 11.5467 9.93936 11.5467 9.33088C11.5467 8.72241 11.3218 8.32953 10.8597 7.93019C9.82485 7.03596 8.28018 5.77911 8.28018 5.77911V4.14519C7.3307 4.14519 5.8686 4.14651 5.8686 4.14651H3.45322V5.78042C3.45322 5.78042 1.91865 7.03727 0.890575 7.93151C0.431472 8.33085 0.208099 8.72372 0.208099 9.3322C0.208099 9.94068 0.890575 10.7656 0.890575 10.7656C0.890575 10.7656 0.208099 11.5579 0.208099 12.1663C0.208099 12.7748 0.890575 13.552 0.890575 13.552C0.890575 13.552 0.208099 14.3442 0.208099 14.9527C0.208099 15.5612 0.890575 16.3702 0.890575 16.3702C0.890575 16.3702 0.208099 17.1624 0.208099 17.7709C0.2081 18.3794 0.890575 19.1717 0.890575 19.1717Z" fill="#D9D9D9"/>
<path d="M11.3908 28.0903L11.3908 22.6154H8.73692C9.3815 23.2971 9.77568 24.2105 9.77568 25.2144C9.77568 26.3613 9.26118 27.3902 8.44658 28.0903H11.3908Z" fill="#D9D9D9"/>
<path d="M0.362951 22.6154L0.362945 28.0903H3.33044C2.51584 27.3902 2.00134 26.3613 2.00134 25.2144C2.00134 24.2105 2.39552 23.2971 3.0401 22.6154H0.362951Z" fill="#D9D9D9"/>
<path d="M1.25097 31.4335C3.04675 31.4335 5.8489 31.4321 5.8489 31.4321L10.4969 31.4321C10.9458 31.4321 11.3908 31.1603 11.3908 30.7143L11.3908 28.0903H8.44658C7.76299 28.6778 6.86806 29.0338 5.88851 29.0338C4.90896 29.0338 4.01404 28.6778 3.33044 28.0903H0.362945L0.36296 30.7157C0.362966 31.1617 0.805065 31.4335 1.25097 31.4335Z" fill="#D9D9D9"/>
<path d="M3.45322 4.14651H5.8686C5.8686 4.14651 7.3307 4.14519 8.28018 4.14519C8.74421 4.14519 9.12039 3.77147 9.12039 3.31047V1.19701C9.12039 0.848806 8.83626 0.566544 8.48576 0.566529C7.54948 0.566489 5.8686 0.567852 5.8686 0.567852H3.24899C2.90078 0.567868 2.6185 0.850128 2.6185 1.19833V3.31178C2.6185 3.77279 2.99222 4.1465 3.45322 4.14651Z" fill="#D9D9D9"/>
<path fill-rule="evenodd" clip-rule="evenodd" d="M8.44658 28.0903C9.26118 27.3902 9.77568 26.3613 9.77568 25.2144C9.77568 24.2105 9.3815 23.2971 8.73692 22.6154C8.0271 21.8647 7.01363 21.395 5.88851 21.395C4.7634 21.395 3.74992 21.8647 3.0401 22.6154C2.39552 23.2971 2.00134 24.2105 2.00134 25.2144C2.00134 26.3613 2.51584 27.3902 3.33044 28.0903C4.01404 28.6778 4.90896 29.0338 5.88851 29.0338C6.86806 29.0338 7.76299 28.6778 8.44658 28.0903ZM6.95118 25.6743C6.95118 26.3784 6.48545 26.8307 5.86499 26.8372C5.23749 26.8307 4.7701 26.3784 4.7701 25.6743C4.7701 24.8289 5.86499 23.7997 5.86499 23.7997C5.86499 23.7997 6.95118 24.8289 6.95118 25.6743Z" fill="#D9D9D9"/>
<path d="M5.86499 26.8372C6.48545 26.8307 6.95118 26.3784 6.95118 25.6743C6.95118 24.8289 5.86499 23.7997 5.86499 23.7997C5.86499 23.7997 4.7701 24.8289 4.7701 25.6743C4.7701 26.3784 5.23749 26.8307 5.86499 26.8372Z" fill="#D9D9D9"/>
<path d="M3.45322 4.14651H5.8686C5.8686 4.14651 7.3307 4.14519 8.28017 4.14519C8.74421 4.14519 9.12039 3.77147 9.12039 3.31047V1.19701C9.12039 0.848806 8.83625 0.566544 8.48575 0.566529C7.54948 0.566489 5.8686 0.567852 5.8686 0.567852H3.24898C2.90078 0.567868 2.6185 0.850128 2.6185 1.19833V3.31178C2.6185 3.77279 2.99222 4.1465 3.45322 4.14651Z" fill="#ECD099"/>
<path d="M11.3908 28.0903L11.3908 22.6154H8.73692C9.3815 23.2971 9.77568 24.2105 9.77568 25.2144C9.77568 26.3613 9.26118 27.3902 8.44658 28.0903H11.3908Z" fill="#909AC1"/>
<path d="M0.362951 22.6154L0.362946 28.0903H3.33044C2.51584 27.3902 2.00134 26.3613 2.00134 25.2144C2.00134 24.2105 2.39552 23.2971 3.0401 22.6154H0.362951Z" fill="#909AC1"/>
<path fill-rule="evenodd" clip-rule="evenodd" d="M8.44658 28.0903C9.26118 27.3902 9.77569 26.3613 9.77569 25.2144C9.77569 24.2105 9.38151 23.2971 8.73692 22.6154C8.0271 21.8647 7.01363 21.395 5.88852 21.395C4.7634 21.395 3.74993 21.8647 3.04011 22.6154C2.39553 23.2971 2.00134 24.2105 2.00134 25.2144C2.00134 26.3613 2.51585 27.3902 3.33045 28.0903C4.01404 28.6778 4.90897 29.0338 5.88852 29.0338C6.86807 29.0338 7.76299 28.6778 8.44658 28.0903ZM6.95119 25.6743C6.95119 26.3784 6.48546 26.8307 5.86499 26.8372C5.2375 26.8307 4.7701 26.3784 4.7701 25.6743C4.7701 24.8289 5.86499 23.7997 5.86499 23.7997C5.86499 23.7997 6.95119 24.8289 6.95119 25.6743Z" fill="#C8EEB9"/>
<path d="M5.86499 26.8372C6.48546 26.8307 6.95119 26.3784 6.95119 25.6743C6.95119 24.8289 5.86499 23.7997 5.86499 23.7997C5.86499 23.7997 4.7701 24.8289 4.7701 25.6743C4.7701 26.3784 5.2375 26.8307 5.86499 26.8372Z" fill="#C8EEB9"/>
<path d="M5.865 26.8373C6.48546 26.8308 6.9512 26.3785 6.9512 25.6743C6.9512 24.829 5.865 23.7998 5.865 23.7998C5.865 23.7998 4.77011 24.829 4.77011 25.6743C4.77011 26.3785 5.23751 26.8308 5.865 26.8373Z" fill="#E4CF97"/>
<path d="M1.25097 31.4335C3.04675 31.4335 5.8489 31.4322 5.8489 31.4322L10.4969 31.4321C10.9458 31.4321 11.3908 31.1603 11.3908 30.7144L11.3908 28.0903H8.44658C7.76299 28.6778 6.86806 29.0338 5.88851 29.0338C4.90896 29.0338 4.01404 28.6778 3.33044 28.0903H0.362946L0.36296 30.7158C0.362966 31.1617 0.805065 31.4335 1.25097 31.4335Z" fill="#E4CF97"/>
<path d="M0.36296 20.0951C0.36296 20.0951 0.687902 19.5069 0.890575 19.1716C0.890575 19.1716 0.2081 18.3793 0.208099 17.7708C0.208099 17.1623 0.890575 16.3701 0.890575 16.3701C0.890575 16.3701 0.208099 15.5611 0.208099 14.9526C0.208099 14.3441 0.890575 13.5519 0.890575 13.5519C0.890575 13.5519 0.208099 12.7747 0.208099 12.1662C0.208099 11.5578 0.890575 10.7656 0.890575 10.7656C0.890575 10.7656 0.208099 9.94059 0.208099 9.33211C0.208099 9.09863 0.240987 8.89689 0.307462 8.71436H11.4471C11.5137 8.89655 11.5467 9.09787 11.5467 9.33079C11.5467 9.93927 10.8597 10.7642 10.8597 10.7642C10.8597 10.7642 11.5467 11.5564 11.5467 12.1649C11.5467 12.7734 10.8597 13.5506 10.8597 13.5506C10.8597 13.5506 11.5467 14.3428 11.5467 14.9513C11.5467 15.5598 10.8597 16.3688 10.8597 16.3688C10.8597 16.3688 11.5467 17.161 11.5467 17.7695C11.5467 18.378 10.8597 19.1702 10.8597 19.1702C11.0637 19.5055 11.3908 20.0937 11.3908 20.0937L11.3908 22.6153H8.73692C8.0271 21.8646 7.01363 21.3949 5.88851 21.3949C4.7634 21.3949 3.74992 21.8646 3.0401 22.6153H0.362951L0.36296 20.0951Z" fill="#E4CF97"/>
<path d="M0.890578 7.93146C1.91865 7.03723 3.45323 5.78038 3.45323 5.78038V4.14646H5.8686C5.8686 4.14646 7.33071 4.14514 8.28018 4.14514V5.77906C8.28018 5.77906 9.82485 7.03591 10.8597 7.93015C11.1449 8.17662 11.3398 8.42064 11.4471 8.7144H0.307465C0.414231 8.42122 0.607638 8.17757 0.890578 7.93146Z" fill="#EBF7FE"/>
<path d="M8.45312 0.566284C8.581 0.749754 8.65814 0.975254 8.6582 1.22061V3.33888L8.65234 3.47365C8.62816 3.72147 8.53725 3.94778 8.40039 4.13481C8.36107 4.14042 8.32116 4.14555 8.28027 4.14555C7.72608 4.14555 6.99713 4.14518 6.48633 4.14555C6.62781 3.9564 6.72239 3.72643 6.74707 3.47365L6.75293 3.33888V1.22061C6.75287 0.97562 6.67624 0.750428 6.54883 0.567261C7.11032 0.566883 7.90168 0.566279 8.45312 0.566284Z" fill="#E2A75C"/>
<path d="M8.28027 4.27739C8.15944 4.40095 8.01544 4.49986 7.85547 4.56547V5.58305C7.87906 5.60329 7.90583 5.62659 7.93359 5.65043C8.08775 5.78283 8.30442 5.96912 8.55078 6.18266C9.04372 6.60994 9.66322 7.15126 10.1611 7.60258C10.4092 7.82748 10.6199 8.07361 10.7646 8.37211C10.8182 8.4827 10.8609 8.59674 10.8936 8.71489H8.98828C8.95567 8.59676 8.91297 8.48272 8.85938 8.37211C8.71459 8.0735 8.504 7.82755 8.25586 7.60258C7.75786 7.15118 7.13847 6.60996 6.64551 6.18266C6.39902 5.96901 6.18248 5.78283 6.02832 5.65043C6.00047 5.62652 5.97385 5.60334 5.9502 5.58305V4.56547C6.16335 4.47809 6.34742 4.33126 6.48633 4.14555C6.99713 4.14518 7.72608 4.14555 8.28027 4.14555V4.27739Z" fill="#CBD9EB"/>
<path d="M8.92188 22.8271C9.45569 23.4811 9.77539 24.3113 9.77539 25.2148C9.77529 26.1179 9.45528 26.9468 8.92188 27.6006V22.8271Z" fill="#ACDF8E"/>
<path d="M10.8271 28.0898H8.92188V27.6006C9.45528 26.9468 9.77528 26.1179 9.77539 25.2148C9.77539 24.3113 9.45568 23.4811 8.92188 22.8271V22.6152H10.8271V28.0898Z" fill="#67429B"/>
<path d="M10.8936 8.71387C10.9504 8.91958 10.9765 9.13816 10.9766 9.37207C10.9764 9.82144 10.7495 10.2816 10.582 10.5703C10.5327 10.6554 10.4819 10.7334 10.4365 10.8027C10.4812 10.8688 10.5298 10.9435 10.5781 11.0244C10.7469 11.307 10.9766 11.7607 10.9766 12.2129C10.9763 12.6662 10.7455 13.1149 10.5762 13.3945C10.5304 13.47 10.485 13.5401 10.4424 13.6025C10.4855 13.6666 10.5318 13.7398 10.5781 13.8174C10.7468 14.1 10.9764 14.553 10.9766 15.0049C10.9764 15.4555 10.7481 15.9116 10.5801 16.1973C10.5318 16.2793 10.4821 16.3548 10.4375 16.4219C10.4818 16.4875 10.5302 16.5624 10.5781 16.6426C10.7469 16.9252 10.9766 17.3781 10.9766 17.8301C10.9762 18.282 10.7468 18.7342 10.5781 19.0166C10.5218 19.1108 10.4646 19.1959 10.4141 19.2695C10.4732 19.3763 10.5345 19.4851 10.5869 19.582C10.6385 19.6773 10.6842 19.7642 10.7168 19.8252C10.7328 19.8551 10.7469 19.8796 10.7559 19.8965C10.7602 19.9047 10.7642 19.9125 10.7666 19.917C10.7675 19.9187 10.7689 19.9208 10.7695 19.9219V19.9229C10.8075 19.9946 10.8271 20.0771 10.8271 20.1592V22.6152H8.92188V20.1592C8.92188 20.077 8.90232 19.9947 8.86426 19.9229V19.9219C8.86365 19.9208 8.8623 19.9188 8.86133 19.917C8.85894 19.9125 8.85502 19.9048 8.85059 19.8965C8.84159 19.8796 8.82758 19.8552 8.81152 19.8252C8.7789 19.7642 8.73325 19.6774 8.68164 19.582C8.62915 19.4851 8.56794 19.3764 8.50879 19.2695C8.5593 19.196 8.61662 19.1107 8.67285 19.0166C8.8415 18.7342 9.07093 18.282 9.07129 17.8301C9.07129 17.3779 8.84162 16.9252 8.67285 16.6426C8.62489 16.5623 8.57659 16.4876 8.53223 16.4219C8.57675 16.3548 8.62661 16.2792 8.6748 16.1973C8.84284 15.9116 9.07108 15.4555 9.07129 15.0049C9.07117 14.5528 8.84158 14.0999 8.67285 13.8174C8.62642 13.7397 8.58025 13.6667 8.53711 13.6025C8.57966 13.5401 8.62522 13.4699 8.6709 13.3945C8.84021 13.1149 9.07102 12.6662 9.07129 12.2129C9.07129 11.7606 8.84164 11.307 8.67285 11.0244C8.62446 10.9434 8.57594 10.8689 8.53125 10.8027C8.57661 10.7335 8.62745 10.6553 8.67676 10.5703C8.84419 10.2816 9.07108 9.82144 9.07129 9.37207C9.07127 9.13809 9.04516 8.91956 8.98828 8.71387H10.8936Z" fill="#D6A55B"/>
<path d="M10.8271 28.0898V30.8027L10.8184 30.9492C10.7962 31.1276 10.7333 31.2856 10.6465 31.4209C10.5971 31.4275 10.5472 31.4326 10.4971 31.4326H8.7334C8.82428 31.2948 8.89023 31.1328 8.91309 30.9492L8.92188 30.8027V28.0898H10.8271Z" fill="#D6A55B"/>
<path d="M10.6838 30.7926C10.6838 30.2545 10.6838 29.5002 10.6838 28.6392H8.4968C7.78168 29.2328 6.8737 29.5881 5.88773 29.5881C4.90198 29.588 3.99458 29.2327 3.27956 28.6392H1.06919C1.06919 29.5008 1.06918 30.2552 1.06919 30.7936C1.06919 30.839 1.08555 30.8845 1.14839 30.9337C1.21875 30.9887 1.33151 31.0303 1.45708 31.0303C2.31475 31.0303 3.41284 31.0297 4.29655 31.0294H10.2905L10.3841 31.0218C10.4735 31.0073 10.551 30.9725 10.6046 30.9309C10.6683 30.8813 10.6837 30.8366 10.6838 30.7926ZM1.71358 25.2633C1.71358 24.4894 1.91033 23.7633 2.25357 23.1354H1.06919C1.06918 24.5211 1.06919 26.183 1.06919 27.6695H2.41917C1.97408 26.9823 1.7136 26.1547 1.71358 25.2633ZM6.44212 25.7254C6.44211 25.6115 6.40573 25.4607 6.32422 25.2794C6.2444 25.1018 6.13381 24.9211 6.01553 24.7547C5.96456 24.6831 5.91234 24.6166 5.86343 24.5549C5.81391 24.6168 5.76205 24.6846 5.71043 24.7566C5.59111 24.9231 5.47945 25.1037 5.39904 25.2813C5.31692 25.4625 5.28025 25.6123 5.28024 25.7254C5.28024 25.9692 5.3551 26.134 5.44853 26.2358C5.54136 26.3368 5.68037 26.4059 5.86523 26.4091C6.04555 26.406 6.18252 26.3377 6.27472 26.2367C6.36757 26.1349 6.44212 25.9697 6.44212 25.7254ZM10.8332 9.29546C10.8332 9.05318 10.7915 8.87869 10.7207 8.73201C10.6477 8.58118 10.5293 8.43018 10.3364 8.25474C9.84598 7.80885 9.23259 7.27049 8.7407 6.8428C8.49516 6.62932 8.28025 6.44366 8.1269 6.31155C8.05029 6.24556 7.98898 6.19238 7.9469 6.15625C7.92599 6.13829 7.90922 6.12489 7.89831 6.11553C7.89315 6.11111 7.88935 6.10747 7.88661 6.10511C7.88524 6.10394 7.8837 6.10287 7.88301 6.10227L7.88211 6.10133C7.77465 6.00933 7.71211 5.87112 7.71201 5.72538V4.56724C7.36574 4.56736 6.99727 4.56796 6.68152 4.56818H4.02205V5.72633L4.01035 5.83333C3.9879 5.93764 3.93297 6.03228 3.85285 6.10133L3.84925 6.10511C3.84649 6.1075 3.8421 6.11083 3.83665 6.11553C3.82576 6.12493 3.80985 6.13914 3.78895 6.1572C3.74716 6.19332 3.68596 6.24557 3.60986 6.31155C3.45747 6.44369 3.24368 6.62925 2.99966 6.8428C2.51106 7.27042 1.90281 7.80891 1.41568 8.25474C1.22396 8.43021 1.10662 8.58184 1.03409 8.73296C0.963575 8.8799 0.921589 9.0546 0.921589 9.29735C0.921773 9.45882 1.02146 9.71883 1.18079 9.99621C1.25323 10.1223 1.3272 10.2327 1.38238 10.3116C1.40966 10.3505 1.43202 10.3812 1.44718 10.4015C1.45477 10.4117 1.46071 10.4196 1.46428 10.4242L1.46788 10.429L1.51468 10.5009C1.60793 10.6758 1.58942 10.8964 1.46158 11.053L1.46248 11.054L1.45798 11.0587C1.45449 11.0631 1.44923 11.0709 1.44178 11.0805C1.42676 11.0999 1.40406 11.1294 1.37698 11.1667C1.32228 11.2421 1.24978 11.3476 1.17809 11.4688C1.01993 11.7361 0.921672 11.9869 0.921589 12.1458C0.921589 12.3035 1.01868 12.5507 1.17629 12.8134C1.24781 12.9327 1.32066 13.036 1.37518 13.1098C1.40219 13.1464 1.42416 13.1752 1.43908 13.1941C1.44647 13.2035 1.45183 13.2107 1.45528 13.215C1.45676 13.2168 1.45823 13.218 1.45888 13.2188C1.61036 13.4003 1.6111 13.671 1.46158 13.8542V13.8551C1.46097 13.8559 1.45972 13.8577 1.45798 13.8598C1.45453 13.8642 1.4491 13.8713 1.44178 13.8807C1.42678 13.9 1.40411 13.9295 1.37698 13.9669C1.32224 14.0423 1.24991 14.1485 1.17809 14.2699C1.01992 14.5373 0.921663 14.7881 0.921589 14.947C0.921589 15.1072 1.02102 15.3627 1.17989 15.6354C1.25204 15.7593 1.32471 15.8679 1.37968 15.9451C1.40692 15.9833 1.42939 16.0133 1.44448 16.0331C1.45202 16.043 1.45806 16.0504 1.46158 16.0549L1.46518 16.0597L1.51288 16.1316C1.6082 16.3069 1.59047 16.5297 1.46158 16.6875V16.6884C1.46096 16.6892 1.4597 16.691 1.45798 16.6932C1.45451 16.6975 1.44908 16.7046 1.44178 16.714C1.42676 16.7334 1.40415 16.7628 1.37698 16.8002C1.32223 16.8756 1.24992 16.9818 1.17809 17.1032C1.01989 17.3707 0.921589 17.6214 0.921589 17.7803C0.921603 17.9392 1.0199 18.1899 1.17809 18.4574C1.24992 18.5788 1.32223 18.685 1.37698 18.7604C1.40416 18.7979 1.42676 18.8272 1.44178 18.8466C1.44908 18.856 1.4545 18.8631 1.45798 18.8674C1.45968 18.8696 1.46096 18.8714 1.46158 18.8722C1.59165 19.031 1.61056 19.2599 1.50748 19.4394C1.41457 19.6011 1.29135 19.8276 1.18979 20.017C1.14277 20.1048 1.10043 20.1834 1.06919 20.2424V22.1657H2.97446C3.72702 21.4061 4.75571 20.9385 5.88773 20.9384C7.01972 20.9384 8.04841 21.4062 8.80099 22.1657H10.6838V20.2405C10.6524 20.1817 10.61 20.1039 10.5632 20.017C10.461 19.8276 10.3372 19.6011 10.2437 19.4394C10.1395 19.2593 10.1583 19.0286 10.2896 18.8693L10.2932 18.8646C10.2967 18.8602 10.3021 18.8531 10.3094 18.8438C10.3245 18.8244 10.3477 18.795 10.3751 18.7576C10.4302 18.6821 10.5026 18.5759 10.5749 18.4545C10.7341 18.1872 10.833 17.9373 10.8332 17.7794C10.8332 17.6214 10.7342 17.3709 10.5749 17.1032C10.5026 16.9818 10.4302 16.8756 10.3751 16.8002C10.3477 16.7627 10.3245 16.7334 10.3094 16.714C10.302 16.7046 10.2967 16.6975 10.2932 16.6932L10.2896 16.6884C10.1406 16.5076 10.1388 16.2393 10.286 16.0568C10.2866 16.056 10.2879 16.0543 10.2896 16.0521C10.2931 16.0476 10.2991 16.0402 10.3067 16.0303C10.3219 16.0104 10.3449 15.9806 10.3724 15.9422C10.4277 15.8651 10.5014 15.7573 10.574 15.6335C10.734 15.3607 10.8331 15.1053 10.8332 14.946C10.8332 14.7881 10.7343 14.5375 10.5749 14.2699C10.5026 14.1485 10.4302 14.0423 10.3751 13.9669C10.3477 13.9294 10.3245 13.9 10.3094 13.8807C10.302 13.8713 10.2966 13.8642 10.2932 13.8598C10.2914 13.8577 10.2902 13.8559 10.2896 13.8551C10.1383 13.6716 10.1394 13.3989 10.2923 13.2169C10.2929 13.2161 10.2941 13.2142 10.2959 13.2121C10.2994 13.2079 10.3047 13.2006 10.3121 13.1913C10.3271 13.1724 10.3497 13.1436 10.3769 13.107C10.4318 13.0331 10.5047 12.9298 10.5767 12.8106C10.7354 12.5477 10.8331 12.3017 10.8332 12.1449C10.8332 11.9869 10.7343 11.7364 10.5749 11.4688C10.5026 11.3474 10.4302 11.2411 10.3751 11.1657C10.3477 11.1283 10.3245 11.0989 10.3094 11.0795C10.302 11.0701 10.2966 11.063 10.2932 11.0587C10.2914 11.0565 10.2902 11.0547 10.2896 11.054C10.1417 10.8745 10.1388 10.6087 10.2833 10.4261L10.2869 10.4214C10.2905 10.4167 10.2963 10.4089 10.304 10.3987C10.3193 10.3783 10.3421 10.3478 10.3697 10.3087C10.4252 10.2299 10.4993 10.1195 10.5722 9.99337C10.7328 9.71559 10.8332 9.45597 10.8332 9.29546ZM7.36371 25.7254C7.36371 26.1887 7.21661 26.605 6.93892 26.9091C6.6613 27.2131 6.28068 27.3751 5.87063 27.3797H5.86073C5.44859 27.3752 5.06564 27.2141 4.78614 26.91C4.5066 26.6058 4.35865 26.1891 4.35865 25.7254C4.35866 25.4136 4.45256 25.1153 4.56655 24.8636C4.68225 24.6082 4.83207 24.3707 4.97424 24.1723C5.11735 23.9727 5.25984 23.8037 5.36574 23.6847C5.41882 23.625 5.46335 23.5771 5.49533 23.5436C5.51136 23.5268 5.52481 23.5132 5.53403 23.5038C5.53841 23.4993 5.54219 23.496 5.54483 23.4934L5.54933 23.4886V23.4877H5.55023C5.72799 23.3121 6.00486 23.3124 6.18203 23.4886L5.86523 23.8409L6.18293 23.4896L6.19823 23.5057C6.20732 23.515 6.22028 23.5279 6.23603 23.5445C6.26778 23.578 6.31287 23.6258 6.36562 23.6856C6.47071 23.8047 6.61153 23.9746 6.75352 24.1742C6.89455 24.3726 7.04291 24.6103 7.15761 24.8655C7.27062 25.1171 7.3637 25.4145 7.36371 25.7254ZM2.63517 25.2633C2.6352 26.2674 3.062 27.1702 3.74396 27.7869C4.31593 28.3042 5.06539 28.6183 5.88773 28.6184C6.71004 28.6184 7.45951 28.3041 8.0315 27.7869C8.71346 27.1702 9.14116 26.2674 9.14119 25.2633C9.14119 24.384 8.81332 23.5836 8.2745 22.9839C7.68067 22.3231 6.83213 21.9081 5.88773 21.9081C4.94342 21.9082 4.09474 22.3231 3.50096 22.9839C2.96227 23.5836 2.63517 24.3841 2.63517 25.2633ZM10.0628 25.2633C10.0628 26.1546 9.80219 26.9823 9.35719 27.6695H10.6838C10.6838 26.1832 10.6838 24.5212 10.6838 23.1354H9.52189C9.8652 23.7634 10.0628 24.4893 10.0628 25.2633ZM8.5148 1.11837C8.51464 1.03923 8.45217 0.969701 8.369 0.969697C7.92196 0.969677 7.29724 0.970307 6.78412 0.970644H3.36596C3.28781 0.970745 3.22466 1.03807 3.22466 1.12027V3.24432L3.23096 3.31629C3.26242 3.47765 3.3986 3.59849 3.56126 3.59849H6.68062C7.14317 3.59815 7.71914 3.59754 8.1728 3.59754C8.3645 3.59754 8.51476 3.43602 8.5148 3.24337V1.11837ZM9.43639 3.24337L9.43009 3.37879C9.38142 3.88163 9.06407 4.29741 8.6336 4.47443V5.49432C8.6573 5.51471 8.68307 5.53749 8.711 5.56155C8.86521 5.6944 9.08154 5.88102 9.32839 6.09564C9.82149 6.52438 10.4403 7.06788 10.9385 7.52083C11.1868 7.74661 11.3975 7.99289 11.5424 8.29261C11.6893 8.59664 11.7547 8.92615 11.7548 9.29546C11.7548 9.74641 11.5272 10.2074 11.3597 10.4972C11.3101 10.5828 11.2594 10.6614 11.2139 10.7311C11.2586 10.7975 11.3076 10.8722 11.3561 10.9536C11.5249 11.2371 11.7548 11.6912 11.7548 12.1449C11.7547 12.5998 11.5237 13.0499 11.3543 13.3305C11.3084 13.4065 11.2629 13.4769 11.2202 13.5398C11.2634 13.6042 11.3096 13.6766 11.3561 13.7547C11.5249 14.0382 11.7548 14.4923 11.7548 14.946C11.7547 15.3982 11.526 15.8554 11.3579 16.142C11.3095 16.2244 11.2603 16.3 11.2157 16.3674C11.26 16.4334 11.3081 16.5075 11.3561 16.5881C11.5249 16.8715 11.7548 17.3256 11.7548 17.7794C11.7546 18.2329 11.5248 18.6863 11.3561 18.9697C11.2995 19.0647 11.2421 19.1503 11.1914 19.2244C11.2507 19.3319 11.3125 19.4404 11.3651 19.5379C11.4167 19.6336 11.462 19.7191 11.4947 19.7803C11.511 19.811 11.5243 19.8362 11.5334 19.8532C11.5379 19.8617 11.5418 19.8686 11.5442 19.8731C11.5453 19.8752 11.5463 19.8767 11.5469 19.8778L11.5478 19.8797C11.5858 19.9518 11.6054 20.0331 11.6054 20.1155V30.7926L11.5964 30.9394C11.5551 31.2734 11.3765 31.5371 11.1527 31.7112C10.9353 31.8802 10.6688 31.9736 10.4039 31.9943L10.2905 31.9991H4.29745C3.41367 31.9994 2.31503 32 1.45708 32C1.15684 32 0.845787 31.9047 0.598493 31.7112C0.343626 31.5117 0.147603 31.1964 0.147598 30.7936V20.1165C0.147656 20.0347 0.167648 19.9542 0.205198 19.8826L0.206098 19.8816V19.8807C0.206718 19.8795 0.207608 19.8773 0.208797 19.875C0.211152 19.8705 0.215207 19.8644 0.219597 19.8561C0.228587 19.839 0.241187 19.8138 0.257397 19.7831C0.289825 19.7219 0.335591 19.6366 0.386995 19.5407C0.439413 19.4429 0.499769 19.3332 0.558893 19.2254C0.508405 19.1512 0.452261 19.0648 0.395995 18.9697C0.228204 18.686 1.13033e-05 18.2331 0 17.7803C-1.09858e-07 17.3275 0.228198 16.8746 0.395995 16.5909C0.443947 16.5099 0.491177 16.4346 0.535494 16.3684C0.491031 16.3008 0.44236 16.2247 0.394195 16.142C0.22707 15.8552 0 15.3984 0 14.947C6.01619e-05 14.4942 0.228218 14.0412 0.395995 13.7576C0.442356 13.6792 0.487934 13.6063 0.530994 13.5417C0.488271 13.4785 0.44281 13.407 0.396895 13.3305C0.22849 13.0497 0 12.5997 0 12.1458C6.79129e-05 11.6931 0.228221 11.2401 0.395995 10.9564C0.444218 10.8749 0.49187 10.7995 0.536394 10.733C0.490988 10.663 0.441806 10.5832 0.392395 10.4972C0.225932 10.2073 0.000148653 9.74728 0 9.29735C0 8.92854 0.0648407 8.5992 0.210597 8.29546C0.354404 7.99586 0.56314 7.74867 0.80999 7.52273C1.30505 7.06963 1.9211 6.52635 2.41107 6.09754C2.65626 5.88295 2.87081 5.69626 3.02396 5.56345C3.0515 5.53957 3.07706 5.51743 3.10046 5.49716V4.47538C2.63374 4.28177 2.30307 3.80419 2.30307 3.24432V1.12027C2.30307 0.541172 2.72116 0.0650618 3.25706 0.00757622L3.36596 0.000947435H6.78322C7.29636 0.000609915 7.92159 -1.95296e-05 8.369 4.65188e-07C8.95538 2.69904e-05 9.43623 0.497674 9.43639 1.11837V3.24337Z" fill="#3F0F33"/>
</svg>
