<svg width="14" height="32" viewBox="0 0 14 32" fill="none" xmlns="http://www.w3.org/2000/svg">
<path d="M0.709256 8.09349C0.709256 8.09349 4.45666 8.68185 6.81888 8.68744C9.28958 8.69329 13.0676 8.09349 13.0676 8.09349C13.0676 8.09349 9.232 7.41945 6.81888 7.41945C4.40577 7.41945 0.709256 8.09349 0.709256 8.09349Z" fill="#D8C253"/>
<path d="M1.81751 16.2784C1.58713 17.1025 0.981224 17.4632 1.00699 18.3199C1.00699 18.3199 4.52661 18.9182 6.88137 18.9182C9.23614 18.9182 12.7558 18.3198 12.7558 18.3198C12.7827 17.4632 12.1481 17.1024 11.9069 16.2783C11.6461 15.3879 11.5096 14.868 11.5162 13.9424C11.522 13.128 11.4152 12.5987 11.8464 11.8711C11.8464 11.8711 8.89481 12.6163 6.86082 12.6163C4.82682 12.6163 1.87518 11.8711 1.87518 11.8711C2.28689 12.5988 2.18494 13.128 2.1905 13.9425C2.19682 14.868 2.06644 15.3879 1.81751 16.2784Z" fill="#9BEF84"/>
<path d="M1.67078 30.1947C1.79707 31.7877 5.38246 31.5684 7.13212 31.5227C9.02609 31.4732 12.5763 31.5062 12.6233 29.9087C12.7188 26.6638 12.6982 22.5788 12.7221 18.1564C12.7221 18.1564 9.21926 18.8464 6.8653 18.9079C4.51134 18.9693 0.977299 18.463 0.977299 18.463C1.22558 22.8784 1.41426 26.959 1.67078 30.1947Z" fill="#F4E38E"/>
<path d="M0.687142 10.9671C0.7584 11.4973 1.39493 11.5244 1.67689 11.9938C1.67689 11.9938 4.64698 12.6618 6.68028 12.6087C8.71358 12.5556 11.6448 11.7335 11.6448 11.7335C11.9146 11.2498 12.579 11.1887 12.6252 10.6555C12.7154 9.61392 12.7327 8.8699 12.7669 7.92542C12.7669 7.92542 9.00583 8.62361 6.53583 8.68224C4.17426 8.7383 0.412781 8.24794 0.412781 8.24794C0.493581 9.18944 0.547959 9.93159 0.687142 10.9671Z" fill="#F4E38E"/>
<path d="M4.97973 0.849725C4.89825 1.59981 4.87185 2.59533 4.87185 2.59533C4.87185 2.59533 5.90392 2.82617 6.81889 2.82617C7.69867 2.82617 8.70786 2.5953 8.70786 2.5953C8.70786 2.5953 8.68022 1.59979 8.59488 0.849701C8.14008 0.528516 7.55542 0.431371 6.81889 0.438476C6.12703 0.44515 5.41397 0.52854 4.97973 0.849725Z" fill="#698FC5"/>
<path d="M1.40471 5.20848C0.726974 5.80692 0.601473 6.45647 0.66124 7.33559C0.679638 7.6062 0.695125 7.85625 0.709268 8.09363C0.709268 8.09363 4.40578 7.41959 6.8189 7.41959C9.23201 7.41959 13.0676 8.09363 13.0676 8.09363C13.0824 7.85624 13.0986 7.60619 13.1179 7.33557C13.1805 6.45644 13.0491 5.8069 12.3392 5.20845C10.9405 4.02921 8.70787 2.59537 8.70787 2.59537C8.70787 2.59537 7.69867 2.82624 6.8189 2.82624C5.90393 2.82624 4.87186 2.59539 4.87186 2.59539C4.87186 2.59539 2.74019 4.02923 1.40471 5.20848Z" fill="#EBF7FE"/>
<path d="M6.05157 15.4461C5.71102 16.4369 5.85921 17.4977 6.90627 17.532C7.96553 17.5666 8.21717 16.442 7.85456 15.4461C7.65931 14.9099 6.90627 13.8773 6.90627 13.8773C6.90627 13.8773 6.22961 14.9282 6.05157 15.4461Z" fill="#F1DA66"/>
<path d="M6.70396 0.536003C7.43683 0.529013 8.10631 0.622161 8.65123 1.00671L8.80553 1.1151L8.82603 1.3026C8.86835 1.67465 8.89595 2.10331 8.91295 2.43444C8.91996 2.57121 8.9248 2.69331 8.92857 2.78893C8.97841 2.82156 9.03847 2.86094 9.10533 2.90514C9.3286 3.05278 9.64031 3.26164 9.994 3.50573C10.6992 3.99245 11.5832 4.62749 12.2694 5.20592C12.6611 5.53614 12.9113 5.89958 13.0477 6.3153C13.1811 6.72219 13.1956 7.15151 13.1639 7.59655C13.1456 7.85383 13.1302 8.09276 13.1161 8.31921C13.06 9.21844 13.0239 9.94402 12.91 10.952C12.8578 11.4141 12.5242 11.6469 12.3192 11.7811C12.0769 11.9397 11.9605 12.0052 11.8876 12.1278C11.548 12.7009 11.6358 13.0529 11.6297 13.9022C11.6238 14.7272 11.7409 15.1792 11.9872 16.0204C12.0823 16.3452 12.2471 16.5639 12.4452 16.8846C12.6379 17.1968 12.8339 17.575 12.8172 18.1083C12.684 22.3376 12.6016 26.2633 12.4286 29.3768C12.3969 29.9469 12.0452 30.3363 11.6073 30.5848C11.1812 30.8265 10.6309 30.9635 10.0692 31.0467C8.94266 31.2136 7.59738 31.1825 6.70787 31.1825C6.42336 31.1825 6.07859 31.1844 5.70299 31.1825C6.44798 31.1793 7.29556 31.1578 8.04576 31.0467C8.60734 30.9635 9.15782 30.8265 9.58385 30.5848C10.0216 30.3363 10.3735 29.9468 10.4051 29.3768C10.5781 26.2634 10.6606 22.3376 10.7938 18.1083C10.8104 17.575 10.6145 17.1968 10.4217 16.8846C10.2236 16.5638 10.0588 16.3452 9.96373 16.0204C9.71744 15.1792 9.60041 14.7272 9.60631 13.9022C9.61233 13.0529 9.5246 12.7009 9.86412 12.1278C9.93706 12.0053 10.0536 11.9397 10.2958 11.7811C10.5008 11.6468 10.8344 11.4139 10.8866 10.952C11.0005 9.94404 11.0365 9.21843 11.0926 8.31921C11.1068 8.09277 11.1222 7.85382 11.1405 7.59655C11.1721 7.15152 11.1576 6.72218 11.0243 6.3153C10.8879 5.89955 10.6377 5.53616 10.246 5.20592C9.55979 4.62746 8.67586 3.99248 7.97057 3.50573C7.61683 3.26161 7.3052 3.0528 7.08189 2.90514C7.015 2.86091 6.955 2.82158 6.90514 2.78893C6.90137 2.69331 6.89653 2.57122 6.88951 2.43444C6.87251 2.10331 6.84491 1.67466 6.8026 1.3026L6.78209 1.1151L6.62779 1.00671C6.34751 0.808874 6.03396 0.688634 5.69615 0.619011C6.02438 0.559335 6.37404 0.539185 6.70396 0.536003Z" fill="#3F0F33"/>
<path d="M6.75658 0.000375257C7.52186 -0.00693205 8.22068 0.0902105 8.78966 0.491822L8.95076 0.604997L8.97217 0.80076C9.01637 1.18939 9.04517 1.63669 9.06291 1.98248C9.07025 2.12551 9.07529 2.25268 9.07923 2.35259C9.1313 2.38668 9.1939 2.42772 9.26377 2.47392C9.49692 2.62809 9.82226 2.84607 10.1916 3.10098C10.928 3.60919 11.8509 4.27212 12.5673 4.8761C12.9763 5.22097 13.2375 5.60015 13.3799 6.03436C13.5192 6.45933 13.5343 6.90724 13.5012 7.37207C13.4821 7.64088 13.466 7.89001 13.4513 8.12658C13.3927 9.06559 13.3551 9.82273 13.2361 10.8754C13.1816 11.3581 12.8333 11.6009 12.6193 11.7411C12.3661 11.9068 12.2447 11.9748 12.1686 12.103C11.8141 12.7014 11.9058 13.0685 11.8994 13.9556C11.8933 14.8171 12.0154 15.2886 12.2726 16.1671C12.3719 16.5063 12.5439 16.7344 12.7508 17.0695C12.9521 17.3955 13.1567 17.79 13.1393 18.347C13.0001 22.763 12.9141 26.8614 12.7335 30.1122C12.7004 30.7075 12.3333 31.1139 11.876 31.3734C11.4311 31.6258 10.8566 31.7688 10.2701 31.8557C9.0939 32.0299 7.68937 31.9974 6.76066 31.9974C5.90399 31.9974 4.52469 32.0309 3.35622 31.8567C2.7738 31.7699 2.19907 31.6254 1.75341 31.3734C1.29632 31.1148 0.924574 30.7086 0.89287 30.1112C0.720414 26.8608 0.638265 22.7632 0.505423 18.347C0.488832 17.7955 0.682889 17.4033 0.875537 17.0766C1.07243 16.7427 1.23796 16.5133 1.33334 16.1722C1.57892 15.2937 1.69507 14.8198 1.68918 13.9556C1.68315 13.071 1.77155 12.6977 1.43122 12.0959C1.35893 11.9682 1.24513 11.902 1.00299 11.736C0.793739 11.5925 0.465171 11.3496 0.413659 10.8744C0.300081 9.82197 0.264688 9.06497 0.20872 8.12556C0.194623 7.88897 0.179075 7.63991 0.160799 7.37105C0.129285 6.90751 0.142968 6.4625 0.274994 6.04048C0.410037 5.60897 0.659292 5.22993 1.05193 4.88323C1.73639 4.27888 2.61736 3.61538 3.32053 3.10709C3.6736 2.85189 3.98484 2.63328 4.20759 2.47902C4.27338 2.43345 4.33162 2.39354 4.38092 2.35973C4.38469 2.25896 4.39008 2.12943 4.39723 1.98349C4.41417 1.63781 4.44176 1.19084 4.4839 0.802799L4.50429 0.612134L4.65927 0.49692C4.94982 0.282218 5.30807 0.163329 5.65949 0.0951979C6.0151 0.026302 6.397 0.003844 6.75658 0.000375257Z" fill="#3F0F33"/>
<path d="M6.89169 13.3777C7.05649 13.3729 7.21327 13.4498 7.31041 13.583L7.31296 13.5863C7.31457 13.5885 7.31673 13.5919 7.31966 13.5959C7.32564 13.6042 7.33488 13.6163 7.34582 13.6316C7.3677 13.6621 7.39851 13.7065 7.43639 13.7606C7.51215 13.8689 7.616 14.0193 7.72589 14.1873C7.93538 14.5077 8.20448 14.9454 8.32461 15.2753C8.53392 15.8504 8.58512 16.5074 8.38241 17.0501C8.27854 17.3281 8.10285 17.5869 7.83835 17.771C7.57139 17.9568 7.24713 18.0432 6.88984 18.0316C6.54169 18.0202 6.23056 17.9207 5.97852 17.727C5.72774 17.5342 5.57023 17.2747 5.48255 16.9998C5.31255 16.4664 5.3893 15.8357 5.5789 15.284C5.68641 14.9713 5.92549 14.5375 6.11413 14.2148C6.21257 14.0464 6.30502 13.8951 6.37284 13.7858C6.40676 13.7312 6.43497 13.6869 6.45452 13.6561C6.46431 13.6406 6.47233 13.6279 6.47766 13.6195C6.48018 13.6156 6.48229 13.6126 6.48368 13.6104C6.48438 13.6093 6.4846 13.6083 6.485 13.6076L6.48609 13.6068L6.56341 13.5129C6.6515 13.43 6.76805 13.3813 6.89169 13.3777ZM6.93218 14.8012C6.75521 15.1084 6.58909 15.4197 6.52421 15.6084C6.37338 16.0472 6.35479 16.4423 6.43539 16.6955C6.47301 16.8135 6.52681 16.8877 6.58738 16.9343C6.64694 16.9801 6.74741 17.0264 6.92275 17.0321C7.09502 17.0377 7.20042 16.9965 7.2672 16.95C7.33613 16.9019 7.39915 16.8232 7.44513 16.7002C7.54207 16.4406 7.53781 16.0379 7.38485 15.6176C7.31484 15.4253 7.13159 15.1104 6.93218 14.8012Z" fill="#3F0F33"/>
<path d="M6.44283 0.00414199C7.20751 -0.0208955 7.90815 0.0603026 8.48601 0.448678L8.64895 0.557486L8.67536 0.752598C8.72852 1.13992 8.76778 1.58626 8.7935 1.93135C8.80414 2.07421 8.81203 2.20101 8.81828 2.30077C8.87108 2.33363 8.93368 2.37249 9.00455 2.41703C9.24108 2.56567 9.57126 2.77623 9.94643 3.02253C10.6938 3.51323 11.6309 4.15428 12.3605 4.7411C12.7772 5.07616 13.0472 5.44836 13.1995 5.87883C13.3485 6.30016 13.3738 6.74703 13.3515 7.21217C13.3385 7.48145 13.3279 7.73094 13.3186 7.96785C13.2817 8.90737 13.2618 9.66423 13.1673 10.7188C13.124 11.2022 12.7821 11.4522 12.5715 11.5972C12.3219 11.7689 12.2023 11.8396 12.1292 11.9698C11.7889 12.5758 11.8891 12.94 11.9033 13.8264C11.917 14.6871 12.0496 15.1553 12.3268 16.0269C12.4339 16.3635 12.6112 16.5873 12.8256 16.9173C13.0343 17.2383 13.2483 17.6277 13.2436 18.1848C13.2067 22.5995 13.2152 26.6956 13.1098 29.9472C13.0906 30.5427 12.7338 30.9569 12.283 31.2267C11.8443 31.4892 11.2734 31.6455 10.6893 31.7459C9.51822 31.947 8.11435 31.9472 7.18661 31.9686C6.33073 31.9884 4.95372 32.0533 3.78235 31.9062C3.19828 31.8329 2.62102 31.7017 2.16992 31.4601C1.70732 31.2123 1.32722 30.8157 1.28174 30.2196C1.03433 26.9765 0.85768 22.885 0.622896 18.4765C0.593575 17.9259 0.778179 17.53 0.963075 17.1991C1.1521 16.8609 1.31168 16.6283 1.39909 16.2853C1.62421 15.4017 1.72983 14.9259 1.70396 14.0626C1.67747 13.1786 1.75689 12.8037 1.40268 12.2101C1.3275 12.0842 1.21269 12.0208 0.966845 11.8605C0.754455 11.722 0.420413 11.4872 0.358066 11.0135C0.220261 9.96462 0.167482 9.20943 0.0898402 8.2721C0.0702843 8.03602 0.0489044 7.78791 0.0244239 7.51966C-0.0177731 7.05731 -0.0143463 6.61258 0.107803 6.18793C0.232732 5.75375 0.47301 5.36978 0.857225 5.01436C1.52713 4.39468 2.39206 3.71127 3.08288 3.18717C3.42969 2.92406 3.73537 2.69878 3.95432 2.53953C4.01901 2.49249 4.0761 2.45106 4.12457 2.41614C4.12601 2.3153 4.12851 2.18571 4.13229 2.03959C4.14122 1.69386 4.1583 1.24709 4.19144 0.858466L4.20759 0.667529L4.35929 0.549194C4.6447 0.327791 5.0001 0.200876 5.3498 0.124669C5.70344 0.0476252 6.08371 0.0159184 6.44283 0.00414199ZM12.2973 18.7193C11.9293 18.7844 11.414 18.8718 10.8246 18.9608C9.65028 19.1381 8.16301 19.3252 6.95713 19.3531C5.7512 19.381 4.25653 19.2627 3.0752 19.1399C2.48214 19.0783 1.96309 19.0149 1.59239 18.9669C1.56887 18.9639 1.546 18.9605 1.52369 18.9576C1.74549 23.1765 1.91889 27.0523 2.15546 30.1532C2.17076 30.3536 2.28481 30.5286 2.58339 30.6885C2.89353 30.8546 3.34535 30.9683 3.8917 31.0369C4.98109 31.1736 6.27219 31.1132 7.16598 31.0925C8.13234 31.0702 9.45078 31.0703 10.541 30.883C11.0876 30.7891 11.5328 30.6542 11.8334 30.4743C12.1216 30.3018 12.2277 30.122 12.2342 29.9189C12.3349 26.8107 12.3315 22.9317 12.3639 18.707C12.3423 18.7108 12.32 18.7153 12.2973 18.7193ZM11.0539 12.3825C10.7873 12.4468 10.4679 12.5213 10.1168 12.5957C9.12329 12.8062 7.84926 13.0287 6.79049 13.0532C5.73163 13.0777 4.44821 12.9143 3.44596 12.75C3.0857 12.691 2.75857 12.6302 2.4865 12.5777C2.60245 13.0796 2.56512 13.5455 2.5798 14.0359C2.60938 15.0226 2.47907 15.5928 2.24772 16.5009C2.1239 16.987 1.87835 17.3563 1.72733 17.6265C1.63825 17.7859 1.57078 17.9265 1.53208 18.0749C1.58528 18.082 1.64304 18.0907 1.70507 18.0987C2.07024 18.146 2.58163 18.208 3.16582 18.2687C4.33927 18.3907 5.78832 18.5036 6.93651 18.477C8.08471 18.4505 9.52726 18.2706 10.6938 18.0945C11.2744 18.0068 11.7822 17.921 12.1447 17.8569C12.2048 17.8463 12.261 17.8355 12.3128 17.8261C12.2657 17.6835 12.1911 17.548 12.0912 17.3944C11.921 17.1326 11.6461 16.7741 11.4929 16.2923C11.2077 15.3957 11.0428 14.8302 11.027 13.8401C11.0192 13.3534 10.9578 12.8894 11.0539 12.3825ZM12.3262 8.49018C11.9323 8.5558 11.3814 8.64408 10.7527 8.73374C9.49974 8.9124 7.91934 9.10067 6.65656 9.1269C5.44869 9.15198 3.89703 9.03644 2.65914 8.91694C2.03763 8.85694 1.49035 8.7949 1.09855 8.74837C1.06694 8.74461 1.03641 8.74035 1.00686 8.7368C1.06468 9.44443 1.11818 10.0773 1.22616 10.8993C1.23358 10.9556 1.25215 11.001 1.44533 11.127C1.5765 11.2126 1.83062 11.3541 2.03143 11.5919C2.11318 11.6095 2.22511 11.6337 2.36154 11.6613C2.66751 11.7231 3.09678 11.8059 3.58826 11.8865C4.57833 12.0488 5.79618 12.2006 6.77063 12.178C7.74504 12.1554 8.95391 11.9469 9.9353 11.739C10.4227 11.6358 10.8479 11.5338 11.1507 11.4578C11.2871 11.4235 11.3985 11.3945 11.4796 11.3731C11.6783 11.1224 11.9403 10.9682 12.075 10.8755C12.2761 10.7371 12.2904 10.6905 12.2948 10.6409C12.3688 9.81615 12.3937 9.18229 12.4207 8.47366C12.3902 8.47877 12.3588 8.48474 12.3262 8.49018ZM9.62477 8.00083C8.60218 7.90675 7.5115 7.83851 6.62797 7.85895C5.75785 7.87912 4.7102 7.99377 3.73058 8.13164C4.72295 8.21103 5.77923 8.26889 6.63849 8.25105C7.53675 8.23239 8.61722 8.12662 9.62477 8.00083ZM7.86264 3.11462C7.49202 3.18249 6.99532 3.2558 6.52241 3.26676C6.03299 3.27809 5.51979 3.22843 5.13619 3.17804C4.94376 3.15276 4.78038 3.12664 4.66445 3.10683C4.61164 3.14481 4.54577 3.19193 4.4693 3.24755C4.25406 3.4041 3.95373 3.62585 3.61265 3.8846C2.92761 4.40431 2.08952 5.06707 1.45166 5.65712C1.17231 5.91553 1.02582 6.16484 0.949589 6.42952C0.870688 6.70373 0.858233 7.02439 0.896076 7.4393C0.90458 7.53248 0.911374 7.6237 0.919143 7.7123C0.962707 7.70398 1.00891 7.69548 1.05749 7.68633C1.44298 7.61374 1.98214 7.51627 2.59742 7.41713C3.8227 7.21971 5.3706 7.01157 6.60819 6.98293C7.84522 6.95432 9.43553 7.08942 10.7026 7.22905C11.3387 7.29916 11.8988 7.37097 12.3 7.4253C12.3578 7.43313 12.4128 7.44033 12.4638 7.44738C12.4677 7.35734 12.4718 7.26493 12.4763 7.17015C12.4962 6.75506 12.4686 6.43819 12.3741 6.17087C12.2828 5.91282 12.1181 5.67046 11.8114 5.42379C11.1155 4.86413 10.2069 4.24167 9.46548 3.75489C9.09615 3.51242 8.77091 3.30482 8.53817 3.15855C8.4516 3.10414 8.37788 3.05816 8.31951 3.02193C8.20731 3.04704 8.0491 3.08047 7.86264 3.11462ZM7.83099 1.08059C7.50257 0.919933 7.07174 0.859619 6.47129 0.879296C6.13911 0.890188 5.81775 0.919721 5.53652 0.980971C5.34033 1.02373 5.17832 1.08033 5.05016 1.14641C5.02935 1.45544 5.01464 1.78751 5.00754 2.06272C5.0056 2.13757 5.00457 2.2079 5.00333 2.27202C5.07723 2.28331 5.15982 2.29812 5.24972 2.30994C5.61333 2.35771 6.07657 2.40049 6.50178 2.39066C6.90833 2.38125 7.35377 2.31769 7.70475 2.25341C7.78798 2.23817 7.86457 2.22039 7.9337 2.20626C7.92936 2.14195 7.92555 2.07121 7.91994 1.99606C7.89941 1.72059 7.86753 1.38881 7.83099 1.08059Z" fill="#3F0F33"/>
</svg>
