<svg width="25" height="32" viewBox="0 0 25 32" fill="none" xmlns="http://www.w3.org/2000/svg">
<path d="M5.35176 25.1683C5.30595 26.1254 5.6054 27.2465 6.33302 28.0249C6.33302 28.0249 7.49219 28.4413 9.99716 26.813C9.12545 26.1607 8.25431 25.3922 7.44427 24.5303C6.12728 25.1878 5.35176 25.1683 5.35176 25.1683Z" fill="#83CC88"/>
<path d="M7.78555 10.4716C6.89796 10.1106 5.74098 10.0209 4.76524 10.4488C4.76524 10.4488 2.96393 12.6614 7.32736 20.5876C11.4187 28.0196 17.8224 27.7638 17.8224 27.7638C18.1485 27.368 18.3538 26.7867 18.4316 26.1701C18.4316 26.1701 13.8326 25.2134 9.95482 18.5983C6.76433 13.1557 7.78555 10.4716 7.78555 10.4716Z" fill="#83CC88"/>
<path d="M18.3312 9.95985C17.8495 9.78369 17.2331 9.78307 16.6256 9.91439C16.6256 9.91439 17.1386 13.7399 13.5457 18.8158C14.299 19.8019 14.9557 20.5573 15.7485 21.4072C20.4941 15.4015 18.3312 9.95985 18.3312 9.95985Z" fill="#83CC88"/>
<path d="M6.33302 28.0249C7.36141 29.1249 9.14768 29.5915 10.0991 29.1068C10.7084 28.7964 11.3235 28.4568 11.937 28.0768C11.3072 27.7275 10.652 27.3031 9.99716 26.8131C7.49219 28.4413 6.33302 28.0249 6.33302 28.0249Z" fill="#A8E3AC"/>
<path d="M14.1963 29.0331C15.6074 29.4085 16.8244 28.9756 17.8224 27.7639C17.8224 27.7639 11.4187 28.0196 7.32736 20.5877C2.96392 12.6614 4.76523 10.4489 4.76523 10.4489C3.38617 11.0537 2.35301 12.5838 2.49441 13.6422C2.86068 16.3837 3.64543 19.3748 5.71335 22.3893C5.88003 22.6323 6.05317 22.8708 6.23188 23.1043C6.61351 23.603 7.02053 24.0795 7.44427 24.5304C8.25431 25.3923 9.12545 26.1607 9.99716 26.8131C10.652 27.3031 11.3072 27.7275 11.937 28.0768C12.7509 28.5281 13.5224 28.8538 14.1963 29.0331Z" fill="#A8E3AC"/>
<path d="M8.95206 11.3004C8.704 10.9671 8.28793 10.6759 7.78555 10.4716C7.78555 10.4716 6.76433 13.1557 9.95482 18.5983C13.8326 25.2134 18.4316 26.1701 18.4316 26.1701C18.5543 25.1974 18.3599 24.1366 17.8224 23.5771C17.6566 23.4044 17.4975 23.239 17.3444 23.0799L17.2526 22.9845C16.681 22.3907 16.1933 21.8841 15.7485 21.4072C14.9557 20.5573 14.299 19.802 13.5457 18.8159C13.2832 18.4722 13.0089 18.1006 12.7131 17.6871C12.3396 17.1652 12.0401 16.686 11.7795 16.2285C10.8646 14.6228 10.4283 13.2843 8.95206 11.3004Z" fill="#A8E3AC"/>
<path d="M20.7322 12.959C20.6179 11.5033 19.8055 10.4991 18.3312 9.95989C18.3312 9.95989 20.4941 15.4015 15.7485 21.4072C16.1933 21.8841 16.681 22.3907 17.2526 22.9845L17.3444 23.0799C19.7785 19.7038 20.9268 15.4372 20.7322 12.959Z" fill="#A8E3AC"/>
<path d="M16.6256 9.91443C15.6673 10.1216 14.7312 10.6572 14.3818 11.3499C13.2927 13.5089 12.6806 14.7709 11.7795 16.2285C12.0401 16.686 12.3396 17.1652 12.7131 17.6871C13.0089 18.1006 13.2832 18.4722 13.5457 18.8159C17.1386 13.74 16.6256 9.91443 16.6256 9.91443Z" fill="#A8E3AC"/>
<path d="M5.74631 23.7928C5.51421 24.1375 5.37768 24.6266 5.35175 25.1683C5.35175 25.1683 6.12728 25.1878 7.44427 24.5304C7.02053 24.0795 6.61351 23.603 6.23188 23.1043C6.07339 23.3187 5.91174 23.5472 5.74631 23.7928Z" fill="#A8E3AC"/>
<path d="M3.90353 3.83206C3.90353 4.43806 4.38816 4.92861 4.99412 4.93597L5.97043 4.93598L8.00648 4.93598L9.98083 4.93598L11.9229 4.93597L13.9728 4.93598L15.9674 4.93598L18.0243 4.93598L19.0106 4.93597C19.6227 4.92861 20.1123 4.43806 20.1123 3.83206V1.42579C20.1123 0.838278 19.6938 0.500367 19.1774 0.500366H11.9243H4.82896C4.31786 0.500367 3.90353 0.838278 3.90353 1.42579V3.83206Z" fill="#698FC5" stroke="black" stroke-linecap="round" stroke-linejoin="round"/>
<path d="M5.97043 4.93604L4.99411 4.93604C4.94334 5.56463 4.84045 6.11751 4.61693 6.62063C4.61693 6.62063 6.06522 8.04364 7.1092 8.23476C9.03073 8.58653 10.0028 6.94703 11.9556 6.99624C13.6077 7.03787 14.3957 8.09995 16.0481 8.07322C17.4095 8.05119 19.4343 6.71205 19.4343 6.71205C19.1787 6.18461 19.065 5.60294 19.0106 4.93604L18.0243 4.93604L15.9674 4.93605L13.9728 4.93604L11.9229 4.93604L9.98083 4.93604L8.00648 4.93605L5.97043 4.93604Z" fill="#EBF7FE"/>
<path fill-rule="evenodd" clip-rule="evenodd" d="M3.34187 31.0432H11.9333H20.6797C22.109 31.0432 23.5507 30.211 23.5507 28.7962V12.6703C23.5507 11.2534 22.7764 9.91803 21.3474 9.10133C20.3445 8.52817 19.7682 7.40119 19.4343 6.71203C19.4343 6.71203 17.4095 8.05117 16.0481 8.07319C14.3957 8.09993 13.6077 7.03785 11.9556 6.99622C10.0028 6.94701 9.03073 8.58651 7.1092 8.23474C6.06522 8.04362 4.61693 6.62061 4.61693 6.62061C4.29346 7.3487 3.71735 8.50297 2.68096 9.10133C1.2664 9.91803 0.49999 11.2534 0.5 12.6703V28.7962C0.499997 30.211 1.92704 31.0432 3.34187 31.0432ZM17.8224 27.7639C16.8244 28.9756 15.6074 29.4085 14.1963 29.0331C13.5224 28.8538 12.7508 28.5281 11.937 28.0768C11.3235 28.4568 10.7084 28.7964 10.0991 29.1068C9.14768 29.5916 7.3614 29.1249 6.33302 28.0249C5.60539 27.2466 5.30594 26.1254 5.35175 25.1683C5.37767 24.6266 5.51421 24.1375 5.74631 23.7928C5.91174 23.5472 6.07339 23.3187 6.23187 23.1043C6.05316 22.8708 5.88002 22.6323 5.71334 22.3893C3.64543 19.3748 2.86067 16.3837 2.49441 13.6422C2.35301 12.5838 3.38616 11.0537 4.76523 10.4489C5.74097 10.0209 6.89796 10.1107 7.78554 10.4716C8.28792 10.6759 8.70399 10.9671 8.95205 11.3004C10.4283 13.2843 10.8646 14.6228 11.7795 16.2285C12.6806 14.7709 13.2927 13.5089 14.3818 11.3499C14.7312 10.6572 15.6672 10.1216 16.6256 9.91443C17.2331 9.78312 17.8495 9.78373 18.3312 9.95989C19.8055 10.4991 20.6179 11.5034 20.7322 12.959C20.9268 15.4372 19.7785 19.7038 17.3444 23.0799C17.4975 23.239 17.6566 23.4044 17.8224 23.5771C18.3599 24.1366 18.5543 25.1974 18.4315 26.1701C18.3537 26.7867 18.1485 27.368 17.8224 27.7639Z" fill="#FADFB2"/>
<path d="M18.4352 0.285889C18.4427 0.286479 18.4502 0.288137 18.4577 0.288818C18.5428 0.296629 18.6273 0.309739 18.7097 0.330811C18.8126 0.357133 18.9117 0.396345 19.0065 0.444092C19.1137 0.498064 19.2154 0.563993 19.3063 0.64624C19.4809 0.804226 19.606 1.00323 19.6755 1.22925C19.7172 1.36496 19.7389 1.51133 19.739 1.66382V3.99683C19.7389 4.04381 19.7354 4.09062 19.7311 4.13647C19.7291 4.158 19.7262 4.17968 19.7233 4.20093C19.7202 4.22422 19.7168 4.24733 19.7126 4.27026C19.7085 4.29216 19.7039 4.31414 19.6989 4.33569C19.6903 4.37282 19.6809 4.41001 19.6696 4.44604C19.6688 4.44892 19.6685 4.45196 19.6677 4.45483C19.6396 4.54256 19.6023 4.62663 19.5593 4.70679C19.548 4.72783 19.5363 4.74882 19.5241 4.76929C19.513 4.78783 19.5008 4.80594 19.489 4.82397C19.475 4.84526 19.461 4.86688 19.446 4.88745C19.4388 4.89728 19.431 4.9071 19.4235 4.91675C19.393 4.95662 19.3601 4.99517 19.3259 5.03198C19.3117 5.04712 19.2977 5.06231 19.2829 5.0769C19.2655 5.09417 19.2474 5.11122 19.2292 5.12769C19.216 5.13952 19.2027 5.15143 19.1891 5.16284C19.0417 5.28749 18.8708 5.38527 18.6833 5.4519V5.45288C18.7449 5.87998 18.8454 6.24663 19.0104 6.5769C19.3505 7.2572 19.871 8.21266 20.7224 8.68433C22.2933 9.55494 23.1774 11.0033 23.1774 12.5652V28.199C23.177 29.0698 22.7118 29.7504 22.0681 30.196C21.4329 30.6356 20.6102 30.862 19.8063 30.8621H17.1667C17.8066 30.7893 18.432 30.5766 18.9382 30.2263C19.582 29.7806 20.0472 29.1002 20.0475 28.2292V12.5955C20.0476 11.0335 19.1635 9.58521 17.5925 8.7146C16.7412 8.24289 16.2206 7.28746 15.8806 6.60718C15.7156 6.27693 15.6151 5.9102 15.5534 5.48315V5.48218C15.7409 5.41554 15.9118 5.31778 16.0593 5.19312C16.0728 5.18169 16.0862 5.1698 16.0993 5.15796C16.1174 5.14157 16.1357 5.12532 16.153 5.10815C16.1679 5.09349 16.1817 5.07748 16.196 5.06226C16.2302 5.02551 16.2631 4.98779 16.2936 4.948C16.3011 4.93832 16.3089 4.92855 16.3161 4.9187C16.3311 4.89812 16.3451 4.87654 16.3591 4.85522C16.371 4.83707 16.383 4.81822 16.3942 4.79956C16.4064 4.77913 16.4181 4.75807 16.4294 4.73706C16.4723 4.65705 16.5097 4.57363 16.5378 4.48608C16.5387 4.48306 16.5388 4.47935 16.5397 4.47632C16.551 4.44028 16.5604 4.40309 16.569 4.36597C16.574 4.34461 16.5787 4.3232 16.5827 4.30151C16.587 4.27841 16.5903 4.25466 16.5934 4.2312C16.5963 4.20989 16.5993 4.18834 16.6013 4.16675C16.6055 4.1209 16.609 4.07408 16.6091 4.0271V1.69507C16.6091 1.54257 16.5873 1.39623 16.5456 1.2605C16.4762 1.03434 16.3511 0.834576 16.1765 0.676514C16.0855 0.594294 15.9838 0.528319 15.8766 0.474365C15.7819 0.426629 15.6827 0.388381 15.5798 0.362061C15.4974 0.340978 15.413 0.326901 15.3278 0.319092C15.3203 0.318406 15.3129 0.316744 15.3054 0.316162C15.2616 0.312748 15.2175 0.311279 15.1735 0.311279H3.64227C3.64387 0.310972 3.64556 0.310609 3.64716 0.310303C3.6614 0.307568 3.6758 0.304836 3.69012 0.30249C3.71081 0.299112 3.73179 0.297248 3.75262 0.294678C3.81984 0.286368 3.88769 0.281013 3.95575 0.281006H18.3034C18.3474 0.281008 18.3915 0.282476 18.4352 0.285889Z" fill="#3F0F33"/>
<g filter="url(#filter0_i_41_181)" style="mix-blend-mode:soft-light">
<path d="M19.3086 0.00488281C19.3161 0.00548419 19.3235 0.00710639 19.3311 0.0078125C19.4162 0.0158674 19.5006 0.0300113 19.583 0.0517578C19.686 0.078909 19.7851 0.118716 19.8799 0.167969C19.9871 0.223667 20.0887 0.292047 20.1797 0.376953C20.3543 0.539994 20.4794 0.745237 20.5488 0.978516C20.5906 1.11862 20.6123 1.26933 20.6123 1.42676V3.83301C20.6123 3.88147 20.6087 3.92927 20.6045 3.97656C20.6025 3.99888 20.5996 4.02094 20.5967 4.04297C20.5935 4.06724 20.5902 4.09133 20.5859 4.11523C20.5819 4.1379 20.5773 4.16031 20.5723 4.18262C20.5637 4.22091 20.5543 4.25873 20.543 4.2959C20.542 4.29906 20.542 4.30251 20.541 4.30566C20.5129 4.39624 20.4757 4.48267 20.4326 4.56543C20.4213 4.58721 20.4097 4.6087 20.3975 4.62988C20.3863 4.64913 20.3743 4.6678 20.3623 4.68652C20.3483 4.70859 20.3344 4.73064 20.3193 4.75195C20.3121 4.76221 20.3044 4.77215 20.2969 4.78223C20.2663 4.82336 20.2335 4.86242 20.1992 4.90039C20.185 4.9161 20.1711 4.93213 20.1562 4.94727C20.1389 4.96507 20.1207 4.98204 20.1025 4.99902C20.0894 5.01126 20.0761 5.02336 20.0625 5.03516C19.915 5.16383 19.7442 5.26522 19.5566 5.33398C19.6183 5.77454 19.7188 6.15346 19.8838 6.49414C20.2239 7.19587 20.7444 8.18142 21.5957 8.66797C23.1667 9.566 24.0508 11.0597 24.0508 12.6709V28.7969C24.0506 29.6954 23.5853 30.3977 22.9414 30.8574C22.3063 31.3108 21.4835 31.5439 20.6797 31.5439H3.3418C2.54407 31.5439 1.72747 31.3106 1.09766 30.8564C0.458968 30.3957 0.000222485 29.6932 1.13591e-10 28.7969C1.08478e-05 23.9118 4.50248e-05 18.9682 1.13591e-10 12.6709C-1.15024e-05 11.0623 0.873564 9.56814 2.43066 8.66895C3.31312 8.15946 3.83613 7.14724 4.16016 6.41797C4.30265 6.09719 4.39178 5.74285 4.44824 5.33496C4.43736 5.33092 4.42679 5.32556 4.41602 5.32129C4.39165 5.31163 4.3675 5.30181 4.34375 5.29102C4.32688 5.28336 4.31049 5.27482 4.29395 5.2666C4.23633 5.23796 4.18035 5.20697 4.12695 5.17188C4.12424 5.17009 4.12185 5.16781 4.11914 5.16602C4.10121 5.15408 4.08381 5.14154 4.06641 5.12891C4.04492 5.11334 4.0236 5.09764 4.00293 5.08105C3.98527 5.06685 3.96821 5.05204 3.95117 5.03711C3.93832 5.02587 3.92557 5.01457 3.91309 5.00293C3.85306 4.94686 3.79691 4.88691 3.74609 4.82227C3.72406 4.79431 3.70277 4.76575 3.68262 4.73633C3.6736 4.72314 3.66488 4.70976 3.65625 4.69629C3.64112 4.67272 3.62719 4.64842 3.61328 4.62402C3.60708 4.61312 3.5997 4.60286 3.59375 4.5918L3.57324 4.55078C3.55732 4.5191 3.54216 4.48695 3.52832 4.4541C3.52724 4.45154 3.52645 4.44886 3.52539 4.44629C3.48821 4.35669 3.459 4.26302 3.43848 4.16602C3.43635 4.15597 3.43455 4.14586 3.43262 4.13574C3.42553 4.09873 3.41953 4.06132 3.41504 4.02344C3.41331 4.00884 3.4115 3.99421 3.41016 3.97949C3.40577 3.93125 3.40335 3.88241 3.40332 3.83301V1.42676C3.40332 1.16588 3.46232 0.923984 3.57422 0.71582C3.64133 0.590571 3.72702 0.477064 3.83105 0.378906C3.91398 0.300722 4.00568 0.236164 4.10254 0.182617C4.11708 0.17456 4.13169 0.166689 4.14648 0.15918C4.16274 0.150948 4.17877 0.142342 4.19531 0.134766C4.21747 0.124593 4.24007 0.115443 4.2627 0.106445C4.28655 0.0969769 4.31064 0.088256 4.33496 0.0800781C4.34247 0.0775483 4.34987 0.0746724 4.35742 0.0722656C4.38746 0.0627057 4.41764 0.0535305 4.44824 0.0458984C4.47213 0.0399373 4.49632 0.035065 4.52051 0.0302734C4.53479 0.0274435 4.54911 0.0248868 4.56348 0.0224609C4.58421 0.0189634 4.60509 0.0163298 4.62598 0.0136719C4.69321 0.00509629 4.76103 7.64227e-06 4.8291 0H19.1768C19.2208 2.86743e-08 19.2648 0.00135929 19.3086 0.00488281Z" fill="#3F0F33"/>
</g>
<path d="M23.0508 12.6704C23.0508 11.4481 22.3862 10.271 21.0996 9.53564C20.1861 9.01359 19.6 8.1091 19.2324 7.41943C19.027 7.53911 18.7667 7.68575 18.4746 7.83154C17.7939 8.17124 16.8595 8.55963 16.0566 8.57275C15.1123 8.58803 14.4138 8.28677 13.8008 8.01807C13.1841 7.74779 12.6583 7.51369 11.9434 7.49561C11.1123 7.47466 10.4937 7.80553 9.74219 8.17725C9.00669 8.54105 8.15318 8.93444 7.01953 8.72705C6.3669 8.60757 5.65843 8.13197 5.16602 7.75244C5.02471 7.64353 4.89476 7.53569 4.7793 7.43799C4.41058 8.14501 3.83127 9.01471 2.93066 9.53467C1.65917 10.2689 0.999991 11.4456 1 12.6704C1.00005 18.9679 1.00001 23.9111 1 28.7964L1.01172 28.9858C1.06624 29.4178 1.30796 29.7741 1.68262 30.0444C2.06529 30.3205 2.57631 30.4953 3.11133 30.5347L3.3418 30.5435H20.6797C21.3049 30.5435 21.9174 30.3596 22.3604 30.0435C22.7944 29.7336 23.0507 29.3123 23.0508 28.7964V12.6704ZM16.5195 9.42529C17.1833 9.28179 17.9032 9.2714 18.5029 9.49072C19.3063 9.78455 19.9612 10.2172 20.4316 10.8032C20.9038 11.3915 21.1664 12.105 21.2305 12.9194C21.4294 15.4518 20.3152 19.634 17.9893 23.0298C18.0527 23.0957 18.1171 23.1628 18.1826 23.231C18.5357 23.5986 18.7507 24.0989 18.8633 24.6108C18.977 25.1281 18.9956 25.6948 18.9277 26.2329C18.8427 26.9067 18.614 27.5887 18.208 28.0815C17.6641 28.7418 17.0391 29.2162 16.3301 29.4653C15.6182 29.7155 14.8571 29.7262 14.0674 29.5161C13.4173 29.3431 12.6979 29.0473 11.9502 28.6519C11.406 28.9795 10.8636 29.2784 10.3262 29.5522C9.69469 29.874 8.867 29.8531 8.11035 29.6421C7.33981 29.4272 6.55241 28.992 5.96777 28.3667C5.12887 27.4693 4.80174 26.2054 4.85254 25.144C4.88136 24.543 5.0337 23.9562 5.33203 23.5132C5.42624 23.3733 5.51925 23.2387 5.61133 23.1089C5.50591 22.965 5.40189 22.8198 5.30078 22.6724C3.17486 19.5732 2.37192 16.4996 1.99902 13.7085C1.90518 13.0061 2.20018 12.233 2.65039 11.5894C3.10898 10.9337 3.78038 10.3346 4.56445 9.99072C5.68928 9.49743 6.98943 9.60815 7.97363 10.0083C8.53114 10.235 9.03459 10.5739 9.35352 11.0024C10.5967 12.6733 11.1517 13.956 11.8008 15.2144C12.4672 14.0621 13.0355 12.9088 13.9355 11.1245C14.1652 10.6694 14.5662 10.3011 15.0117 10.0249C15.4618 9.74594 15.9895 9.5399 16.5195 9.42529ZM9.97461 27.4136C9.0584 27.9763 8.3135 28.2771 7.72852 28.4292C7.94045 28.5326 8.15957 28.617 8.37891 28.6782C9.01023 28.8543 9.55208 28.8246 9.87207 28.6616C10.2333 28.4776 10.5947 28.2812 10.957 28.0747C10.6318 27.871 10.3033 27.6506 9.97461 27.4136ZM3.91797 11.6323C3.75089 11.7973 3.59974 11.9758 3.46973 12.1616C3.09409 12.6986 2.94281 13.2197 2.99023 13.5757C3.34987 16.2676 4.11609 19.1769 6.12598 22.1069C6.28749 22.3424 6.45543 22.5736 6.62891 22.8003C6.99972 23.2849 7.39575 23.7487 7.80859 24.188C8.59806 25.028 9.44757 25.7771 10.2969 26.4126C10.9348 26.89 11.5711 27.3017 12.1797 27.6392C12.9683 28.0764 13.7013 28.3843 14.3252 28.5503C14.9462 28.7154 15.4994 28.6971 15.998 28.522C16.2222 28.4432 16.4417 28.3284 16.6572 28.1782C15.9611 28.0794 15.0041 27.8693 13.9199 27.4253C11.7105 26.5205 8.99475 24.6526 6.88965 20.8286C4.68747 16.8283 4.01238 14.2204 3.91113 12.5767C3.88903 12.2178 3.89512 11.9044 3.91797 11.6323ZM7.33203 25.1353C6.78925 25.3788 6.34303 25.5126 6.00977 25.5845C5.9566 25.5959 5.90563 25.6033 5.8584 25.6118C5.90573 26.301 6.14504 27.0231 6.5957 27.5659C6.59669 27.566 6.59763 27.5668 6.59863 27.5669C6.70281 27.5765 6.88386 27.5796 7.14453 27.5366C7.57393 27.4658 8.22573 27.2658 9.11719 26.7603C8.50904 26.269 7.90724 25.7254 7.33203 25.1353ZM7.19727 10.8022C6.53209 10.6186 5.7723 10.6037 5.11133 10.8481C5.08809 10.8983 5.05903 10.9694 5.03027 11.064C4.94883 11.332 4.86488 11.7959 4.90918 12.5151C4.99813 13.9592 5.60445 16.4203 7.76562 20.3462C9.75185 23.9542 12.2836 25.6752 14.2988 26.5005C15.3099 26.9145 16.1964 27.1055 16.8262 27.1929C17.1408 27.2365 17.3911 27.2543 17.5596 27.2612C17.5611 27.2613 17.5629 27.2612 17.5645 27.2612C17.6875 27.0594 17.7888 26.8079 17.8584 26.5229C17.7465 26.4855 17.616 26.4398 17.4697 26.3823C16.9489 26.1779 16.2219 25.8367 15.374 25.2837C13.6759 24.1761 11.5022 22.2266 9.52344 18.8511C7.89805 16.0783 7.32887 13.9788 7.17676 12.5464C7.10081 11.8309 7.12936 11.2852 7.18066 10.9087C7.18573 10.8715 7.19184 10.8361 7.19727 10.8022ZM8.15137 11.229C8.12488 11.5214 8.11612 11.925 8.1709 12.4409C8.30579 13.7111 8.82084 15.6756 10.3857 18.3452C12.2848 21.5847 14.3501 23.4213 15.9209 24.4458C16.7072 24.9587 17.3723 25.27 17.835 25.4517C17.8792 25.469 17.9224 25.4835 17.9629 25.4985C17.9567 25.266 17.9324 25.0378 17.8857 24.8257C17.7975 24.4245 17.6461 24.1151 17.4619 23.9233L16.9844 23.4263L16.8926 23.3315C16.3217 22.7385 15.8308 22.2288 15.3828 21.7485C14.5815 20.8896 13.9137 20.1214 13.1484 19.1196C12.8823 18.7713 12.605 18.3951 12.3066 17.978C11.9221 17.4406 11.613 16.9469 11.3447 16.4761C10.381 14.7847 10.0074 13.5566 8.55078 11.5991C8.45781 11.4742 8.32314 11.3474 8.15137 11.229ZM6.16113 24.0718C6.07444 24.2005 5.99991 24.3694 5.94531 24.5698C6.12762 24.5236 6.34965 24.454 6.60938 24.3521C6.48957 24.2151 6.37126 24.0761 6.25488 23.9351C6.22397 23.9801 6.19234 24.0254 6.16113 24.0718ZM19.1055 10.9185C19.2313 11.5466 19.345 12.4096 19.3193 13.4438C19.2665 15.5696 18.6357 18.4006 16.4043 21.3726C16.6756 21.6598 16.9637 21.9632 17.2803 22.2925C19.4217 19.0822 20.4079 15.2215 20.2334 12.9985C20.1831 12.3576 19.9823 11.8416 19.6514 11.4292C19.5018 11.2429 19.3203 11.0726 19.1055 10.9185ZM17.9414 10.3687C17.7107 10.3199 17.4404 10.3077 17.1494 10.3364C17.1507 10.4156 17.1512 10.5041 17.1494 10.6011C17.1408 11.0668 17.0896 11.7341 16.9229 12.561C16.602 14.1515 15.8531 16.3261 14.166 18.7964C14.6898 19.4674 15.1749 20.0371 15.7119 20.6274C17.718 17.8927 18.2719 15.3256 18.3193 13.4194C18.3445 12.409 18.2273 11.5803 18.1055 11.0083C18.0466 10.7318 17.9867 10.5157 17.9414 10.3687ZM16.1494 10.5767C15.9312 10.6599 15.7244 10.7606 15.5391 10.8755C15.1898 11.0919 14.948 11.3373 14.8281 11.5747C13.8073 13.5985 13.1925 14.8559 12.3604 16.2319C12.5785 16.5999 12.8254 16.9841 13.1201 17.396C13.26 17.5916 13.3945 17.7778 13.5254 17.9556C15.0025 15.7163 15.6585 13.7702 15.9424 12.3628C16.0964 11.5993 16.1419 10.9927 16.1494 10.5825C16.1494 10.5806 16.1494 10.5785 16.1494 10.5767ZM5.44336 5.43604C5.39497 5.7987 5.31942 6.14741 5.2041 6.48389C5.34882 6.6133 5.54826 6.78463 5.77637 6.96045C6.26907 7.34019 6.80787 7.67101 7.19922 7.74268C7.98675 7.88685 8.5799 7.63637 9.29883 7.28076C10.0019 6.93301 10.8462 6.46844 11.9678 6.49658C12.9045 6.52019 13.599 6.83769 14.2021 7.10205C14.8092 7.36811 15.332 7.58519 16.04 7.57373C16.5984 7.56469 17.3565 7.27227 18.0283 6.93701C18.3371 6.7829 18.6096 6.62835 18.8105 6.50928C18.6891 6.16509 18.6116 5.80764 18.5615 5.43604H5.44336ZM19.6123 1.42627C19.6123 1.25814 19.5558 1.16277 19.4971 1.10791C19.4333 1.04855 19.3275 1.00055 19.1777 1.00049H4.8291C4.68298 1.00049 4.57988 1.04819 4.51758 1.10693C4.45993 1.16138 4.40332 1.25666 4.40332 1.42627V3.83252L4.41602 3.95361C4.47132 4.22721 4.70955 4.43242 5 4.43604C5.13723 4.43604 5.29552 4.43603 5.4707 4.43604V2.81396C5.47081 2.53791 5.69462 2.31396 5.9707 2.31396C6.24666 2.31411 6.4706 2.538 6.4707 2.81396V4.43604C6.79866 4.43604 7.14865 4.43604 7.50684 4.43604V2.81396C7.50694 2.53791 7.73076 2.31396 8.00684 2.31396C8.28275 2.31416 8.50673 2.53803 8.50684 2.81396V4.43604C8.83879 4.43603 9.16691 4.43604 9.48047 4.43604V2.81396C9.48057 2.53803 9.70456 2.31416 9.98047 2.31396C10.2565 2.31396 10.4804 2.53791 10.4805 2.81396V4.43604H11.4229V2.81396C11.423 2.53791 11.6468 2.31397 11.9229 2.31396C12.1989 2.31396 12.4227 2.53791 12.4229 2.81396V4.43604H13.4727V2.81396C13.4728 2.53797 13.6967 2.31407 13.9727 2.31396C14.2487 2.31396 14.4726 2.53791 14.4727 2.81396V4.43604H15.4678V2.81396C15.4679 2.53791 15.6917 2.31396 15.9678 2.31396C16.2437 2.31417 16.4677 2.53804 16.4678 2.81396V4.43604H17.5244V2.81396C17.5245 2.53791 17.7483 2.31396 18.0244 2.31396C18.3004 2.31404 18.5243 2.53796 18.5244 2.81396V4.43604H19.0049C19.3477 4.43175 19.6121 4.15975 19.6123 3.83252V1.42627ZM20.6123 3.83252C20.6121 4.52623 20.1715 5.10917 19.5566 5.33447C19.6183 5.77524 19.7187 6.15285 19.8838 6.49365C20.2239 7.19541 20.7442 8.18084 21.5957 8.66748C23.1668 9.5655 24.0508 11.0592 24.0508 12.6704V28.7964C24.0507 29.6952 23.5855 30.3971 22.9414 30.8569C22.3062 31.3104 21.4836 31.5435 20.6797 31.5435H3.3418C2.54396 31.5434 1.72751 31.3103 1.09766 30.856C0.458852 30.3952 5.59597e-05 29.6929 1.13615e-10 28.7964C1.08481e-05 23.9111 4.50301e-05 18.9679 1.13615e-10 12.6704C-1.15029e-05 11.0617 0.873446 9.56764 2.43066 8.66846C3.31328 8.15888 3.83615 7.14678 4.16016 6.41748C4.3027 6.09658 4.39179 5.74256 4.44824 5.33447C3.83737 5.10771 3.40349 4.52203 3.40332 3.83252V1.42627C3.40332 1.00855 3.5548 0.640811 3.83203 0.379395C4.07055 0.154519 4.37536 0.0331432 4.69238 0.00634766L4.8291 0.000488281H19.1777C19.5438 0.000555514 19.9052 0.121228 20.1797 0.377441C20.4592 0.638412 20.6123 1.00693 20.6123 1.42627V3.83252Z" fill="#3F0F33"/>
<defs>
<filter id="filter0_i_41_181" x="0" y="0" width="24.0508" height="31.5439" filterUnits="userSpaceOnUse" color-interpolation-filters="sRGB">
<feFlood flood-opacity="0" result="BackgroundImageFix"/>
<feBlend mode="normal" in="SourceGraphic" in2="BackgroundImageFix" result="shape"/>
<feColorMatrix in="SourceAlpha" type="matrix" values="0 0 0 0 0 0 0 0 0 0 0 0 0 0 0 0 0 0 127 0" result="hardAlpha"/>
<feOffset dx="-2"/>
<feComposite in2="hardAlpha" operator="arithmetic" k2="-1" k3="1"/>
<feColorMatrix type="matrix" values="0 0 0 0 0.247059 0 0 0 0 0.0588235 0 0 0 0 0.2 0 0 0 0.4 0"/>
<feBlend mode="normal" in2="shape" result="effect1_innerShadow_41_181"/>
</filter>
</defs>
</svg>
