<svg width="25" height="32" viewBox="0 0 25 32" fill="none" xmlns="http://www.w3.org/2000/svg">
<path d="M5.35176 25.1679C5.30595 26.125 5.6054 27.2462 6.33302 28.0245C6.33302 28.0245 7.49219 28.4409 9.99716 26.8127C9.12545 26.1603 8.25431 25.3919 7.44427 24.53C6.12728 25.1874 5.35176 25.1679 5.35176 25.1679Z" fill="#69B76A"/>
<path d="M7.78555 10.4712C6.89796 10.1103 5.74098 10.0205 4.76524 10.4485C4.76524 10.4485 2.96393 12.661 7.32736 20.5873C11.4187 28.0192 17.8224 27.7635 17.8224 27.7635C18.1485 27.3676 18.3538 26.7863 18.4316 26.1697C18.4316 26.1697 13.8326 25.213 9.95482 18.5979C6.76433 13.1553 7.78555 10.4712 7.78555 10.4712Z" fill="#69B76A"/>
<path d="M18.3312 9.95948C17.8495 9.78333 17.2331 9.78271 16.6256 9.91402C16.6256 9.91402 17.1386 13.7396 13.5457 18.8155C14.299 19.8016 14.9557 20.5569 15.7485 21.4068C20.4941 15.4011 18.3312 9.95948 18.3312 9.95948Z" fill="#69B76A"/>
<path d="M6.33302 28.0245C7.36141 29.1246 9.14768 29.5912 10.0991 29.1064C10.7084 28.796 11.3235 28.4564 11.937 28.0764C11.3072 27.7272 10.652 27.3027 9.99716 26.8127C7.49219 28.441 6.33302 28.0245 6.33302 28.0245Z" fill="#94D796"/>
<path d="M14.1963 29.0327C15.6074 29.4081 16.8244 28.9753 17.8224 27.7635C17.8224 27.7635 11.4187 28.0193 7.32736 20.5873C2.96392 12.6611 4.76523 10.4485 4.76523 10.4485C3.38617 11.0534 2.35301 12.5834 2.49441 13.6418C2.86068 16.3834 3.64543 19.3744 5.71335 22.389C5.88003 22.632 6.05317 22.8704 6.23188 23.1039C6.61351 23.6027 7.02053 24.0791 7.44427 24.53C8.25431 25.3919 9.12545 26.1604 9.99716 26.8127C10.652 27.3027 11.3072 27.7272 11.937 28.0764C12.7509 28.5277 13.5224 28.8534 14.1963 29.0327Z" fill="#94D796"/>
<path d="M8.95206 11.3001C8.704 10.9667 8.28793 10.6755 7.78555 10.4712C7.78555 10.4712 6.76433 13.1553 9.95482 18.5979C13.8326 25.213 18.4316 26.1698 18.4316 26.1698C18.5543 25.197 18.3599 24.1363 17.8224 23.5767C17.6566 23.404 17.4975 23.2386 17.3444 23.0795L17.2526 22.9842C16.681 22.3904 16.1933 21.8837 15.7485 21.4069C14.9557 20.557 14.299 19.8016 13.5457 18.8155C13.2832 18.4719 13.0089 18.1002 12.7131 17.6867C12.3396 17.1648 12.0401 16.6856 11.7795 16.2282C10.8646 14.6225 10.4283 13.284 8.95206 11.3001Z" fill="#94D796"/>
<path d="M20.7322 12.9587C20.6179 11.503 19.8055 10.4987 18.3312 9.95952C18.3312 9.95952 20.4941 15.4012 15.7485 21.4069C16.1933 21.8837 16.681 22.3904 17.2526 22.9842L17.3444 23.0795C19.7785 19.7034 20.9268 15.4368 20.7322 12.9587Z" fill="#94D796"/>
<path d="M16.6256 9.91406C15.6673 10.1212 14.7312 10.6568 14.3818 11.3495C13.2927 13.5085 12.6806 14.7705 11.7795 16.2282C12.0401 16.6856 12.3396 17.1648 12.7131 17.6867C13.0089 18.1002 13.2832 18.4719 13.5457 18.8155C17.1386 13.7396 16.6256 9.91406 16.6256 9.91406Z" fill="#94D796"/>
<path d="M5.74631 23.7925C5.51421 24.1371 5.37768 24.6263 5.35175 25.168C5.35175 25.168 6.12728 25.1875 7.44427 24.53C7.02053 24.0791 6.61351 23.6027 6.23188 23.1039C6.07339 23.3183 5.91174 23.5468 5.74631 23.7925Z" fill="#94D796"/>
<path d="M3.90353 3.83169C3.90353 4.4377 4.38816 4.92825 4.99412 4.9356L5.97043 4.93561L8.00648 4.93562L9.98083 4.93561L11.9229 4.9356L13.9728 4.93561L15.9674 4.93562L18.0243 4.93561L19.0106 4.9356C19.6227 4.92825 20.1123 4.4377 20.1123 3.83169V1.42543C20.1123 0.837912 19.6938 0.5 19.1774 0.5H11.9243H4.82896C4.31786 0.5 3.90353 0.837912 3.90353 1.42543V3.83169Z" fill="#4B65B5" stroke="black" stroke-linecap="round" stroke-linejoin="round"/>
<path d="M5.97043 4.93568L4.99411 4.93567C4.94334 5.56427 4.84045 6.11714 4.61693 6.62026C4.61693 6.62026 6.06522 8.04328 7.1092 8.2344C9.03073 8.58617 10.0028 6.94666 11.9556 6.99587C13.6077 7.0375 14.3957 8.09958 16.0481 8.07285C17.4095 8.05083 19.4343 6.71168 19.4343 6.71168C19.1787 6.18424 19.065 5.60257 19.0106 4.93567L18.0243 4.93568L15.9674 4.93568L13.9728 4.93568L11.9229 4.93567L9.98083 4.93568L8.00648 4.93568L5.97043 4.93568Z" fill="#E6F3FE"/>
<path fill-rule="evenodd" clip-rule="evenodd" d="M3.34187 31.0429H11.9333H20.6797C22.109 31.0429 23.5507 30.2107 23.5507 28.7958V12.6699C23.5507 11.253 22.7764 9.91766 21.3474 9.10096C20.3445 8.5278 19.7682 7.40082 19.4343 6.71166C19.4343 6.71166 17.4095 8.0508 16.0481 8.07283C14.3957 8.09956 13.6077 7.03748 11.9556 6.99585C10.0028 6.94664 9.03073 8.58615 7.1092 8.23437C6.06522 8.04325 4.61693 6.62024 4.61693 6.62024C4.29346 7.34833 3.71735 8.5026 2.68096 9.10096C1.2664 9.91766 0.49999 11.253 0.5 12.6699V28.7958C0.499997 30.2107 1.92704 31.0429 3.34187 31.0429ZM17.8224 27.7635C16.8244 28.9753 15.6074 29.4081 14.1963 29.0327C13.5224 28.8534 12.7508 28.5277 11.937 28.0764C11.3235 28.4564 10.7084 28.796 10.0991 29.1064C9.14768 29.5912 7.3614 29.1246 6.33302 28.0245C5.60539 27.2462 5.30594 26.1251 5.35175 25.168C5.37767 24.6263 5.51421 24.1371 5.74631 23.7925C5.91174 23.5468 6.07339 23.3183 6.23187 23.1039C6.05316 22.8704 5.88002 22.632 5.71334 22.389C3.64543 19.3744 2.86067 16.3834 2.49441 13.6419C2.35301 12.5834 3.38616 11.0534 4.76523 10.4485C5.74097 10.0206 6.89796 10.1103 7.78554 10.4712C8.28792 10.6755 8.70399 10.9667 8.95205 11.3001C10.4283 13.284 10.8646 14.6225 11.7795 16.2282C12.6806 14.7705 13.2927 13.5085 14.3818 11.3495C14.7312 10.6568 15.6672 10.1212 16.6256 9.91407C17.2331 9.78275 17.8495 9.78337 18.3312 9.95953C19.8055 10.4987 20.6179 11.503 20.7322 12.9587C20.9268 15.4368 19.7785 19.7034 17.3444 23.0795C17.4975 23.2386 17.6566 23.404 17.8224 23.5767C18.3599 24.1363 18.5543 25.197 18.4315 26.1698C18.3537 26.7864 18.1485 27.3676 17.8224 27.7635Z" fill="#F9D19D"/>
<path d="M19.0041 6.66858C19.3381 7.35775 19.9143 8.48509 20.9172 9.05823C21.9779 9.66444 22.6767 10.5564 22.967 11.5553C23.0689 11.927 23.1203 12.3121 23.1203 12.7028V28.7526C23.1203 30.0568 21.8953 30.8635 20.5842 30.9821C20.3075 30.9987 20.0256 30.9996 19.7492 30.9996H17.1096C17.7494 30.9269 18.375 30.7141 18.8811 30.3639C19.5249 29.9182 19.9901 29.2378 19.9904 28.3668V16.1608C20.2656 14.9305 20.372 13.8075 20.302 12.9156C20.2477 12.225 20.0348 11.637 19.6701 11.151C19.2831 10.2263 18.5548 9.41714 17.5354 8.85217C17.1105 8.61672 16.7682 8.26061 16.4895 7.87854C17.7002 7.52655 18.9926 6.67622 19.0041 6.66858Z" fill="#F6A862"/>
<path d="M18.8994 5.203C18.7875 5.27796 18.6664 5.34125 18.5362 5.38757V5.38855C18.5978 5.81552 18.6983 6.18237 18.8633 6.51257C18.9112 6.60834 18.9622 6.70979 19.0176 6.81433C18.5427 7.10172 17.5161 7.6776 16.5821 7.90808C16.2118 7.46368 15.9389 6.95381 15.7334 6.54285C15.5685 6.21268 15.4679 5.84574 15.4063 5.41882V5.41785C15.5937 5.35121 15.7648 5.25338 15.9121 5.12878C15.9256 5.1174 15.9391 5.10543 15.9522 5.09363C15.9703 5.07728 15.9886 5.06095 16.0059 5.04382C16.0207 5.02919 16.0347 5.01311 16.0489 4.99792C16.083 4.96121 16.116 4.92343 16.1465 4.88367C16.1495 4.87982 16.1523 4.87582 16.1553 4.87195H17.877L18.8633 4.87097C18.8725 4.98402 18.8864 5.09471 18.8994 5.203Z" fill="#C8DAF2"/>
<path d="M19.2396 0.432983C19.3105 0.47547 19.3793 0.522034 19.4417 0.578491C19.6162 0.736441 19.7414 0.935544 19.8109 1.1615C19.8526 1.29717 19.8743 1.44363 19.8744 1.59607V3.92908C19.8743 3.97602 19.8708 4.02291 19.8665 4.06873C19.8646 4.09021 19.8616 4.11196 19.8587 4.13318C19.8556 4.15644 19.8522 4.17961 19.848 4.20251C19.844 4.22438 19.8393 4.24641 19.8343 4.26794C19.8257 4.30505 19.8163 4.34228 19.805 4.3783C19.8042 4.38115 19.8039 4.38423 19.8031 4.38708C19.775 4.4748 19.7377 4.55889 19.6947 4.63904C19.6834 4.66007 19.6717 4.68108 19.6595 4.70154C19.6489 4.71922 19.6367 4.73609 19.6253 4.7533C19.4805 4.82389 19.3184 4.86646 19.1458 4.86853H16.4378C16.4424 4.86265 16.4472 4.85689 16.4515 4.85095C16.4665 4.83037 16.4805 4.80879 16.4945 4.78748C16.5064 4.76932 16.5185 4.75047 16.5296 4.73181C16.5418 4.71138 16.5536 4.69032 16.5648 4.66931C16.6077 4.58931 16.6451 4.50587 16.6732 4.41833C16.6741 4.41533 16.6742 4.41158 16.6751 4.40857C16.6864 4.37255 16.6959 4.33532 16.7044 4.29822C16.7094 4.27689 16.7141 4.25542 16.7181 4.23376C16.7224 4.21069 16.7257 4.18688 16.7289 4.16345C16.7317 4.14217 16.7347 4.12055 16.7367 4.099C16.7409 4.05318 16.7444 4.00629 16.7445 3.95935V1.62732C16.7445 1.47487 16.7227 1.32844 16.681 1.19275C16.6115 0.966658 16.4864 0.766791 16.3119 0.608765C16.234 0.538446 16.1472 0.482174 16.057 0.432983H19.2396Z" fill="#3B1FAB"/>
<path d="M23.0508 12.67C23.0508 11.4477 22.3862 10.2707 21.0996 9.53528C20.1861 9.01323 19.6 8.10874 19.2324 7.41907C19.027 7.53875 18.7667 7.68539 18.4746 7.83118C17.7939 8.17087 16.8595 8.55926 16.0566 8.57239C15.1123 8.58766 14.4138 8.2864 13.8008 8.0177C13.1841 7.74743 12.6583 7.51333 11.9434 7.49524C11.1123 7.4743 10.4937 7.80516 9.74219 8.17688C9.00669 8.54068 8.15318 8.93408 7.01953 8.72668C6.3669 8.60721 5.65843 8.1316 5.16602 7.75208C5.02471 7.64316 4.89476 7.53532 4.7793 7.43762C4.41058 8.14464 3.83126 9.01434 2.93066 9.5343C1.65917 10.2686 0.999991 11.4452 1 12.67C1.00005 18.9676 1.00001 23.9108 1 28.796L1.01172 28.9855C1.06624 29.4174 1.30796 29.7737 1.68262 30.0441C2.06529 30.3201 2.57631 30.495 3.11133 30.5343L3.3418 30.5431H20.6797C21.3049 30.5431 21.9174 30.3593 22.3604 30.0431C22.7944 29.7332 23.0507 29.3119 23.0508 28.796V12.67ZM16.5195 9.42493C17.1833 9.28143 17.9032 9.27104 18.5029 9.49036C19.3063 9.78419 19.9612 10.2168 20.4316 10.8029C20.9038 11.3912 21.1664 12.1047 21.2305 12.9191C21.4294 15.4514 20.3152 19.6337 17.9893 23.0294C18.0527 23.0954 18.1171 23.1624 18.1826 23.2306C18.5357 23.5983 18.7507 24.0985 18.8633 24.6105C18.977 25.1277 18.9956 25.6945 18.9277 26.2325C18.8427 26.9063 18.614 27.5883 18.208 28.0812C17.6641 28.7415 17.0391 29.2158 16.3301 29.465C15.6182 29.7152 14.8571 29.7259 14.0674 29.5157C13.4173 29.3428 12.6979 29.0469 11.9502 28.6515C11.406 28.9791 10.8636 29.2781 10.3262 29.5519C9.69469 29.8736 8.867 29.8527 8.11035 29.6417C7.33981 29.4268 6.55241 28.9916 5.96777 28.3663C5.12887 27.469 4.80174 26.205 4.85254 25.1437C4.88136 24.5427 5.0337 23.9558 5.33203 23.5128C5.42624 23.3729 5.51925 23.2383 5.61133 23.1085C5.50591 22.9646 5.40189 22.8194 5.30078 22.672C3.17486 19.5729 2.37192 16.4992 1.99902 13.7081C1.90518 13.0057 2.20018 12.2326 2.65039 11.589C3.10898 10.9334 3.78038 10.3343 4.56445 9.99036C5.68928 9.49707 6.98943 9.60778 7.97363 10.0079C8.53114 10.2346 9.03459 10.5735 9.35352 11.0021C10.5967 12.6729 11.1517 13.9556 11.8008 15.214C12.4672 14.0617 13.0355 12.9084 13.9355 11.1241C14.1652 10.669 14.5662 10.3007 15.0117 10.0245C15.4618 9.74558 15.9895 9.53954 16.5195 9.42493ZM9.97461 27.4132C9.0584 27.9759 8.3135 28.2768 7.72852 28.4288C7.94045 28.5322 8.15956 28.6167 8.37891 28.6779C9.01023 28.8539 9.55208 28.8242 9.87207 28.6613C10.2333 28.4772 10.5947 28.2808 10.957 28.0743C10.6318 27.8706 10.3033 27.6502 9.97461 27.4132ZM3.91797 11.632C3.75089 11.797 3.59974 11.9755 3.46973 12.1613C3.09409 12.6983 2.94281 13.2194 2.99023 13.5753C3.34987 16.2672 4.11609 19.1766 6.12598 22.1066C6.28749 22.342 6.45543 22.5732 6.62891 22.7999C6.99972 23.2845 7.39575 23.7483 7.80859 24.1876C8.59806 25.0276 9.44757 25.7767 10.2969 26.4122C10.9348 26.8896 11.5711 27.3013 12.1797 27.6388C12.9683 28.0761 13.7013 28.3839 14.3252 28.5499C14.9462 28.7151 15.4994 28.6968 15.998 28.5216C16.2222 28.4428 16.4417 28.328 16.6572 28.1779C15.9611 28.079 15.0041 27.8689 13.9199 27.4249C11.7105 26.5201 8.99475 24.6522 6.88965 20.8282C4.68747 16.828 4.01238 14.22 3.91113 12.5763C3.88903 12.2174 3.89512 11.904 3.91797 11.632ZM7.33203 25.1349C6.78925 25.3785 6.34303 25.5122 6.00977 25.5841C5.9566 25.5956 5.90563 25.6029 5.8584 25.6115C5.90573 26.3006 6.14504 27.0227 6.5957 27.5656C6.59669 27.5656 6.59763 27.5664 6.59863 27.5665C6.70281 27.5761 6.88386 27.5792 7.14453 27.5363C7.57393 27.4654 8.22573 27.2654 9.11719 26.7599C8.50904 26.2686 7.90724 25.725 7.33203 25.1349ZM7.19727 10.8019C6.53209 10.6182 5.7723 10.6033 5.11133 10.8478C5.08809 10.8979 5.05903 10.969 5.03027 11.0636C4.94883 11.3316 4.86488 11.7955 4.90918 12.5148C4.99813 13.9589 5.60445 16.42 7.76562 20.3458C9.75185 23.9538 12.2836 25.6748 14.2988 26.5001C15.3099 26.9141 16.1964 27.1051 16.8262 27.1925C17.1408 27.2362 17.3911 27.2539 17.5596 27.2609C17.5611 27.2609 17.5629 27.2608 17.5645 27.2609C17.6875 27.059 17.7888 26.8076 17.8584 26.5226C17.7465 26.4851 17.6161 26.4394 17.4697 26.382C16.9489 26.1775 16.2219 25.8364 15.374 25.2833C13.6759 24.1757 11.5022 22.2262 9.52344 18.8507C7.89805 16.078 7.32887 13.9784 7.17676 12.546C7.10081 11.8306 7.12936 11.2848 7.18066 10.9083C7.18573 10.8712 7.19184 10.8357 7.19727 10.8019ZM8.15137 11.2286C8.12488 11.521 8.11613 11.9246 8.1709 12.4406C8.30579 13.7108 8.82084 15.6752 10.3857 18.3448C12.2848 21.5844 14.3501 23.4209 15.9209 24.4454C16.7072 24.9583 17.3723 25.2696 17.835 25.4513C17.8792 25.4687 17.9224 25.4831 17.9629 25.4982C17.9567 25.2656 17.9324 25.0375 17.8857 24.8253C17.7975 24.4241 17.6461 24.1147 17.4619 23.923L16.9844 23.4259L16.8926 23.3312C16.3217 22.7381 15.8308 22.2284 15.3828 21.7482C14.5815 20.8892 13.9137 20.1211 13.1484 19.1193C12.8823 18.7709 12.605 18.3947 12.3066 17.9777C11.9221 17.4403 11.613 16.9465 11.3447 16.4757C10.381 14.7843 10.0074 13.5562 8.55078 11.5988C8.45781 11.4738 8.32314 11.347 8.15137 11.2286ZM6.16113 24.0714C6.07444 24.2001 5.99991 24.369 5.94531 24.5695C6.12762 24.5232 6.34965 24.4537 6.60938 24.3517C6.48957 24.2147 6.37126 24.0758 6.25488 23.9347C6.22397 23.9798 6.19234 24.0251 6.16113 24.0714ZM19.1055 10.9181C19.2313 11.5462 19.345 12.4092 19.3193 13.4435C19.2665 15.5692 18.6357 18.4003 16.4043 21.3722C16.6756 21.6594 16.9637 21.9628 17.2803 22.2921C19.4217 19.0818 20.4079 15.2211 20.2334 12.9982C20.1831 12.3572 19.9823 11.8412 19.6514 11.4288C19.5018 11.2425 19.3203 11.0723 19.1055 10.9181ZM17.9414 10.3683C17.7107 10.3196 17.4404 10.3073 17.1494 10.3361C17.1507 10.4152 17.1512 10.5038 17.1494 10.6007C17.1408 11.0664 17.0896 11.7337 16.9229 12.5607C16.602 14.1512 15.8531 16.3257 14.166 18.796C14.6898 19.467 15.1749 20.0368 15.7119 20.6271C17.718 17.8923 18.2719 15.3252 18.3193 13.4191C18.3445 12.4086 18.2273 11.5799 18.1055 11.0079C18.0466 10.7314 17.9867 10.5154 17.9414 10.3683ZM16.1494 10.5763C15.9312 10.6595 15.7244 10.7603 15.5391 10.8751C15.1898 11.0916 14.948 11.337 14.8281 11.5743C13.8073 13.5982 13.1925 14.8555 12.3604 16.2316C12.5785 16.5995 12.8254 16.9837 13.1201 17.3956C13.26 17.5912 13.3945 17.7774 13.5254 17.9552C15.0025 15.716 15.6585 13.7698 15.9424 12.3624C16.0964 11.5989 16.1419 10.9923 16.1494 10.5822C16.1494 10.5803 16.1494 10.5782 16.1494 10.5763ZM5.44336 5.43567C5.39497 5.79834 5.31942 6.14705 5.2041 6.48352C5.34882 6.61293 5.54826 6.78427 5.77637 6.96008C6.26907 7.33983 6.80787 7.67064 7.19922 7.74231C7.98675 7.88648 8.5799 7.636 9.29883 7.2804C10.0019 6.93265 10.8462 6.46807 11.9678 6.49622C12.9045 6.51982 13.599 6.83732 14.2021 7.10168C14.8092 7.36775 15.332 7.58482 16.04 7.57336C16.5984 7.56433 17.3565 7.27191 18.0283 6.93665C18.3371 6.78253 18.6096 6.62799 18.8105 6.50891C18.6891 6.16472 18.6116 5.80728 18.5615 5.43567H5.44336ZM19.6123 1.4259C19.6123 1.25777 19.5558 1.1624 19.4971 1.10754C19.4333 1.04818 19.3275 1.00019 19.1777 1.00012H4.8291C4.68298 1.00012 4.57988 1.04782 4.51758 1.10657C4.45993 1.16101 4.40332 1.25629 4.40332 1.4259V3.83215L4.41602 3.95325C4.47132 4.22685 4.70955 4.43205 5 4.43567C5.13723 4.43567 5.29552 4.43567 5.4707 4.43567V2.8136C5.47081 2.53754 5.69462 2.3136 5.9707 2.3136C6.24666 2.31375 6.4706 2.53763 6.4707 2.8136V4.43567C6.79866 4.43567 7.14865 4.43567 7.50684 4.43567V2.8136C7.50694 2.53754 7.73076 2.3136 8.00684 2.3136C8.28275 2.31379 8.50673 2.53766 8.50684 2.8136V4.43567C8.83879 4.43567 9.16691 4.43567 9.48047 4.43567V2.8136C9.48057 2.53766 9.70456 2.31379 9.98047 2.3136C10.2565 2.3136 10.4804 2.53754 10.4805 2.8136V4.43567H11.4229V2.8136C11.423 2.53755 11.6468 2.3136 11.9229 2.3136C12.1989 2.3136 12.4227 2.53754 12.4229 2.8136V4.43567H13.4727V2.8136C13.4728 2.53761 13.6967 2.3137 13.9727 2.3136C14.2487 2.3136 14.4726 2.53754 14.4727 2.8136V4.43567H15.4678V2.8136C15.4679 2.53754 15.6917 2.3136 15.9678 2.3136C16.2437 2.3138 16.4677 2.53767 16.4678 2.8136V4.43567H17.5244V2.8136C17.5245 2.53754 17.7483 2.3136 18.0244 2.3136C18.3004 2.31367 18.5243 2.53759 18.5244 2.8136V4.43567H19.0049C19.3477 4.43138 19.6121 4.15938 19.6123 3.83215V1.4259ZM20.6123 3.83215C20.6121 4.52586 20.1715 5.1088 19.5566 5.33411C19.6183 5.77487 19.7187 6.15248 19.8838 6.49329C20.2239 7.19504 20.7442 8.18047 21.5957 8.66711C23.1668 9.56513 24.0508 11.0588 24.0508 12.67V28.796C24.0507 29.6948 23.5855 30.3967 22.9414 30.8566C22.3062 31.3101 21.4836 31.5431 20.6797 31.5431H3.3418C2.54396 31.5431 1.72751 31.3099 1.09766 30.8556C0.458852 30.3948 5.59597e-05 29.6925 1.13615e-10 28.796C1.08481e-05 23.9108 4.50301e-05 18.9675 1.13615e-10 12.67C-1.15029e-05 11.0613 0.873446 9.56727 2.43066 8.66809C3.31328 8.15851 3.83615 7.14641 4.16016 6.41711C4.3027 6.09621 4.39179 5.74219 4.44824 5.33411C3.83737 5.10735 3.40349 4.52167 3.40332 3.83215V1.4259C3.40332 1.00818 3.5548 0.640444 3.83203 0.379028C4.07055 0.154152 4.37536 0.032777 4.69238 0.00598145L4.8291 0.00012207H19.1777C19.5438 0.000189303 19.9052 0.120862 20.1797 0.377075C20.4592 0.638045 20.6123 1.00656 20.6123 1.4259V3.83215Z" fill="#3F0F33"/>
</svg>
