<svg width="379" height="271" viewBox="0 0 379 271" fill="none" xmlns="http://www.w3.org/2000/svg">
<path d="M314.551 243.886C272.778 264.672 238.876 265.325 193.755 261.98C152.179 258.898 129.183 271.865 87.3825 270.329C26.193 268.081 4.92477 249.705 0.473311 240.824C-4.53693 230.827 31.3326 228.229 55.9201 216.523C89.8941 200.348 119.558 201.814 162.293 199.824C214.111 197.412 242.417 207.832 294.135 210.957C325.667 212.862 372.42 212.954 376.377 220.61C379.862 227.353 342.249 230.104 314.551 243.886Z" fill="#EAE5E9"/>
<path d="M255.588 41.1458C251.213 42.3741 246.925 44.8534 246.925 44.8534C246.925 44.8534 251.35 47.1136 255.809 48.1111C258.082 44.9146 256.609 42.1356 255.588 41.1458Z" fill="#665858"/>
<path d="M217.78 41.0099C212.96 41.7763 207.836 44.1795 207.836 44.1795C207.836 44.1795 212.77 46.8418 217.368 47.8466C219.264 45.3063 218.432 42.2303 217.78 41.0099Z" fill="#665858"/>
<path d="M232.435 44.8534C232.435 44.8534 225.922 41.1623 221.315 40.8096C220.216 40.7255 219.008 40.8145 217.78 41.0098C218.432 42.2303 219.264 45.3062 217.368 47.8466C218.382 48.0681 219.379 48.2091 220.304 48.2232C225.22 48.2984 232.435 44.8534 232.435 44.8534Z" fill="#EEEEEE"/>
<path d="M271.862 44.1795C271.862 44.1795 264.684 40.4427 259.731 40.4727C258.436 40.4806 257.008 40.7474 255.588 41.1458C256.609 42.1357 258.082 44.9146 255.809 48.1112C257.277 48.4396 258.749 48.6312 260.068 48.5603C264.974 48.2965 271.862 44.1795 271.862 44.1795Z" fill="#EEEEEE"/>
<path fill-rule="evenodd" clip-rule="evenodd" d="M207.642 206.418C204.728 219.888 208.63 221.772 213.074 223.127C213.966 223.467 214.961 223.556 216.003 223.388C213.118 222.003 213.225 220.453 213.588 217.367C214.053 213.411 219.174 209.051 227.014 207.806L227.628 204.885C227.539 205.352 227.116 207.356 227.014 207.806C219.174 209.051 214.053 213.411 213.588 217.367C213.225 220.453 213.118 222.003 216.003 223.388C217.371 224.045 219.412 224.665 222.417 225.394C231.759 227.66 234.991 227.801 261.21 229.674C282.185 231.172 323.991 216.208 342.273 208.539C354.312 202.385 366.886 185.263 373.04 170.013C377.922 157.915 376.25 115.703 373.575 102.594C370.9 89.4848 361.268 73.1651 347.624 77.4457C333.979 81.7263 342.273 96.9759 344.413 109.55C346.554 122.124 348.961 128.01 349.229 136.304C349.865 156.013 343.254 162.522 339.598 163.325C337.457 152.356 331.839 134.966 323.813 119.716C315.787 104.467 302.143 90.555 300.002 86.8095C297.862 83.064 294.652 74.7703 293.314 65.6741C292.244 58.3971 287.161 40.3473 284.753 32.232L277.797 2.00024L266.828 22.0655C257.999 18.0524 249.17 15.3771 241.144 15.3771C234.723 15.3771 224.2 18.9442 219.741 20.7278L207.167 3.07035L202.084 31.1617C195.931 43.4684 191.65 58.9856 190.312 74.5027C188.975 90.0198 186.834 105.537 184.962 113.296C183.089 121.054 166.502 125.87 162.221 126.405C157.94 126.94 136.27 127.743 131.989 128.545C127.709 129.348 123.696 132.291 123.696 136.036C123.696 139.782 124.766 141.922 129.849 143.795C134.932 145.667 145.634 147.005 163.559 146.738C173.468 146.59 184.629 143.708 192.788 140.97C192.788 140.97 192.42 143.238 196.805 151.696C201.191 160.153 206.413 167.08 211.253 174.308C210.799 185.068 209.745 196.696 207.642 206.418ZM259.831 40.085C264.784 40.055 271.962 43.7918 271.962 43.7918C271.962 43.7918 265.074 47.9088 260.168 48.1725C258.849 48.2434 257.377 48.0519 255.909 47.7235C251.45 46.7259 247.025 44.4657 247.025 44.4657C247.025 44.4657 251.313 41.9864 255.688 40.7581C257.108 40.3596 258.536 40.0928 259.831 40.085ZM221.415 40.422C226.022 40.7747 232.535 44.4657 232.535 44.4657C232.535 44.4657 225.32 47.9107 220.404 47.8356C219.479 47.8214 218.482 47.6804 217.468 47.4589C212.87 46.454 207.936 43.7918 207.936 43.7918C207.936 43.7918 213.06 41.3886 217.88 40.6222C219.108 40.4269 220.316 40.3379 221.415 40.422ZM235.271 52.6773C235.271 52.6773 237.839 54.3882 239.424 54.3882C241.14 54.3882 243.639 52.8239 243.639 52.8239C243.639 52.8239 241.292 50.5718 239.424 50.5643C237.604 50.557 235.271 52.6773 235.271 52.6773Z" fill="#E6AE54"/>
<path d="M239.424 54.3882C237.839 54.3882 235.271 52.6773 235.271 52.6773C235.271 52.6773 237.604 50.557 239.424 50.5643C241.292 50.5718 243.639 52.8239 243.639 52.8239C243.639 52.8239 241.14 54.3882 239.424 54.3882Z" fill="#E6AE54"/>
<path d="M263.886 190.254C255.91 198.064 237.715 197.524 229.614 196.278L227.745 207.494L271.779 200.016L263.886 190.254Z" fill="#E36F3D"/>
<path d="M284.624 34.3479C287.032 42.4634 292.116 60.5134 293.186 67.7903C294.524 76.886 297.733 85.1795 299.873 88.925C302.014 92.6708 315.659 106.583 323.685 121.832C327.305 128.711 331.85 139.852 335.368 149.448C335.378 149.348 335.391 149.248 335.401 149.148C335.545 149.66 335.682 150.17 335.818 150.678C337.467 155.229 338.858 159.364 339.772 162.436C339.513 163.759 339.206 164.967 338.867 166.07C341.044 182.346 339.562 194.557 340.32 197.803C344.483 197.137 350.588 194.519 354.641 189.477C361.469 180.984 364.966 174.489 369.296 158.002C371.217 150.688 371.217 124.349 369.296 117.035L363.161 87.3206C362.48 83.9825 362.034 82.8956 360.499 79.5344C367.759 83.9729 372.062 91.8433 373.871 100.707C376.547 113.816 378.218 156.028 373.336 168.127C367.183 183.377 354.609 200.499 342.57 206.653C324.288 214.322 282.481 229.286 261.506 227.787C235.288 225.915 232.056 225.773 222.713 223.507C219.709 222.778 217.668 222.158 216.3 221.501C215.258 221.669 211.631 221.136 210.74 220.797C206.81 219.598 207.432 211.957 208.688 202.287C209.92 202.72 211.494 203.16 213.497 203.646C215.452 204.301 217.071 206.043 227.777 204.425C209.974 223.722 240.458 216.456 250.796 214.401C266.065 211.945 322.8 204.206 329.754 170.715C326.413 158.039 318.855 136.755 311.951 123.637C303.925 108.388 290.281 94.4767 288.14 90.7307C286 86.9852 282.789 78.6911 281.452 69.595C280.381 62.318 275.299 44.268 272.891 36.1526L269.118 19.7561L277.668 4.11548L284.624 34.3479Z" fill="#E36F3D"/>
<path d="M349.978 145.154C349.978 166.307 343.656 176.055 340.495 178.285L340.351 162.037C345.719 162.037 348.897 148.856 349.978 145.154Z" fill="#E36F3D"/>
<path d="M102.915 232.091H76.3938V225.266C73.3074 224.333 63.8366 227.693 56.8673 227.444C48.1556 227.133 40.5185 222.864 37.8883 238.645C36.3325 247.979 45.3553 252.334 53.756 253.579C71.3098 256.179 71.9418 239.077 84.0759 239.699C96.21 240.321 95.1362 247.045 106.477 242.81C112.569 240.536 112.559 233.355 102.915 232.091Z" fill="#AD7659"/>
<path d="M148.597 176.367H94.9547C99.6827 179.875 109.505 187.989 110.969 192.382L120.145 188.623L120.565 209.656L133.605 209.866C133.325 213.161 131.418 222.107 126.034 231.53H148.597C148.597 231.53 160.429 223.033 160.429 203.949C160.429 185.316 148.597 176.367 148.597 176.367Z" fill="#F6EADB"/>
<path d="M158.008 221.132C154.631 227.477 150.512 230.435 150.512 230.435H127.949C129.792 227.209 131.228 224.039 132.33 221.132H158.008Z" fill="#F5DAD1"/>
<path d="M116.989 232.091L124.385 212.653H110.518L110.98 196.309L100.811 200.931C97.7055 196.308 90.2151 179.115 85.0941 176.158L76.3938 175.234C76.3938 175.234 84.4185 192.126 84.4185 203.662C84.4185 215.198 76.3938 232.091 76.3938 232.091H102.915H116.989Z" fill="#F6EADB"/>
<path d="M122.149 221.506L119.158 231.478H78.5619C78.5619 231.478 80.1038 227.362 81.8353 221.506H122.149Z" fill="#F5DAD1"/>
<path d="M75.5099 174.058V202.487V224.09V230.915C75.5099 230.915 83.5346 214.022 83.5346 202.487C83.5346 190.951 75.5099 174.058 75.5099 174.058Z" fill="#BFAE99"/>
<path d="M158.529 203.561C158.529 194.691 155.718 188.168 152.934 183.87C151.539 181.717 150.149 180.119 149.118 179.07C148.649 178.591 148.253 178.229 147.97 177.98H100.832C102.407 179.28 104.075 180.722 105.651 182.194C107.298 183.732 108.875 185.329 110.147 186.848C110.853 187.691 111.513 188.565 112.04 189.434L119.487 186.385L119.602 186.342C120.183 186.145 120.825 186.224 121.342 186.564C121.893 186.926 122.231 187.536 122.244 188.196L122.625 207.299L133.738 207.479C134.292 207.488 134.817 207.726 135.189 208.137C135.56 208.548 135.745 209.095 135.699 209.648C135.426 212.856 133.795 220.601 129.478 229.142H147.995C148.276 228.905 148.671 228.557 149.141 228.093C150.165 227.082 151.55 225.532 152.941 223.411C155.714 219.184 158.529 212.664 158.529 203.561ZM74.4935 226.736C74.1747 226.755 73.802 226.79 73.3705 226.844C72.0168 227.014 70.3959 227.325 68.5619 227.675C64.9949 228.356 60.6496 229.189 56.8958 229.055C54.6381 228.974 52.3345 228.629 50.4984 228.446C48.5463 228.252 46.9973 228.22 45.7015 228.558C44.5058 228.869 43.4447 229.517 42.4974 230.923C41.5012 232.402 40.5961 234.778 39.9613 238.586C39.3231 242.415 40.788 245.142 43.4134 247.177C46.1478 249.296 50.1257 250.617 54.1488 251.213C58.1941 251.812 61.1333 251.265 63.4691 250.209C65.8466 249.135 67.7421 247.472 69.6332 245.579C73.2201 241.989 77.1182 236.946 84.2787 237.314C90.8109 237.649 93.9573 239.695 96.5111 240.872C97.7211 241.43 98.7487 241.777 100.052 241.812C101.391 241.847 103.184 241.555 105.877 240.549C108.35 239.626 108.926 238.028 108.736 237.075C108.539 236.091 107.249 234.306 102.877 233.703H76.4935C75.3892 233.703 74.4937 232.808 74.4935 231.703V226.736ZM276.121 0.908403C276.541 0.263736 277.299 -0.0874293 278.07 0.0187543C278.892 0.132222 279.559 0.742667 279.745 1.55196L286.687 31.7209C289.088 39.8175 294.199 57.9516 295.292 65.383C296.597 74.2547 299.733 82.3074 301.739 85.8176C302.169 86.5703 303.288 87.9886 305.04 90.1145C306.731 92.1657 308.909 94.7581 311.262 97.6994C315.969 103.582 321.48 110.991 325.582 118.785C333.102 133.072 338.531 149.204 341.021 160.372C342.009 159.571 343.163 158.221 344.223 156.032C346.07 152.219 347.541 146.012 347.23 136.368C347.102 132.41 346.466 129.01 345.571 124.964C344.677 120.927 343.523 116.236 342.442 109.886C341.926 106.855 341.038 103.652 340.16 100.343C339.299 97.0914 338.447 93.7329 338.111 90.6008C337.776 87.4781 337.92 84.3319 339.274 81.6096C340.669 78.8026 343.201 76.737 347.025 75.5373C354.886 73.0711 361.481 76.6605 366.231 82.1965C370.953 87.6998 374.147 95.396 375.535 102.195C376.911 108.94 377.999 122.923 378.141 136.662C378.212 143.553 378.047 150.439 377.552 156.384C377.063 162.265 376.237 167.435 374.895 170.762C371.745 178.567 366.968 186.821 361.442 193.916C355.936 200.986 349.569 207.056 343.183 210.32C343.138 210.342 343.093 210.364 343.047 210.383C333.849 214.242 318.756 219.926 303.315 224.463C287.959 228.975 271.951 232.447 261.067 231.669C234.91 229.801 231.487 229.651 221.946 227.337C219.27 226.688 217.218 226.093 215.689 225.439C214.577 225.534 213.476 225.404 212.442 225.025C210.2 224.339 207.374 223.327 205.811 220.213C204.318 217.24 204.212 212.811 205.687 205.995C207.714 196.628 208.758 185.401 209.225 174.878C204.554 167.944 199.37 160.988 195.03 152.616C192.798 148.312 191.731 145.499 191.226 143.702C191.215 143.665 191.207 143.627 191.197 143.59C183.21 146.122 172.909 148.598 163.588 148.738C145.654 149.005 134.621 147.684 129.158 145.671C126.472 144.682 124.496 143.503 123.25 141.797C121.979 140.055 121.696 138.074 121.696 136.036C121.696 133.401 123.111 131.215 124.944 129.661C126.778 128.106 129.182 127.037 131.62 126.579C133.924 126.147 140.596 125.741 146.992 125.378C153.551 125.006 159.922 124.677 161.973 124.42C163.881 124.182 168.902 122.91 173.664 120.739C176.034 119.66 178.247 118.398 179.95 116.997C181.674 115.579 182.694 114.167 183.018 112.826C184.854 105.219 186.984 89.8234 188.32 74.3313C189.668 58.696 193.959 43.0402 200.164 30.5305L205.2 2.71407L205.232 2.56758C205.419 1.84581 205.995 1.28286 206.731 1.11836C207.516 0.942898 208.33 1.25512 208.796 1.91036L220.469 18.3029C222.755 17.444 225.879 16.3762 229.169 15.4572C233.193 14.3332 237.648 13.3772 241.144 13.3772C249.046 13.3772 257.558 15.8352 265.956 19.4885L276.042 1.04122L276.121 0.908403ZM111.827 193.845C111.704 193.895 111.577 193.931 111.449 193.956C111.708 194.005 111.96 194.104 112.187 194.255C112.762 194.637 113.099 195.288 113.079 195.978L112.675 210.265H118.933C118.77 209.982 118.672 209.656 118.665 209.308L118.302 191.192L111.827 193.845ZM223.471 64.2785C224.536 63.9874 225.636 64.6146 225.927 65.6799C226.218 66.7453 225.591 67.8455 224.526 68.1369L204.19 73.6984C203.124 73.9898 202.024 73.3625 201.733 72.2971C201.441 71.2317 202.069 70.1315 203.134 69.84L223.471 64.2785ZM253.583 62.9045C253.968 61.869 255.119 61.3407 256.155 61.7248L277.707 69.7209C278.743 70.1052 279.271 71.2558 278.887 72.2912C278.503 73.3268 277.351 73.8551 276.316 73.4709L254.763 65.4758C253.727 65.0916 253.199 63.9401 253.583 62.9045ZM239.432 48.5647C241.021 48.571 242.515 49.4641 243.366 50.049C243.845 50.3786 244.251 50.7044 244.536 50.9465C244.68 51.0684 244.797 51.1712 244.879 51.2463C244.92 51.2837 244.954 51.3144 244.978 51.3371C244.99 51.3485 245.001 51.3582 245.008 51.3654C245.012 51.369 245.015 51.3717 245.018 51.3742L245.021 51.3781L245.023 51.3791C245.02 51.3829 244.954 51.4534 243.639 52.8234L244.7 54.5197L244.698 54.5207L244.695 54.5227C244.692 54.5243 244.689 54.5262 244.685 54.5285C244.677 54.5332 244.667 54.5395 244.655 54.5471C244.63 54.5622 244.596 54.5832 244.553 54.6086C244.468 54.6593 244.349 54.729 244.202 54.8117C243.908 54.9764 243.496 55.1972 243.02 55.4191C242.584 55.6222 242.014 55.8655 241.385 56.0578C241.351 57.4986 241.315 59.0607 241.284 60.3908C241.273 60.8225 241.264 61.2299 241.255 61.6008H245.899C247.003 61.6008 247.899 62.4962 247.899 63.6008C247.899 64.7051 247.003 65.6008 245.899 65.6008H232.515C231.411 65.6007 230.515 64.7051 230.515 63.6008C230.515 62.4963 231.41 61.6008 232.515 61.6008H237.254C237.264 61.205 237.273 60.7649 237.285 60.2961C237.316 58.9728 237.352 57.4201 237.386 55.9855C236.788 55.7746 236.247 55.5195 235.845 55.3147C235.371 55.0734 234.957 54.8345 234.662 54.6564C234.514 54.5669 234.393 54.4913 234.308 54.4367C234.265 54.4095 234.231 54.3874 234.206 54.3713C234.194 54.3634 234.185 54.3567 234.177 54.3518C234.173 54.3493 234.17 54.3475 234.167 54.3459L234.164 54.343L234.162 54.342C234.165 54.3384 234.214 54.2639 235.271 52.677L234.162 54.342C233.65 54.0005 233.322 53.4416 233.276 52.8273C233.23 52.213 233.47 51.6108 233.926 51.1965L233.928 51.1945L233.932 51.1916L233.971 51.1564C233.995 51.135 234.029 51.1059 234.07 51.0705C234.152 50.9997 234.268 50.9021 234.41 50.7873C234.694 50.5593 235.097 50.2531 235.572 49.9436C236.414 49.3936 237.886 48.5586 239.432 48.5647ZM256.613 59.9797C256.788 58.8893 257.815 58.1479 258.906 58.3234L279.415 61.6262C280.506 61.8019 281.247 62.8278 281.072 63.9182C280.896 65.0086 279.87 65.7498 278.78 65.5744L258.269 62.2727C257.179 62.0969 256.437 61.0701 256.613 59.9797ZM200.833 52.9475C201.053 51.8651 202.108 51.1653 203.191 51.385L225.439 55.9045C226.521 56.1244 227.221 57.1804 227.001 58.2629C226.826 59.1243 226.121 59.74 225.295 59.8459C225.989 60.1385 226.488 60.8113 226.518 61.6135C226.559 62.7173 225.698 63.6455 224.594 63.6867L201.303 64.5559C200.199 64.597 199.271 63.7358 199.23 62.632C199.189 61.5284 200.05 60.6002 201.154 60.5588L224.051 59.7043L202.395 55.3049C201.312 55.085 200.614 54.0298 200.833 52.9475ZM282.751 51.5266C283.852 51.4331 284.821 52.2492 284.914 53.3498C285.008 54.4504 284.191 55.4184 283.09 55.5119L256.497 57.7717C255.397 57.8652 254.428 57.0488 254.334 55.9484C254.241 54.8478 255.058 53.8798 256.159 53.7863L282.751 51.5266ZM245.024 51.3811C245.468 51.8078 245.691 52.4154 245.628 53.0285C245.565 53.6417 245.223 54.1916 244.701 54.5188L243.639 52.8234L245.024 51.3811ZM236.613 54.1594L236.615 54.1584L236.614 54.1574L236.613 54.1594ZM259.819 38.0852C262.694 38.0678 266.024 39.1168 268.473 40.0607C269.732 40.5462 270.828 41.0316 271.609 41.3957C272 41.578 272.314 41.7306 272.533 41.8391C272.642 41.8933 272.728 41.9367 272.787 41.967C272.817 41.9821 272.84 41.9947 272.857 42.0031L272.884 42.0168L272.885 42.0178L273.003 42.0842C273.578 42.4346 273.941 43.0536 273.961 43.7326C273.983 44.457 273.61 45.1362 272.988 45.508L272.987 45.509L272.985 45.51C272.985 45.51 272.981 45.5125 272.979 45.5139C272.974 45.5166 272.968 45.5201 272.96 45.5246C272.944 45.534 272.922 45.5479 272.894 45.5647C272.837 45.5981 272.754 45.6452 272.649 45.7053C272.438 45.8254 272.136 45.996 271.759 46.1994C271.007 46.6054 269.951 47.1491 268.733 47.7033C266.363 48.7811 263.125 50.0159 260.275 50.1691C258.706 50.2535 257.038 50.025 255.473 49.675C253.086 49.141 250.746 48.2794 249.03 47.5676C248.165 47.2091 247.444 46.8829 246.937 46.6447C246.683 46.5256 246.482 46.4282 246.342 46.3596C246.273 46.3254 246.218 46.2986 246.18 46.2795C246.161 46.27 246.146 46.2624 246.135 46.257C246.13 46.2544 246.126 46.2518 246.122 46.2502L246.118 46.2482L246.117 46.2473C245.464 45.914 245.045 45.2502 245.026 44.5178C245.007 43.7855 245.39 43.1014 246.024 42.7346L246.025 42.7336L246.031 42.7307C246.034 42.7289 246.038 42.7267 246.043 42.7238C246.054 42.7179 246.068 42.7088 246.086 42.6984C246.123 42.6775 246.176 42.6482 246.243 42.6105C246.379 42.5351 246.574 42.4278 246.82 42.2961C247.312 42.0327 248.013 41.6697 248.854 41.2678C250.524 40.4698 252.805 39.4898 255.148 38.8322C256.661 38.4074 258.28 38.0945 259.819 38.0852ZM217.566 38.6467C218.89 38.4361 220.264 38.3281 221.568 38.4279C224.229 38.6317 227.27 39.7633 229.506 40.7443C230.655 41.2482 231.652 41.74 232.362 42.1057C232.717 42.2887 233.002 42.4412 233.201 42.549C233.3 42.603 233.378 42.646 233.432 42.676C233.459 42.691 233.481 42.7027 233.495 42.7111C233.503 42.7153 233.509 42.7185 233.513 42.7209C233.515 42.722 233.518 42.7238 233.518 42.7238L233.52 42.7248L233.521 42.7258L233.64 42.798C234.217 43.1802 234.558 43.8371 234.534 44.5354C234.509 45.2338 234.123 45.8655 233.52 46.2063L233.397 46.2707L233.368 46.2844C233.352 46.2922 233.328 46.3027 233.298 46.3166C233.239 46.3444 233.153 46.384 233.043 46.4338C232.824 46.5335 232.509 46.6745 232.117 46.842C231.334 47.1764 230.237 47.622 228.978 48.0656C226.525 48.9296 223.208 49.8785 220.373 49.8352C219.277 49.8184 218.141 49.6527 217.041 49.4123C214.557 48.8693 212.036 47.8949 210.176 47.0813C209.237 46.6704 208.447 46.2916 207.889 46.0148C207.61 45.8764 207.389 45.7627 207.235 45.6828C207.158 45.6429 207.098 45.6112 207.056 45.5891C207.035 45.578 207.019 45.5689 207.007 45.5627C207.001 45.5596 206.996 45.5577 206.993 45.5559L206.989 45.5529L206.987 45.552L207.936 43.7922L207.087 41.9807L207.093 41.9777C207.097 41.9761 207.102 41.9737 207.108 41.9709C207.12 41.9652 207.138 41.9575 207.16 41.9475C207.203 41.9275 207.265 41.8984 207.345 41.8625C207.505 41.7906 207.736 41.6886 208.027 41.5647C208.607 41.317 209.429 40.98 210.407 40.6184C212.345 39.9014 214.971 39.0594 217.566 38.6467ZM259.843 42.0852C259.506 42.0872 259.15 42.1124 258.778 42.1564C259.144 43.3069 259.265 44.6763 258.862 46.1584C259.283 46.188 259.684 46.1952 260.06 46.175C262.116 46.0645 264.775 45.1093 267.077 44.0627C267.175 44.0178 267.272 43.9707 267.368 43.926C267.258 43.8825 267.148 43.8367 267.035 43.7932C264.656 42.8763 261.921 42.0727 259.843 42.0852ZM220.516 42.3898C220.683 43.4256 220.7 44.615 220.403 45.8342C220.413 45.8344 220.424 45.836 220.434 45.8361C222.512 45.8679 225.256 45.1332 227.637 44.2951C225.527 43.3864 223.131 42.5593 221.262 42.4162C221.024 42.398 220.775 42.389 220.516 42.3898ZM207.936 43.7922L206.987 45.552C206.322 45.1933 205.915 44.4906 205.936 43.7355C205.957 42.9805 206.403 42.3014 207.087 41.9807L207.936 43.7922ZM254.879 43.1057C253.778 43.4795 252.704 43.9137 251.74 44.342C252.711 44.714 253.791 45.087 254.897 45.4006C255.225 44.4754 255.113 43.6872 254.879 43.1057ZM216.554 42.9191C215.331 43.2003 214.119 43.5644 213.02 43.9367C214.088 44.3679 215.263 44.7928 216.44 45.132C216.679 44.3704 216.67 43.5876 216.554 42.9191ZM162.529 203.561C162.529 213.542 159.428 220.813 156.285 225.605C154.718 227.994 153.145 229.761 151.951 230.94C151.353 231.529 150.849 231.973 150.486 232.276C150.475 232.285 150.462 232.293 150.452 232.302C150.112 232.922 149.454 233.343 148.698 233.343C148.385 233.343 148.09 233.27 147.827 233.142H126.133C125.42 233.142 124.761 232.762 124.404 232.146C124.046 231.529 124.043 230.769 124.397 230.15C128.696 222.625 130.692 215.439 131.411 211.441L126.266 211.358C126.52 211.857 126.557 212.444 126.355 212.976L118.958 232.414C118.663 233.19 117.919 233.703 117.089 233.703H111.488C112.07 234.479 112.47 235.346 112.659 236.293C113.361 239.815 110.895 242.945 107.277 244.296C104.3 245.407 101.974 245.863 99.9456 245.81C97.8817 245.755 96.2921 245.175 94.8363 244.504C92.0584 243.223 89.6747 241.596 84.0736 241.309C79.1 241.054 76.6142 244.251 72.4632 248.406C70.4854 250.386 68.1736 252.473 65.1166 253.855C62.0176 255.255 58.2944 255.87 53.5628 255.169C49.1853 254.521 44.4515 253.041 40.9632 250.338C37.3662 247.55 35.0975 243.432 36.015 237.928C36.6953 233.847 37.7315 230.838 39.179 228.689C40.6756 226.467 42.5616 225.242 44.6927 224.687C46.7239 224.158 48.8828 224.266 50.8949 224.466C53.0228 224.678 54.9406 224.983 57.0384 225.058C60.254 225.173 64.1295 224.45 67.8119 223.746C69.6023 223.404 71.3637 223.065 72.8714 222.875C73.4014 222.809 73.9502 222.753 74.4935 222.728V174.846C74.4936 174.279 74.7349 173.738 75.1566 173.359C75.5783 172.98 76.1415 172.798 76.7054 172.858L85.4056 173.781L85.6117 173.815C85.8157 173.858 86.0122 173.934 86.1937 174.038C87.8898 175.018 89.5333 176.98 91.0121 179.091C92.5437 181.278 94.0973 183.921 95.5589 186.565C97.0216 189.21 98.4236 191.914 99.6332 194.204C100.42 195.695 101.111 196.982 101.692 197.991L110.252 194.101C110.398 194.034 110.55 193.987 110.703 193.957C110.543 193.927 110.385 193.881 110.235 193.812C109.732 193.581 109.346 193.151 109.171 192.626C108.929 191.901 108.246 190.808 107.08 189.416C105.951 188.069 104.502 186.594 102.92 185.116C99.758 182.163 96.1811 179.306 93.8626 177.586C93.1698 177.072 92.8849 176.171 93.1556 175.352C93.4264 174.533 94.1924 173.98 95.055 173.98H148.698L148.86 173.987C149.237 174.017 149.6 174.155 149.904 174.385L148.698 175.98C149.904 174.385 149.906 174.386 149.906 174.386L149.908 174.387C149.908 174.387 149.911 174.389 149.912 174.391L149.963 174.43C149.994 174.454 150.035 174.488 150.087 174.529C150.191 174.614 150.337 174.734 150.517 174.891C150.877 175.204 151.378 175.662 151.973 176.268C153.161 177.478 154.729 179.283 156.291 181.696C159.423 186.53 162.529 193.797 162.529 203.561ZM78.4935 221.499C78.5354 221.382 78.5786 221.265 78.6205 221.147C80.6147 215.515 82.5189 208.681 82.5189 203.275C82.5189 197.869 80.6147 191.033 78.6205 185.402C78.5785 185.283 78.5355 185.165 78.4935 185.048V221.499ZM86.5189 203.275C86.5189 209.404 84.409 216.784 82.391 222.483C81.3708 225.363 80.3517 227.876 79.5873 229.668C79.5822 229.68 79.5766 229.692 79.5716 229.703H115.71L121.585 214.265H110.618C110.078 214.265 109.56 214.046 109.184 213.659C108.807 213.272 108.603 212.748 108.618 212.208L108.99 199.069L101.739 202.364C100.848 202.769 99.7956 202.47 99.2503 201.658C98.4028 200.396 97.2996 198.352 96.096 196.072C94.8679 193.747 93.496 191.101 92.058 188.5C90.6188 185.898 89.1458 183.399 87.7357 181.386C86.4421 179.539 85.3429 178.313 84.5082 177.708L79.7201 177.199C80.4674 178.966 81.4296 181.352 82.391 184.067C84.409 189.765 86.5189 197.145 86.5189 203.275ZM125.696 136.036C125.696 137.744 125.947 138.706 126.482 139.439C127.042 140.207 128.143 141.035 130.54 141.918C135.244 143.651 145.613 145.005 163.529 144.738C173.134 144.594 184.068 141.787 192.152 139.074C195.75 137.867 198.74 136.692 200.743 135.811C201.755 135.366 202.934 135.825 203.379 136.836C203.824 137.847 203.365 139.027 202.354 139.472C200.534 140.272 198.003 141.275 194.999 142.324C195.023 142.417 195.048 142.516 195.077 142.62C195.485 144.072 196.427 146.622 198.58 150.775C201.889 157.156 205.659 162.614 209.452 168.12C209.663 159.01 209.473 151.009 209.194 146.061C209.132 144.958 209.975 144.014 211.077 143.951C212.18 143.889 213.125 144.733 213.187 145.836C213.534 151.996 213.745 162.686 213.251 174.393C212.795 185.202 211.735 196.959 209.597 206.841C208.157 213.495 208.545 216.743 209.386 218.418C209.843 219.329 210.504 219.912 211.437 220.38C211.34 219.291 211.481 218.16 211.602 217.134C211.921 214.417 213.766 211.899 216.335 209.97C218.657 208.227 221.726 206.838 225.331 206.083L225.667 204.488C227.989 192.21 229.895 175.264 230.73 166.917C230.84 165.818 231.82 165.016 232.919 165.126C234.018 165.236 234.82 166.216 234.71 167.315C233.874 175.682 231.951 192.793 229.593 205.257C229.581 205.321 229.56 205.41 229.538 205.519C229.907 205.496 230.28 205.479 230.657 205.469C234.427 205.367 243.561 203.851 252.576 202.231C258.811 201.11 264.964 199.946 268.938 199.243C265.908 195.664 262.295 190.563 259.224 184.504C255.238 176.639 252.092 167.024 252.428 156.947C252.762 146.942 256.064 137.119 259.989 128.958C263.916 120.792 268.53 114.16 271.629 110.506C272.344 109.664 273.605 109.56 274.448 110.275C275.29 110.989 275.394 112.252 274.68 113.094C271.804 116.485 267.375 122.829 263.593 130.693C259.809 138.562 256.735 147.823 256.426 157.08C256.12 166.266 258.993 175.201 262.792 182.696C266.591 190.191 271.244 196.109 274.311 199.218C274.845 199.759 275.025 200.557 274.777 201.276C274.528 201.994 273.893 202.511 273.139 202.607C270.753 202.91 262.311 204.545 253.283 206.167C244.415 207.761 234.913 209.356 230.764 209.468C229.561 209.501 228.414 209.609 227.327 209.781C223.688 210.359 220.763 211.649 218.737 213.169C216.669 214.721 215.72 216.361 215.575 217.601C215.378 219.269 215.349 219.968 215.491 220.432C215.556 220.645 215.708 221.028 216.868 221.585C218.03 222.143 219.889 222.722 222.888 223.449C232.032 225.667 235.072 225.802 261.352 227.679C271.442 228.4 286.826 225.139 302.188 220.625C317.422 216.149 332.332 210.536 341.423 206.726C347.058 203.828 352.975 198.276 358.285 191.458C363.594 184.642 368.181 176.709 371.185 169.265C372.284 166.542 373.079 161.898 373.566 156.053C374.047 150.271 374.212 143.516 374.141 136.703C373.999 123.035 372.914 109.358 371.616 102.994C370.328 96.6837 367.368 89.6647 363.195 84.801C359.049 79.97 354.005 77.5394 348.222 79.3537C345.224 80.2943 343.676 81.7409 342.856 83.3898C341.994 85.1234 341.788 87.3779 342.088 90.174C342.387 92.9611 343.158 96.0407 344.027 99.3186C344.88 102.539 345.831 105.959 346.385 109.214C347.444 115.437 348.564 119.978 349.476 124.1C350.386 128.214 351.088 131.904 351.228 136.239C351.553 146.305 350.036 153.207 347.823 157.777C346.066 161.402 343.808 163.659 341.63 164.712L342.4 196.987C342.426 198.091 341.552 199.008 340.448 199.034C339.343 199.061 338.427 198.186 338.401 197.082L337.602 163.544C335.474 152.753 329.937 135.646 322.043 120.648C318.12 113.193 312.796 106.02 308.139 100.198C305.81 97.2875 303.674 94.7466 301.953 92.6594C300.295 90.6473 298.906 88.9221 298.266 87.802C295.991 83.8211 292.706 75.2859 291.335 65.965C290.29 58.8602 285.257 40.9638 282.835 32.801C282.824 32.7613 282.813 32.7212 282.804 32.6809L277.028 7.57637L268.582 23.0246C268.08 23.9437 266.954 24.3194 266 23.8859C257.288 19.9258 248.76 17.3772 241.144 17.3772C238.22 17.3772 234.202 18.2045 230.245 19.3098C226.331 20.4033 222.653 21.7175 220.484 22.5852C219.627 22.9275 218.648 22.6392 218.113 21.8879L208.289 8.09493L204.052 31.5178C204.018 31.7048 203.957 31.8859 203.872 32.0559C197.842 44.1162 193.623 59.3849 192.305 74.674C190.965 90.2161 188.815 105.855 186.906 113.765C186.293 116.303 184.537 118.403 182.491 120.086C180.422 121.787 177.87 123.218 175.324 124.379C170.254 126.69 164.842 128.093 162.469 128.39C160.24 128.669 153.635 129.007 147.218 129.371C140.639 129.744 134.334 130.14 132.358 130.511C130.516 130.856 128.773 131.659 127.531 132.712C126.287 133.767 125.696 134.926 125.696 136.036Z" fill="#6E1D5C"/>
</svg>
