<svg width="267" height="198" viewBox="0 0 267 198" fill="none" xmlns="http://www.w3.org/2000/svg">
<path opacity="0.62" d="M100.9 197.611C156.626 197.611 201.8 194.918 201.8 191.595C201.8 188.272 156.626 185.579 100.9 185.579C45.1745 185.579 0 188.272 0 191.595C0 194.918 45.1745 197.611 100.9 197.611Z" fill="#462D40" fill-opacity="0.5"/>
<path d="M2.478 135.837V156.483C2.478 158.46 4.093 160.071 6.067 160.071H195.734C197.71 160.071 199.323 158.46 199.323 156.483V135.837H2.478Z" fill="#F0F0F0"/>
<path d="M199.323 21.804C199.323 19.829 197.711 18.215 195.734 18.215H6.067C4.092 18.215 2.47699 19.829 2.47699 21.804V135.837H199.323V21.804Z" fill="#462D40"/>
<path d="M135.169 160.071H67.463V180.857H135.169V160.071Z" fill="#D6D6D6"/>
<path d="M150.51 180.858H51.193V190.589H150.51V180.858Z" fill="#F0F0F0"/>
<path d="M135.169 160.071H67.463V167.584H135.169V160.071Z" fill="#BDBDBD"/>
<path d="M189.185 28.454H12.654V125.317H189.185V28.454Z" fill="#B07068"/>
<path d="M82.19 47.454L69.906 59.739L57.622 47.454L52.708 52.368L64.992 64.653L52.708 76.937L57.622 81.851L69.906 69.568L82.19 81.851L87.104 76.937L74.82 64.653L87.104 52.368L82.19 47.454Z" fill="#462D40"/>
<path d="M149.092 52.368L144.178 47.454L131.894 59.739L119.61 47.454L114.696 52.368L126.98 64.653L114.696 76.937L119.61 81.851L131.894 69.568L144.178 81.851L149.092 76.937L136.808 64.653L149.092 52.368Z" fill="#462D40"/>
<path d="M127.215 111.861C101.22 93.9119 74.888 111.679 74.623 111.861L71.215 106.923C71.511 106.718 101.262 86.6479 130.623 106.923L127.215 111.861Z" fill="#462D40"/>
<path d="M262.185 0H173.185C170.976 0 169.185 1.28066 169.185 2.86021V43.96C169.185 45.5396 170.976 46.8202 173.185 46.8202H183.49L173.35 60.565L207.57 46.8202H262.185C264.394 46.8202 266.185 45.5396 266.185 43.96V2.86021C266.185 1.28066 264.394 0 262.185 0Z" fill="white"/>
<path d="M198.779 27.6999C198.882 27.6999 198.97 27.7369 199.047 27.8129C199.123 27.8869 199.16 27.9769 199.16 28.0809V28.5889C199.16 28.6929 199.123 28.7819 199.047 28.8589C198.971 28.9329 198.883 28.9709 198.779 28.9709H193.074C192.97 28.9709 192.881 28.9329 192.804 28.8589C192.73 28.7829 192.693 28.6939 192.693 28.5889V19.4679C192.693 19.3639 192.73 19.2749 192.804 19.1979C192.88 19.1239 192.97 19.0859 193.074 19.0859H198.666C198.769 19.0859 198.859 19.1239 198.934 19.1979C199.01 19.2739 199.047 19.3639 199.047 19.4679V19.9759C199.047 20.0799 199.01 20.1689 198.934 20.2439C198.86 20.3199 198.77 20.3569 198.666 20.3569H194.033V23.3369H198.355C198.459 23.3369 198.548 23.3739 198.623 23.4489C198.699 23.5239 198.736 23.6139 198.736 23.7179V24.2259C198.736 24.3299 198.699 24.4189 198.623 24.4949C198.549 24.5699 198.459 24.6079 198.355 24.6079H194.033V27.7009L198.779 27.6999Z" fill="#414042"/>
<path d="M206.261 19.086C206.724 19.086 207.159 19.142 207.568 19.255C207.978 19.368 208.338 19.542 208.648 19.778C208.959 20.012 209.207 20.314 209.39 20.681C209.574 21.048 209.665 21.491 209.665 22.008C209.665 22.771 209.474 23.378 209.093 23.83C208.712 24.281 208.224 24.601 207.632 24.79L209.763 28.504C209.792 28.561 209.806 28.612 209.806 28.659C209.806 28.744 209.775 28.816 209.714 28.878C209.653 28.94 209.579 28.97 209.495 28.97H208.888C208.7 28.97 208.562 28.923 208.472 28.828C208.382 28.734 208.32 28.654 208.281 28.588L206.234 24.987H203.804V28.588C203.804 28.692 203.767 28.781 203.693 28.858C203.617 28.932 203.527 28.97 203.423 28.97H202.845C202.742 28.97 202.652 28.932 202.575 28.858C202.501 28.782 202.464 28.693 202.464 28.588V19.467C202.464 19.363 202.501 19.274 202.575 19.197C202.651 19.123 202.741 19.085 202.845 19.085L206.261 19.086ZM203.804 23.718H206.191C206.869 23.718 207.394 23.583 207.765 23.316C208.138 23.047 208.324 22.612 208.324 22.009C208.324 21.407 208.138 20.981 207.765 20.732C207.394 20.482 206.869 20.357 206.191 20.357H203.804V23.718Z" fill="#414042"/>
<path d="M216.867 19.086C217.33 19.086 217.765 19.142 218.174 19.255C218.584 19.368 218.944 19.542 219.254 19.778C219.565 20.012 219.813 20.314 219.996 20.681C220.18 21.048 220.271 21.491 220.271 22.008C220.271 22.771 220.08 23.378 219.699 23.83C219.318 24.281 218.83 24.601 218.238 24.79L220.369 28.504C220.398 28.561 220.412 28.612 220.412 28.659C220.412 28.744 220.381 28.816 220.32 28.878C220.26 28.94 220.185 28.97 220.101 28.97H219.494C219.306 28.97 219.168 28.923 219.078 28.828C218.988 28.734 218.926 28.654 218.887 28.588L216.84 24.987H214.41V28.588C214.41 28.692 214.373 28.781 214.299 28.858C214.223 28.932 214.133 28.97 214.029 28.97H213.451C213.348 28.97 213.258 28.932 213.181 28.858C213.107 28.782 213.07 28.693 213.07 28.588V19.467C213.07 19.363 213.107 19.274 213.181 19.197C213.257 19.123 213.347 19.085 213.451 19.085L216.867 19.086ZM214.41 23.718H216.797C217.475 23.718 218 23.583 218.371 23.316C218.744 23.047 218.93 22.612 218.93 22.009C218.93 21.407 218.744 20.981 218.371 20.732C218 20.482 217.474 20.357 216.797 20.357H214.41V23.718Z" fill="#414042"/>
<path d="M223.306 22.7719C223.316 22.2449 223.408 21.7479 223.581 21.2829C223.755 20.8159 224.007 20.4119 224.337 20.0679C224.667 19.7239 225.071 19.4509 225.552 19.2489C226.031 19.0469 226.581 18.9449 227.204 18.9449C227.825 18.9449 228.376 19.0469 228.854 19.2489C229.334 19.4509 229.739 19.7249 230.069 20.0679C230.399 20.4119 230.651 20.8159 230.825 21.2829C230.999 21.7479 231.091 22.2449 231.1 22.7719C231.129 23.6099 231.129 24.4479 231.1 25.2859C231.08 25.8129 230.985 26.3099 230.811 26.7749C230.637 27.2419 230.385 27.6479 230.055 27.9979C229.725 28.3459 229.323 28.6189 228.848 28.8159C228.371 29.0129 227.825 29.1129 227.203 29.1129C226.58 29.1129 226.033 29.0129 225.557 28.8159C225.082 28.6189 224.68 28.3449 224.35 27.9979C224.02 27.6479 223.768 27.2419 223.594 26.7749C223.42 26.3099 223.324 25.8129 223.305 25.2859C223.279 24.4469 223.279 23.6099 223.306 22.7719ZM229.759 22.8429C229.739 22.3999 229.667 22.0139 229.54 21.6849C229.413 21.3549 229.237 21.0819 229.011 20.8659C228.784 20.6489 228.519 20.4869 228.214 20.3789C227.907 20.2719 227.571 20.2169 227.204 20.2169C226.837 20.2169 226.499 20.2719 226.194 20.3789C225.887 20.4869 225.622 20.6499 225.395 20.8659C225.168 21.0829 224.991 21.3549 224.858 21.6849C224.727 22.0139 224.657 22.3999 224.647 22.8429C224.627 23.2659 224.618 23.6609 224.618 24.0289C224.618 24.3969 224.628 24.7919 224.647 25.2149C224.657 25.6579 224.727 26.0439 224.858 26.3729C224.991 26.7029 225.168 26.9759 225.395 27.1919C225.622 27.4089 225.887 27.5709 226.194 27.6789C226.499 27.7869 226.837 27.8409 227.204 27.8409C227.571 27.8409 227.907 27.7869 228.214 27.6789C228.519 27.5709 228.784 27.4079 229.011 27.1919C229.238 26.9759 229.413 26.7029 229.54 26.3729C229.667 26.0439 229.739 25.6579 229.759 25.2149C229.778 24.7919 229.788 24.3969 229.788 24.0289C229.788 23.6609 229.779 23.2659 229.759 22.8429Z" fill="#414042"/>
<path d="M238.373 19.086C238.836 19.086 239.271 19.142 239.68 19.255C240.09 19.368 240.45 19.542 240.76 19.778C241.071 20.012 241.319 20.314 241.502 20.681C241.686 21.048 241.777 21.491 241.777 22.008C241.777 22.771 241.585 23.378 241.205 23.83C240.824 24.281 240.336 24.601 239.744 24.79L241.875 28.504C241.904 28.561 241.918 28.612 241.918 28.659C241.918 28.744 241.887 28.816 241.826 28.878C241.765 28.94 241.691 28.97 241.607 28.97H241C240.812 28.97 240.674 28.923 240.584 28.828C240.494 28.734 240.432 28.654 240.393 28.588L238.346 24.987H235.916V28.588C235.916 28.692 235.879 28.781 235.805 28.858C235.729 28.932 235.639 28.97 235.535 28.97H234.957C234.854 28.97 234.764 28.932 234.687 28.858C234.613 28.782 234.576 28.693 234.576 28.588V19.467C234.576 19.363 234.613 19.274 234.687 19.197C234.763 19.123 234.853 19.085 234.957 19.085L238.373 19.086ZM235.916 23.718H238.303C238.981 23.718 239.506 23.583 239.877 23.316C240.25 23.047 240.436 22.612 240.436 22.009C240.436 21.407 240.25 20.981 239.877 20.732C239.506 20.482 238.98 20.357 238.303 20.357H235.916V23.718Z" fill="#414042"/>
</svg>
